<?xml version="1.0" standalone="no"?>
<!DOCTYPE svg PUBLIC "-//W3C//DTD SVG 20010904//EN"
 "http://www.w3.org/TR/2001/REC-SVG-20010904/DTD/svg10.dtd">
<svg version="1.0" xmlns="http://www.w3.org/2000/svg"
 width="512.000000pt" height="512.000000pt" viewBox="0 0 512.000000 512.000000"
 preserveAspectRatio="xMidYMid meet">

<g transform="translate(0.000000,512.000000) scale(0.100000,-0.100000)"
fill="#000000" stroke="none">
<path d="M2010 4882 c0 -5 10 -14 23 -21 l22 -11 -24 6 c-13 4 -21 2 -18 -3 7
-11 -23 -11 -41 1 -7 4 -10 11 -7 16 3 4 -4 6 -15 3 -11 -3 -18 -9 -15 -13 3
-4 -1 -13 -9 -19 -10 -9 -17 -7 -27 6 -9 11 -10 14 -1 9 6 -4 12 -2 12 3 0 14
-13 14 -28 -1 -9 -9 -12 -9 -12 1 0 9 -10 12 -30 9 -16 -2 -32 0 -35 6 -3 6
-3 -2 0 -17 4 -19 2 -26 -5 -22 -5 3 -10 13 -10 22 0 12 -3 13 -14 4 -10 -9
-16 -9 -21 -1 -5 8 -11 8 -20 0 -10 -8 -19 -8 -34 0 -17 9 -20 8 -15 -5 4 -8
2 -15 -4 -15 -5 0 -13 8 -17 18 -6 16 -7 16 -19 -1 -9 -11 -20 -15 -31 -11
-13 5 -14 9 -3 15 8 5 9 9 2 9 -6 0 -17 -7 -24 -15 -13 -15 -53 -11 -78 8 -9
7 -11 6 -6 -7 3 -9 1 -16 -5 -16 -6 0 -11 5 -11 10 0 36 -152 -37 -338 -161
-392 -260 -681 -590 -888 -1013 -179 -367 -257 -707 -257 -1121 0 -290 34
-514 118 -774 123 -382 319 -710 590 -990 317 -328 703 -563 1126 -686 250
-73 450 -100 729 -99 246 1 413 22 634 78 760 196 1407 755 1710 1479 279 666
269 1399 -28 2058 -167 368 -449 721 -776 969 -169 128 -388 258 -411 244 -7
-4 -9 -3 -6 3 8 13 -18 24 -37 17 -9 -3 -12 -13 -9 -22 4 -9 3 -14 -1 -10 -4
3 -9 14 -10 24 -2 10 -9 20 -16 22 -7 3 -10 0 -7 -5 4 -6 -5 -15 -19 -21 -22
-11 -26 -9 -37 15 l-12 26 -6 -24 -7 -24 -1 23 c-1 13 -5 20 -11 17 -6 -4 -8
-11 -5 -16 9 -13 -9 -11 -24 4 -12 10 -13 8 -7 -8 6 -18 5 -19 -7 -3 -8 10
-17 15 -20 11 -4 -3 -7 0 -7 7 0 9 -5 7 -16 -6 -8 -10 -12 -12 -8 -4 6 12 4
13 -7 3 -7 -7 -21 -13 -32 -13 -12 0 -16 4 -11 13 5 8 3 8 -9 -2 -9 -7 -28
-11 -42 -9 -14 3 -25 2 -25 -2 0 -4 -9 -10 -19 -13 -14 -3 -19 0 -16 12 2 10
-3 18 -10 18 -8 0 -12 -4 -10 -8 10 -14 -23 -17 -43 -3 -15 10 -23 11 -28 3
-5 -8 -3 -9 6 -4 9 5 11 4 6 -4 -4 -6 -12 -9 -17 -5 -5 3 -17 0 -26 -8 -11 -8
-14 -9 -10 -1 5 7 -1 16 -12 23 -13 7 -22 7 -26 0 -3 -6 -18 -7 -33 -4 -16 3
-22 2 -15 -3 9 -6 6 -12 -10 -22 -20 -13 -21 -13 -8 3 13 15 12 18 -7 23 -12
3 -19 10 -15 16 3 6 1 7 -6 3 -6 -4 -9 -12 -6 -17 4 -5 1 -9 -5 -9 -6 0 -14 8
-17 17 -6 14 -9 12 -19 -12 -7 -17 -13 -23 -14 -14 0 12 -7 15 -26 11 -19 -3
-25 -1 -20 7 4 6 2 11 -3 11 -6 0 -11 -7 -11 -16 0 -12 -4 -14 -12 -7 -22 17
-63 10 -62 -10 2 -14 -1 -15 -12 -6 -8 6 -11 16 -7 23 4 6 -1 5 -10 -3 -15
-12 -17 -12 -11 3 8 21 -5 21 -22 -1 -12 -16 -15 -16 -24 -3 -8 13 -10 13 -10
0 0 -10 -3 -11 -11 -3 -6 6 -18 9 -27 6 -11 -5 -13 -3 -7 8 7 11 6 12 -6 2
-12 -10 -18 -10 -29 0 -8 7 -11 8 -7 1 4 -7 -1 -18 -10 -25 -14 -12 -15 -11
-9 11 7 24 6 24 -8 6 -14 -17 -20 -15 -18 5 1 4 -8 4 -20 1 -13 -3 -19 -1 -15
5 5 8 -1 7 -17 0 -13 -7 -23 -14 -21 -18 2 -3 -2 -6 -10 -6 -9 0 -14 7 -13 15
2 8 -3 17 -10 19 -7 3 -11 -1 -10 -9 2 -8 -5 -12 -22 -10 -66 7 -90 7 -90 2 0
-4 -10 -6 -22 -5 -14 2 -22 8 -20 16 1 8 -6 4 -17 -9 -13 -15 -21 -18 -24 -10
-4 10 -7 10 -15 0 -7 -11 -10 -11 -15 2 -8 21 -27 21 -27 0 0 -8 -5 -12 -10
-9 -6 4 -8 11 -5 16 3 5 -2 6 -11 2 -13 -5 -15 -3 -9 8 4 8 -2 3 -15 -10 l-23
-23 -14 23 c-8 13 -12 16 -9 7 3 -10 1 -18 -4 -18 -6 0 -10 5 -10 10 0 6 -7
10 -15 10 -8 0 -15 -6 -15 -12 0 -8 -3 -9 -8 -3 -11 15 -52 36 -52 27z m-40
-42 c6 -11 8 -20 6 -20 -3 0 -10 9 -16 20 -6 11 -8 20 -6 20 3 0 10 -9 16 -20z
m435 10 c3 -5 -1 -10 -10 -10 -9 0 -13 5 -10 10 3 6 8 10 10 10 2 0 7 -4 10
-10z m275 -832 c86 -20 207 -85 274 -149 212 -198 265 -490 135 -749 -65 -129
-205 -256 -331 -301 l-38 -13 0 -688 0 -689 38 7 c94 17 216 59 322 111 96 48
127 69 191 132 114 114 178 263 179 419 l0 52 196 0 197 0 -6 -97 c-22 -373
-231 -679 -587 -858 -244 -123 -583 -190 -835 -166 -641 63 -1078 388 -1175
876 -10 50 -21 125 -25 168 l-7 77 195 0 194 0 11 -89 c41 -338 252 -527 695
-625 l27 -6 0 687 -1 688 -80 39 c-143 69 -260 199 -315 349 -170 471 253 940
746 825z"/>
<path d="M2434 3626 c-87 -39 -144 -127 -144 -221 0 -68 17 -110 65 -163 102
-113 297 -91 380 42 26 43 30 59 30 121 0 62 -4 78 -30 121 -45 72 -109 108
-199 112 -45 1 -82 -3 -102 -12z"/>
<path d="M1566 4865 c-3 -8 -1 -15 4 -15 6 0 10 7 10 15 0 8 -2 15 -4 15 -2 0
-6 -7 -10 -15z"/>
</g>
</svg>
