<?xml version="1.0" encoding="UTF-8"?>
<svg version="1.1" xmlns="http://www.w3.org/2000/svg" width="512" height="512">
<path d="M0 0 C0.81730591 -0.00623996 1.63461182 -0.01247993 2.47668457 -0.01890898 C5.21912364 -0.03488145 7.96067912 -0.02221833 10.703125 -0.00964355 C12.66764851 -0.01506279 14.63216796 -0.02218433 16.59667969 -0.03088379 C21.93548516 -0.04914366 27.27398199 -0.04203856 32.61279297 -0.02936745 C38.19499556 -0.01925361 43.77717139 -0.02862863 49.359375 -0.03491211 C58.73442336 -0.04219322 68.10934576 -0.03258861 77.484375 -0.0135498 C88.32944839 0.00821976 99.17422101 0.00116873 110.01928711 -0.02085543 C119.32383808 -0.03899618 128.6282984 -0.04157422 137.93286133 -0.03110075 C143.49305147 -0.02485855 149.05310015 -0.02405019 154.61328125 -0.0372467 C159.84019072 -0.04878526 165.06671169 -0.04081586 170.2935791 -0.01766968 C172.21406407 -0.01237193 174.13458162 -0.01391451 176.05505371 -0.02272034 C178.67256338 -0.03361744 181.2888206 -0.01998354 183.90625 0 C184.67005981 -0.00892289 185.43386963 -0.01784577 186.2208252 -0.02703905 C189.68613219 0.02443886 191.61276665 0.25448018 194.42767334 2.3506546 C196.53834404 5.33554605 196.40976188 7.39290637 196.34375 11.02355957 C196.33375977 12.15052246 196.32376953 13.27748535 196.31347656 14.43859863 C196.27706055 15.86397949 196.24064453 17.28936035 196.203125 18.75793457 C196.120625 23.29543457 196.038125 27.83293457 195.953125 32.50793457 C206.513125 32.50793457 217.073125 32.50793457 227.953125 32.50793457 C227.79512206 23.4727818 227.79512206 23.4727818 227.59277344 14.43859863 C227.5827832 13.31163574 227.57279297 12.18467285 227.5625 11.02355957 C227.54155273 9.87145996 227.52060547 8.71936035 227.49902344 7.53234863 C228.07301395 3.70944836 228.86896309 2.80461508 231.953125 0.50793457 C234.76628054 0.11507956 237.18800763 -0.03284992 240 0 C240.81730591 -0.00623996 241.63461182 -0.01247993 242.47668457 -0.01890898 C245.21912364 -0.03488145 247.96067912 -0.02221833 250.703125 -0.00964355 C252.66764851 -0.01506279 254.63216796 -0.02218433 256.59667969 -0.03088379 C261.93548516 -0.04914366 267.27398199 -0.04203856 272.61279297 -0.02936745 C278.19499556 -0.01925361 283.77717139 -0.02862863 289.359375 -0.03491211 C298.73442336 -0.04219322 308.10934576 -0.03258861 317.484375 -0.0135498 C328.32944839 0.00821976 339.17422101 0.00116873 350.01928711 -0.02085543 C359.32383808 -0.03899618 368.6282984 -0.04157422 377.93286133 -0.03110075 C383.49305147 -0.02485855 389.05310015 -0.02405019 394.61328125 -0.0372467 C399.84019072 -0.04878526 405.06671169 -0.04081586 410.2935791 -0.01766968 C412.21406407 -0.01237193 414.13458162 -0.01391451 416.05505371 -0.02272034 C418.67256338 -0.03361744 421.2888206 -0.01998354 423.90625 0 C424.67005981 -0.00892289 425.43386963 -0.01784577 426.2208252 -0.02703905 C429.36401658 0.01965376 431.64656509 0.34182682 434.42430878 1.84693146 C436.93472343 6.21646986 436.50213452 10.6429505 436.46105957 15.59191895 C436.47041951 17.30790409 436.47041951 17.30790409 436.47996855 19.0585556 C436.49317684 22.23444473 436.48840472 25.40972393 436.47602367 28.58559799 C436.4669856 32.0103457 436.48093668 35.43500999 436.49194336 38.85974121 C436.50974657 45.56895259 436.50588066 52.27798516 436.4942928 58.9872036 C436.4852658 64.43903447 436.48403128 69.89081517 436.48838806 75.34265137 C436.48900099 76.11805566 436.48961393 76.89345996 436.49024543 77.69236135 C436.49152431 79.26749231 436.49282116 80.84262325 436.4941358 82.41775417 C436.50554687 97.19398437 436.49241965 111.97011537 436.47093433 126.74632931 C436.45306285 139.42993492 436.45616681 152.1133941 436.47460938 164.79699707 C436.49600681 179.51970074 436.50444818 194.24231743 436.49216032 208.96503448 C436.4908861 210.5344289 436.48962862 212.10382333 436.48838806 213.67321777 C436.48746241 214.83152989 436.48746241 214.83152989 436.48651806 216.01324224 C436.48306176 221.45965503 436.48889949 226.90601273 436.49830627 232.35241699 C436.50951515 238.98818947 436.50650981 245.62377265 436.4851833 252.25952339 C436.47465769 255.64639838 436.47057629 259.03295754 436.48377991 262.41983032 C436.49465429 266.08818881 436.48106854 269.75564946 436.46105957 273.4239502 C436.4744439 275.03657871 436.4744439 275.03657871 436.48809862 276.68178558 C436.41307709 283.73621988 436.41307709 283.73621988 434.36679173 287.16950893 C431.05314562 289.00699082 428.61474804 289.00734501 424.82652283 289.00672913 C424.10807758 289.01211368 423.38963234 289.01749823 422.64941603 289.02304596 C420.24110969 289.03632406 417.83382137 289.02116726 415.42553711 289.00622559 C413.69896984 289.01004857 411.97240575 289.01566743 410.24584961 289.02294922 C406.52605546 289.03491044 402.80654352 289.03440195 399.08674431 289.02435493 C393.19823426 289.00879787 387.31001405 289.02247164 381.42152405 289.04039001 C369.97431661 289.07123445 358.52719737 289.07271144 347.07995605 289.07073975 C332.53468117 289.06934796 317.98947496 289.0797903 303.44425017 289.11931747 C297.59821752 289.13420824 291.75244169 289.13401199 285.90640533 289.12183964 C282.2566298 289.1171076 278.6069512 289.12468167 274.95719147 289.13538361 C273.27346028 289.13777716 271.58971245 289.13509925 269.90600014 289.12677574 C260.86733437 289.08479193 252.57639653 289.41475178 243.953125 292.50793457 C243.9752002 293.28443359 243.99727539 294.06093262 244.02001953 294.86096191 C244.10380192 297.99309145 244.15294218 301.12509267 244.203125 304.25793457 C244.25339844 305.92469238 244.25339844 305.92469238 244.3046875 307.62512207 C244.31757813 308.69504395 244.33046875 309.76496582 244.34375 310.86730957 C244.3751709 312.3440918 244.3751709 312.3440918 244.40722656 313.85070801 C243.81375915 317.3234496 242.67341064 318.31713272 239.953125 320.50793457 C237.37304688 321.01586914 237.37304688 321.01586914 234.421875 321.0255127 C233.31392578 321.03812134 232.20597656 321.05072998 231.06445312 321.0637207 C229.87271484 321.05562378 228.68097656 321.04752686 227.453125 321.03918457 C225.61137695 321.04492493 225.61137695 321.04492493 223.73242188 321.05078125 C221.13671041 321.05350299 218.54097164 321.04612368 215.9453125 321.02941895 C211.96812901 321.00801532 207.99275218 321.0292142 204.015625 321.05480957 C201.49478767 321.05216634 198.97395147 321.04704148 196.453125 321.03918457 C195.26138672 321.04728149 194.06964844 321.05537842 192.84179688 321.0637207 C191.17987305 321.04480774 191.17987305 321.04480774 189.484375 321.0255127 C188.51048828 321.02233032 187.53660156 321.01914795 186.53320312 321.01586914 C183.23231644 320.3660305 182.04731355 319.08223361 179.953125 316.50793457 C178.87859258 313.63532969 178.77359133 310.79261275 178.63671875 307.74230957 C178.57387695 306.40812988 178.57387695 306.40812988 178.50976562 305.04699707 C178.47044922 304.12660645 178.43113281 303.20621582 178.390625 302.25793457 C178.34744141 301.3220752 178.30425781 300.38621582 178.25976562 299.42199707 C178.1539444 297.11744603 178.05255087 294.81276771 177.953125 292.50793457 C169.34681987 288.79625817 160.93267879 289.09383441 151.74682617 289.13903809 C150.00816613 289.13656724 148.26950758 289.13272596 146.53085327 289.12762451 C142.80189723 289.11931656 139.07309406 289.12006819 135.34413719 289.12780952 C129.44877979 289.13942589 123.55361778 289.12720388 117.65827942 289.1111908 C103.02341874 289.07506162 88.38856335 289.06877136 73.75366211 289.07128906 C62.36313266 289.07299904 50.97276347 289.06593235 39.58227903 289.0313105 C33.72003352 289.01449734 27.85817891 289.01632631 21.99593484 289.03213322 C18.35520678 289.03791817 14.7146654 289.02721274 11.07397079 289.0118866 C9.38407164 289.00815188 7.69414144 289.01129285 6.00427055 289.02175713 C3.70010114 289.03507718 1.39729909 289.02396399 -0.90681458 289.00672913 C-2.84163806 289.00704305 -2.84163806 289.00704305 -4.8155489 289.00736332 C-8.046875 288.50793457 -8.046875 288.50793457 -10.46138287 287.16950893 C-13.05488722 282.81577892 -12.59607395 278.3957429 -12.55480957 273.4239502 C-12.56104953 272.2799601 -12.5672895 271.13597 -12.57371855 269.95731354 C-12.58692684 266.78142441 -12.58215472 263.60614521 -12.56977367 260.43027115 C-12.5607356 257.00552344 -12.57468668 253.58085915 -12.58569336 250.15612793 C-12.60349657 243.44691655 -12.59963066 236.73788398 -12.5880428 230.02866554 C-12.5790158 224.57683467 -12.57778128 219.12505397 -12.58213806 213.67321777 C-12.58275099 212.89781348 -12.58336393 212.12240918 -12.58399543 211.32350779 C-12.58527431 209.74837683 -12.58657116 208.17324589 -12.5878858 206.59811497 C-12.59929687 191.82188477 -12.58616965 177.04575377 -12.56468433 162.26953983 C-12.54681285 149.58593422 -12.54991681 136.90247504 -12.56835938 124.21887207 C-12.58975681 109.4961684 -12.59819818 94.77355171 -12.58591032 80.05083466 C-12.5846361 78.48144024 -12.58337862 76.91204581 -12.58213806 75.34265137 C-12.58152096 74.57044329 -12.58090386 73.79823522 -12.58026806 73.0026269 C-12.57681176 67.55621411 -12.58264949 62.10985641 -12.59205627 56.66345215 C-12.60326515 50.02767967 -12.60025981 43.39209649 -12.5789333 36.75634575 C-12.56840769 33.36947076 -12.56432629 29.9829116 -12.57752991 26.59603882 C-12.58840429 22.92768033 -12.57481854 19.26021968 -12.55480957 15.59191895 C-12.56373246 14.51683327 -12.57265534 13.44174759 -12.58184862 12.33408356 C-12.50713981 5.30905513 -12.50713981 5.30905513 -10.51805878 1.84693146 C-7.04072813 -0.03724039 -3.85682552 -0.04505574 0 0 Z " fill="#F8B300" transform="translate(44.046875,95.4920654296875)"/>
<path d="M0 0 C0.81730591 -0.00623996 1.63461182 -0.01247993 2.47668457 -0.01890898 C5.21912364 -0.03488145 7.96067912 -0.02221833 10.703125 -0.00964355 C12.66764851 -0.01506279 14.63216796 -0.02218433 16.59667969 -0.03088379 C21.93548516 -0.04914366 27.27398199 -0.04203856 32.61279297 -0.02936745 C38.19499556 -0.01925361 43.77717139 -0.02862863 49.359375 -0.03491211 C58.73442336 -0.04219322 68.10934576 -0.03258861 77.484375 -0.0135498 C88.32944839 0.00821976 99.17422101 0.00116873 110.01928711 -0.02085543 C119.32383808 -0.03899618 128.6282984 -0.04157422 137.93286133 -0.03110075 C143.49305147 -0.02485855 149.05310015 -0.02405019 154.61328125 -0.0372467 C159.84019072 -0.04878526 165.06671169 -0.04081586 170.2935791 -0.01766968 C172.21406407 -0.01237193 174.13458162 -0.01391451 176.05505371 -0.02272034 C178.67256338 -0.03361744 181.2888206 -0.01998354 183.90625 0 C184.67005981 -0.00892289 185.43386963 -0.01784577 186.2208252 -0.02703905 C189.36401658 0.01965376 191.64656509 0.34182682 194.42430878 1.84693146 C196.93472343 6.21646986 196.50213452 10.6429505 196.46105957 15.59191895 C196.46729953 16.73590904 196.4735395 17.87989914 196.47996855 19.0585556 C196.49317684 22.23444473 196.48840472 25.40972393 196.47602367 28.58559799 C196.4669856 32.0103457 196.48093668 35.43500999 196.49194336 38.85974121 C196.50974657 45.56895259 196.50588066 52.27798516 196.4942928 58.9872036 C196.4852658 64.43903447 196.48403128 69.89081517 196.48838806 75.34265137 C196.48900099 76.11805566 196.48961393 76.89345996 196.49024543 77.69236135 C196.49152431 79.26749231 196.49282116 80.84262325 196.4941358 82.41775417 C196.50554687 97.19398437 196.49241965 111.97011537 196.47093433 126.74632931 C196.45306285 139.42993492 196.45616681 152.1133941 196.47460938 164.79699707 C196.49600681 179.51970074 196.50444818 194.24231743 196.49216032 208.96503448 C196.4908861 210.5344289 196.48962862 212.10382333 196.48838806 213.67321777 C196.48746241 214.83152989 196.48746241 214.83152989 196.48651806 216.01324224 C196.48306176 221.45965503 196.48889949 226.90601273 196.49830627 232.35241699 C196.50951515 238.98818947 196.50650981 245.62377265 196.4851833 252.25952339 C196.47465769 255.64639838 196.47057629 259.03295754 196.48377991 262.41983032 C196.49465429 266.08818881 196.48106854 269.75564946 196.46105957 273.4239502 C196.46998246 274.49903587 196.47890534 275.57412155 196.48809862 276.68178558 C196.41309247 283.73477357 196.41309247 283.73477357 194.36904526 287.17061996 C191.04200786 289.01227665 188.59205869 288.99978338 184.79046631 288.98895264 C184.06834339 288.99237034 183.34622048 288.99578804 182.60221505 288.9993093 C180.18199759 289.00589911 177.76288873 288.98389531 175.34277344 288.96203613 C173.6082156 288.96090789 171.87365585 288.96154107 170.13909912 288.96380615 C165.42857544 288.96495512 160.71845812 288.94141622 156.00802898 288.91351032 C151.08596029 288.88852716 146.16388257 288.8861571 141.24176025 288.88140869 C131.9203209 288.86896984 122.59906891 288.8361359 113.27771211 288.79601073 C102.66599763 288.75132133 92.05427428 288.7293131 81.44248915 288.70922899 C59.61259647 288.66740409 37.78287253 288.59703434 15.953125 288.50793457 C18.67764052 285.78341905 21.95890642 284.46868154 25.390625 282.82043457 C35.69062724 277.74865549 44.55199141 272.38065903 52.6640625 264.13293457 C54.953125 262.50793457 54.953125 262.50793457 57.28125 262.46887207 C61.64575416 264.16617924 65.39532188 266.81297147 69.25 269.44543457 C72.52997663 271.54729715 74.60660636 272.47561288 78.5546875 272.84387207 C83.72419028 270.8117227 85.30538059 267.22526616 87.953125 262.50793457 C88.53964844 261.51293945 89.12617188 260.51794434 89.73046875 259.49279785 C91.6641778 256.19976371 93.56217725 252.88818835 95.453125 249.57043457 C96.73352827 247.33166885 98.01476693 245.09338067 99.296875 242.85559082 C99.90813232 241.78470215 100.51938965 240.71381348 101.14916992 239.61047363 C103.31133208 235.89187075 105.57666312 232.24345134 107.88598633 228.61462402 C109.22628331 226.3242584 109.22628331 226.3242584 109.140625 222.63293457 C106.69245886 216.1903921 99.54680122 213.47594854 93.7734375 210.33215332 C89.05515924 207.71200305 89.05515924 207.71200305 87.953125 205.50793457 C88.36775153 202.60264934 88.84172603 199.76218583 89.390625 196.88293457 C89.90625 194.11918457 90.421875 191.35543457 90.953125 188.50793457 C99.863125 188.17793457 108.773125 187.84793457 117.953125 187.50793457 C117.293125 185.52793457 116.633125 183.54793457 115.953125 181.50793457 C115.6875 178.69152832 115.6875 178.69152832 115.703125 175.94543457 C115.69539063 174.58225098 115.69539063 174.58225098 115.6875 173.19152832 C115.953125 170.50793457 115.953125 170.50793457 117.953125 165.50793457 C109.043125 165.17793457 100.133125 164.84793457 90.953125 164.50793457 C90.293125 160.21793457 89.633125 155.92793457 88.953125 151.50793457 C88.458125 149.03293457 88.458125 149.03293457 87.953125 146.50793457 C88.82195312 145.97684082 89.69078125 145.44574707 90.5859375 144.89855957 C91.75003743 144.18507897 92.91409781 143.47153385 94.078125 142.75793457 C94.93277344 142.23586426 94.93277344 142.23586426 95.8046875 141.70324707 C103.20035076 137.5172901 103.20035076 137.5172901 108.953125 131.50793457 C109.01864678 124.37542057 105.12375318 119.0619136 101.515625 113.13293457 C100.23817281 110.99628065 98.96082979 108.85956145 97.68359375 106.72277832 C97.05114746 105.67332031 96.41870117 104.6238623 95.76708984 103.54260254 C94.12705385 100.79890841 92.52395533 98.03896962 90.94140625 95.26184082 C90.49531006 94.48308594 90.04921387 93.70433105 89.58959961 92.90197754 C88.77121552 91.47047853 87.95790834 90.0360605 87.15063477 88.5982666 C84.39232215 83.68497963 84.39232215 83.68497963 79.953125 80.50793457 C73.13454763 80.55681326 68.74426145 83.81614201 63.29492188 87.44543457 C58.41202318 90.57128613 58.41202318 90.57128613 55.85571289 90.21838379 C53.34957317 89.28256105 51.98642376 87.87910689 50.078125 86.00793457 C36.98844178 74.05183503 20.75706497 66.65311489 3.953125 61.50793457 C3.93330566 60.79661377 3.91348633 60.08529297 3.89306641 59.35241699 C3.79787633 56.13304641 3.68817271 52.91433007 3.578125 49.69543457 C3.5471875 48.57588379 3.51625 47.45633301 3.484375 46.30285645 C3.44570313 45.22971191 3.40703125 44.15656738 3.3671875 43.05090332 C3.3357666 42.06114502 3.3043457 41.07138672 3.27197266 40.05163574 C3.11539067 37.26718363 3.11539067 37.26718363 0.953125 34.50793457 C-2.15498787 33.7025225 -2.15498787 33.7025225 -5.671875 33.32043457 C-7.45464844 33.08260254 -7.45464844 33.08260254 -9.2734375 32.83996582 C-10.18867188 32.73039551 -11.10390625 32.6208252 -12.046875 32.50793457 C-12.16292598 27.92481373 -12.23407862 23.34207008 -12.296875 18.75793457 C-12.33039063 17.45598145 -12.36390625 16.15402832 -12.3984375 14.81262207 C-12.41132813 13.56223145 -12.42421875 12.31184082 -12.4375 11.02355957 C-12.45844727 9.87145996 -12.47939453 8.71936035 -12.50097656 7.53234863 C-11.41657866 0.3100254 -6.330608 -0.07395466 0 0 Z " fill="#C70A4F" transform="translate(284.046875,95.4920654296875)"/>
<path d="M0 0 C0.81730591 -0.00623996 1.63461182 -0.01247993 2.47668457 -0.01890898 C5.21912364 -0.03488145 7.96067912 -0.02221833 10.703125 -0.00964355 C12.66764851 -0.01506279 14.63216796 -0.02218433 16.59667969 -0.03088379 C21.93548516 -0.04914366 27.27398199 -0.04203856 32.61279297 -0.02936745 C38.19499556 -0.01925361 43.77717139 -0.02862863 49.359375 -0.03491211 C58.73442336 -0.04219322 68.10934576 -0.03258861 77.484375 -0.0135498 C88.32944839 0.00821976 99.17422101 0.00116873 110.01928711 -0.02085543 C119.32383808 -0.03899618 128.6282984 -0.04157422 137.93286133 -0.03110075 C143.49305147 -0.02485855 149.05310015 -0.02405019 154.61328125 -0.0372467 C159.84019072 -0.04878526 165.06671169 -0.04081586 170.2935791 -0.01766968 C172.21406407 -0.01237193 174.13458162 -0.01391451 176.05505371 -0.02272034 C178.67256338 -0.03361744 181.2888206 -0.01998354 183.90625 0 C184.67005981 -0.00892289 185.43386963 -0.01784577 186.2208252 -0.02703905 C189.68613219 0.02443886 191.61276665 0.25448018 194.42767334 2.3506546 C196.53834404 5.33554605 196.40976188 7.39290637 196.34375 11.02355957 C196.33085937 12.2739502 196.31796875 13.52434082 196.3046875 14.81262207 C196.25441406 16.76555176 196.25441406 16.76555176 196.203125 18.75793457 C196.18507812 20.07535645 196.16703125 21.39277832 196.1484375 22.75012207 C196.10128771 26.00345765 196.03548544 29.25533082 195.953125 32.50793457 C195.20546875 32.53371582 194.4578125 32.55949707 193.6875 32.58605957 C192.21023437 32.6711377 192.21023437 32.6711377 190.703125 32.75793457 C189.72859375 32.80434082 188.7540625 32.85074707 187.75 32.89855957 C184.25577352 33.65987149 183.04878632 34.62960043 180.953125 37.50793457 C180.3167599 40.20031444 180.3167599 40.20031444 180.34375 43.14855957 C180.31152344 44.21848145 180.27929688 45.28840332 180.24609375 46.39074707 C180.23191406 47.50191895 180.21773437 48.61309082 180.203125 49.75793457 C180.17347656 50.8845752 180.14382812 52.01121582 180.11328125 53.17199707 C180.04263588 55.95071478 179.98991223 58.72859605 179.953125 61.50793457 C179.06753906 61.76445801 178.18195313 62.02098145 177.26953125 62.28527832 C159.82704356 67.67593268 143.76047795 76.31418942 130.8046875 89.35559082 C128.953125 90.50793457 128.953125 90.50793457 126.6875 90.48059082 C122.25454699 88.90372611 118.52565925 86.21295796 114.65625 83.57043457 C111.42819148 81.50184197 109.28294952 80.54506713 105.4140625 80.10949707 C96.64808818 83.65150475 92.21709828 96.10241861 87.890625 104.00793457 C86.71374674 106.14418224 85.53537802 108.27960952 84.35546875 110.41418457 C83.79142334 111.43737793 83.22737793 112.46057129 82.64624023 113.51477051 C80.55699703 117.20822714 78.33593763 120.80987874 76.06445312 124.39367676 C74.70648707 126.66950732 74.70648707 126.66950732 74.515625 130.25793457 C76.70696301 135.21226399 80.37474253 136.87089228 84.953125 139.50793457 C86.97856754 140.79236155 88.99944142 142.08402199 91.015625 143.38293457 C92.645 144.41418457 94.274375 145.44543457 95.953125 146.50793457 C94.963125 152.44793457 93.973125 158.38793457 92.953125 164.50793457 C79.588125 165.00293457 79.588125 165.00293457 65.953125 165.50793457 C66.943125 167.98293457 66.943125 167.98293457 67.953125 170.50793457 C68.21875 173.19152832 68.21875 173.19152832 68.203125 175.94543457 C68.21085937 177.30475098 68.21085937 177.30475098 68.21875 178.69152832 C67.953125 181.50793457 67.953125 181.50793457 65.953125 187.50793457 C79.318125 188.00293457 79.318125 188.00293457 92.953125 188.50793457 C93.46875 190.90043457 93.984375 193.29293457 94.515625 195.75793457 C94.6813501 196.50462402 94.8470752 197.25131348 95.01782227 198.02062988 C95.74339452 201.51729566 96.2868234 204.16371024 94.953125 207.50793457 C93.32666016 208.81652832 93.32666016 208.81652832 91.2421875 209.94543457 C90.11683594 210.57578613 90.11683594 210.57578613 88.96875 211.21887207 C88.17984375 211.6442627 87.3909375 212.06965332 86.578125 212.50793457 C79.6254385 215.82895148 79.6254385 215.82895148 74.953125 221.50793457 C75.04120395 227.20596531 77.18040941 231.23835762 80.140625 235.94543457 C81.04442106 237.42501716 81.94666905 238.90554611 82.84765625 240.38684082 C83.34088379 241.19266602 83.83411133 241.99849121 84.34228516 242.82873535 C86.1354174 245.81112899 87.86609843 248.82476846 89.58984375 251.84777832 C90.518573 253.47018433 90.518573 253.47018433 91.46606445 255.12536621 C92.6926544 257.27121513 93.9139855 259.42007994 95.12963867 261.57214355 C95.69787354 262.55900146 96.2661084 263.54585938 96.8515625 264.56262207 C97.35349121 265.44417969 97.85541992 266.3257373 98.37255859 267.23400879 C100.0357448 269.62679784 101.45025618 271.02718449 103.953125 272.50793457 C110.77170237 272.45905588 115.16198855 269.19972713 120.61132812 265.57043457 C125.49467264 262.44429761 125.49467264 262.44429761 128.05493164 262.79968262 C130.52999949 263.72317739 131.83045491 265.0840005 133.703125 266.94543457 C143.58819895 276.00133291 155.67153646 282.3345257 167.953125 287.50793457 C167.953125 287.83793457 167.953125 288.16793457 167.953125 288.50793457 C145.07469759 288.60131461 122.19630154 288.67188273 99.31772232 288.71518326 C88.69514857 288.73582151 78.07269313 288.76396626 67.45019531 288.80969238 C58.19322245 288.84952146 48.93633525 288.87535819 39.67927909 288.88428855 C34.77625409 288.88950996 29.8734742 288.90180837 24.97052765 288.9308548 C20.35766353 288.95796184 15.74514598 288.96638913 11.13220978 288.9603653 C9.43746051 288.96146765 7.74269991 288.96944963 6.04801941 288.98475647 C3.73684582 289.00461139 1.42698666 288.99989121 -0.88421631 288.98895264 C-2.17841366 288.99263981 -3.47261101 288.99632698 -4.80602646 289.00012589 C-8.046875 288.50793457 -8.046875 288.50793457 -10.46279526 287.17061996 C-13.0536978 282.81556247 -12.59607426 278.3957802 -12.55480957 273.4239502 C-12.56104953 272.2799601 -12.5672895 271.13597 -12.57371855 269.95731354 C-12.58692684 266.78142441 -12.58215472 263.60614521 -12.56977367 260.43027115 C-12.5607356 257.00552344 -12.57468668 253.58085915 -12.58569336 250.15612793 C-12.60349657 243.44691655 -12.59963066 236.73788398 -12.5880428 230.02866554 C-12.5790158 224.57683467 -12.57778128 219.12505397 -12.58213806 213.67321777 C-12.58275099 212.89781348 -12.58336393 212.12240918 -12.58399543 211.32350779 C-12.58527431 209.74837683 -12.58657116 208.17324589 -12.5878858 206.59811497 C-12.59929687 191.82188477 -12.58616965 177.04575377 -12.56468433 162.26953983 C-12.54681285 149.58593422 -12.54991681 136.90247504 -12.56835938 124.21887207 C-12.58975681 109.4961684 -12.59819818 94.77355171 -12.58591032 80.05083466 C-12.5846361 78.48144024 -12.58337862 76.91204581 -12.58213806 75.34265137 C-12.58152096 74.57044329 -12.58090386 73.79823522 -12.58026806 73.0026269 C-12.57681176 67.55621411 -12.58264949 62.10985641 -12.59205627 56.66345215 C-12.60326515 50.02767967 -12.60025981 43.39209649 -12.5789333 36.75634575 C-12.56840769 33.36947076 -12.56432629 29.9829116 -12.57752991 26.59603882 C-12.58840429 22.92768033 -12.57481854 19.26021968 -12.55480957 15.59191895 C-12.56373246 14.51683327 -12.57265534 13.44174759 -12.58184862 12.33408356 C-12.50713981 5.30905513 -12.50713981 5.30905513 -10.51805878 1.84693146 C-7.04072813 -0.03724039 -3.85682552 -0.04505574 0 0 Z " fill="#019FC7" transform="translate(44.046875,95.4920654296875)"/>
<path d="M0 0 C19.62532493 16.7928038 31.21395309 38.11859491 35.03125 63.59375 C35.23550739 67.30868127 35.18425551 70.87061604 35.03125 74.59375 C29.75125 74.59375 24.47125 74.59375 19.03125 74.59375 C19.11375 75.728125 19.19625 76.8625 19.28125 78.03125 C19.2500515 97.8110985 9.47803221 117.2349065 -3.7265625 131.44140625 C-20.04565616 147.10659894 -41.29627929 155.4766772 -63.82958984 155.04492188 C-81.9540861 154.29047593 -97.95683433 148.03445556 -111.96875 136.59375 C-112.61070312 136.10261719 -113.25265625 135.61148438 -113.9140625 135.10546875 C-129.20179429 122.93698268 -138.71223487 102.82318326 -140.96875 83.59375 C-141.10000575 80.57034165 -141.0664434 77.6222454 -140.96875 74.59375 C-146.24875 74.59375 -151.52875 74.59375 -156.96875 74.59375 C-158.32565104 51.18720704 -148.8556418 28.91689317 -133.65625 11.46875 C-98.33463126 -26.13944712 -41.39005033 -33.90846689 0 0 Z " fill="#EFEEEF" transform="translate(316.96875,197.40625)"/>
<path d="M0 0 C0.81730591 -0.00623996 1.63461182 -0.01247993 2.47668457 -0.01890898 C5.21912364 -0.03488145 7.96067912 -0.02221833 10.703125 -0.00964355 C12.66764851 -0.01506279 14.63216796 -0.02218433 16.59667969 -0.03088379 C21.93548516 -0.04914366 27.27398199 -0.04203856 32.61279297 -0.02936745 C38.19499556 -0.01925361 43.77717139 -0.02862863 49.359375 -0.03491211 C58.73442336 -0.04219322 68.10934576 -0.03258861 77.484375 -0.0135498 C88.32944839 0.00821976 99.17422101 0.00116873 110.01928711 -0.02085543 C119.32383808 -0.03899618 128.6282984 -0.04157422 137.93286133 -0.03110075 C143.49305147 -0.02485855 149.05310015 -0.02405019 154.61328125 -0.0372467 C159.84019072 -0.04878526 165.06671169 -0.04081586 170.2935791 -0.01766968 C172.21406407 -0.01237193 174.13458162 -0.01391451 176.05505371 -0.02272034 C178.67256338 -0.03361744 181.2888206 -0.01998354 183.90625 0 C184.67005981 -0.00892289 185.43386963 -0.01784577 186.2208252 -0.02703905 C191.47770311 0.05105305 191.92770858 0.48251815 195.953125 4.50793457 C195.953125 19.02793457 195.953125 33.54793457 195.953125 48.50793457 C132.593125 48.50793457 69.233125 48.50793457 3.953125 48.50793457 C3.623125 44.87793457 3.293125 41.24793457 2.953125 37.50793457 C1.24844584 34.21492791 1.24844584 34.21492791 -2.0859375 33.77746582 C-3.26929688 33.62664551 -4.45265625 33.4758252 -5.671875 33.32043457 C-7.45464844 33.08260254 -7.45464844 33.08260254 -9.2734375 32.83996582 C-10.18867188 32.73039551 -11.10390625 32.6208252 -12.046875 32.50793457 C-12.16292598 27.92481373 -12.23407862 23.34207008 -12.296875 18.75793457 C-12.33039063 17.45598145 -12.36390625 16.15402832 -12.3984375 14.81262207 C-12.41132813 13.56223145 -12.42421875 12.31184082 -12.4375 11.02355957 C-12.45844727 9.87145996 -12.47939453 8.71936035 -12.50097656 7.53234863 C-11.41657866 0.3100254 -6.330608 -0.07395466 0 0 Z " fill="#00325A" transform="translate(284.046875,95.4920654296875)"/>
<path d="M0 0 C0.76380981 0.00892289 1.52761963 0.01784577 2.3145752 0.02703905 C3.1318811 0.02079909 3.94918701 0.01455913 4.79125977 0.00813007 C7.53369883 -0.0078424 10.27525432 0.00482072 13.0177002 0.0173955 C14.98222371 0.01197626 16.94674316 0.00485473 18.91125488 -0.00384474 C24.25006036 -0.02210461 29.58855719 -0.01499951 34.92736816 -0.0023284 C40.50957075 0.00778544 46.09174659 -0.00158958 51.6739502 -0.00787306 C61.04899856 -0.01515417 70.42392095 -0.00554956 79.7989502 0.01348925 C90.64402359 0.03525882 101.4887962 0.02820778 112.3338623 0.00618362 C121.63841327 -0.01195713 130.94287359 -0.01453517 140.24743652 -0.0040617 C145.80762666 0.00218051 151.36767534 0.00298886 156.92785645 -0.01020765 C162.15476591 -0.02174621 167.38128688 -0.01377681 172.6081543 0.00936937 C174.52863926 0.01466712 176.44915682 0.01312454 178.36962891 0.00431871 C180.98713858 -0.00657839 183.60339579 0.00705552 186.2208252 0.02703905 C186.98463501 0.01811616 187.74844482 0.00919328 188.53540039 0 C192.00070739 0.05147791 193.92734185 0.28151923 196.74224854 2.37769365 C198.85291923 5.3625851 198.72433707 7.41994542 198.6583252 11.05059862 C198.64543457 12.30098925 198.63254395 13.55137987 198.6192627 14.83966112 C198.56898926 16.79259081 198.56898926 16.79259081 198.5177002 18.78497362 C198.49965332 20.1023955 198.48160645 21.41981737 198.4630127 22.77716112 C198.4158629 26.0304967 198.35006063 29.28236987 198.2677002 32.53497362 C197.5040918 32.59120897 196.7404834 32.64744432 195.95373535 32.70538378 C194.95648438 32.78578905 193.9592334 32.86619432 192.9317627 32.94903612 C191.4460376 33.06432665 191.4460376 33.06432665 189.93029785 33.18194628 C187.17464105 33.39217602 187.17464105 33.39217602 184.6427002 34.90997362 C182.45822709 38.6738372 182.45822709 38.6738372 182.2677002 48.53497362 C118.9077002 48.53497362 55.5477002 48.53497362 -9.7322998 48.53497362 C-9.7322998 0.14457549 -9.7322998 0.14457549 0 0 Z " fill="#00325A" transform="translate(41.7322998046875,95.46502637863159)"/>
<path d="M0 0 C5.28 0 10.56 0 16 0 C16.15855469 1.19753906 16.31710938 2.39507812 16.48046875 3.62890625 C19.61064571 25.99028102 26.84702876 46.18395615 44.6875 61.1875 C63.04426247 75.01172852 83.00931509 80.89988406 106 79 C121.72666825 76.64730966 135.90400901 70.3164615 148 60 C148.82628906 59.36449219 149.65257812 58.72898437 150.50390625 58.07421875 C167.9703933 43.55981401 173.16922499 21.38040635 176 0 C181.28 0 186.56 0 192 0 C193.02669708 22.24510344 184.28255289 45.64401435 169.54614258 62.26171875 C167.10006207 64.91289459 164.56826588 67.46774205 162 70 C161.26136719 70.74894531 160.52273438 71.49789062 159.76171875 72.26953125 C150.08551557 81.50839192 137.69413439 88.04036175 125 92 C123.7521875 92.391875 122.504375 92.78375 121.21875 93.1875 C97.25054916 100.06007112 72.01910312 96.08050768 50 85 C40.90018321 79.92902772 33.37290292 73.26802521 26 66 C25.26910156 65.28199219 24.53820312 64.56398438 23.78515625 63.82421875 C9.51905831 48.82362864 -0.11493748 25.89200538 -0.1875 5.1875 C-0.125625 3.475625 -0.06375 1.76375 0 0 Z " fill="#C80C50" transform="translate(160,272)"/>
<path d="M0 0 C19.62532493 16.7928038 31.21395309 38.11859491 35.03125 63.59375 C35.23550739 67.30868127 35.18425551 70.87061604 35.03125 74.59375 C29.75125 74.59375 24.47125 74.59375 19.03125 74.59375 C18.804375 72.098125 18.5775 69.6025 18.34375 67.03125 C16.49382584 50.04707493 9.85562053 35.72283101 -0.96875 22.59375 C-1.690625 21.60375 -2.4125 20.61375 -3.15625 19.59375 C-14.17438461 6.67963768 -30.8644441 0.16395369 -46.96875 -3.40625 C-48.144375 -3.69628906 -48.144375 -3.69628906 -49.34375 -3.9921875 C-69.47422584 -7.16753041 -90.41147629 -2.20015866 -106.96875 9.59375 C-108.64852371 10.91053238 -110.3164725 12.24262653 -111.96875 13.59375 C-112.66097656 14.11195313 -113.35320312 14.63015625 -114.06640625 15.1640625 C-129.92524502 27.71240809 -137.88062643 48.21955326 -140.36328125 67.6875 C-140.60536673 69.98569816 -140.79418104 72.28943973 -140.96875 74.59375 C-146.24875 74.59375 -151.52875 74.59375 -156.96875 74.59375 C-158.32565104 51.18720704 -148.8556418 28.91689317 -133.65625 11.46875 C-98.33463126 -26.13944712 -41.39005033 -33.90846689 0 0 Z " fill="#04A0C6" transform="translate(316.96875,197.40625)"/>
<path d="M0 0 C5.54772645 3.80646925 10.10735833 9.01188853 12.140625 15.46875 C13.09069505 22.75998523 12.33076924 29.32918036 8.140625 35.46875 C2.74775959 41.5070935 -2.06551662 44.87792892 -10.234375 45.7109375 C-16.32393348 46.02655486 -20.93744972 45.16019396 -25.859375 41.46875 C-32.49382404 35.26953964 -35.80740954 30.23583396 -36.234375 21.09375 C-36.06149574 14.36965668 -34.40452533 10.14210753 -29.765625 5.26953125 C-21.0360648 -2.83441047 -11.14510397 -5.61264228 0 0 Z " fill="#02325A" transform="translate(435.859375,250.53125)"/>
<path d="M0 0 C5.54772645 3.80646925 10.10735833 9.01188853 12.140625 15.46875 C13.08991485 22.75399766 12.33654393 29.33711381 8.140625 35.46875 C3.02230586 41.10181471 -1.67211232 44.97243783 -9.390625 45.7109375 C-15.77369806 46.00904805 -20.68987868 45.37046287 -25.859375 41.46875 C-32.11995023 35.66165708 -35.91373343 29.72377426 -36.296875 21.03125 C-36.05994162 14.36066397 -34.36832796 10.10408679 -29.765625 5.26953125 C-21.0360648 -2.83441047 -11.14510397 -5.61264228 0 0 Z " fill="#00335B" transform="translate(99.859375,250.53125)"/>
<path d="M0 0 C0.33 0 0.66 0 1 0 C3.24340496 20.06601105 -6.87720268 42.06215282 -19.15405273 57.48144531 C-32.9983235 74.23214652 -51.56120199 87.14248699 -73 92 C-73.80824219 92.20238281 -74.61648438 92.40476562 -75.44921875 92.61328125 C-83.92238943 94.47509902 -92.38078941 94.24964822 -101 94 C-102.05445313 93.98195313 -103.10890625 93.96390625 -104.1953125 93.9453125 C-129.01558723 92.7955995 -151.92653197 77.79213522 -168.5625 60.375 C-181.98561729 45.0071908 -192.23169401 22.61947015 -191 2 C-190.67 2 -190.34 2 -190 2 C-189.81207886 2.81452637 -189.81207886 2.81452637 -189.62036133 3.64550781 C-182.96566933 32.17165237 -170.875454 54.15157731 -146.203125 70.8984375 C-125.14712685 83.93039311 -99.13848746 88.9124598 -74.87036133 83.45996094 C-48.26983657 76.72667931 -26.94318826 61.79049016 -12.3125 38.375 C-5.64918105 26.42431427 -2.2259516 13.41428729 0 0 Z " fill="#DC9301" transform="translate(351,282)"/>
<path d="M0 0 C0.78890625 0.63679688 1.5778125 1.27359375 2.390625 1.9296875 C3.03515625 2.42210937 3.6796875 2.91453125 4.34375 3.421875 C18.40771988 14.63504018 28.01474607 33.00109728 31.015625 50.59375 C31.44726741 54.43356897 31.45831575 58.07131493 31.390625 61.9296875 C29.40354447 58.44145006 28.61288003 54.948933 27.703125 51.0546875 C24.72840341 39.27426989 19.27805215 29.18632572 11.390625 19.9296875 C10.66875 18.9396875 9.946875 17.9496875 9.203125 16.9296875 C-1.77747417 4.05956964 -21.08265268 -4.98005329 -37.609375 -7.0703125 C-61.36036039 -8.53629702 -82.28533752 -3.93528001 -100.609375 11.9296875 C-101.599375 12.6515625 -102.589375 13.3734375 -103.609375 14.1171875 C-116.7936609 25.40759808 -125.7568252 44.88622938 -127.609375 61.9296875 C-127.939375 61.9296875 -128.269375 61.9296875 -128.609375 61.9296875 C-129.68725015 43.96510174 -121.75125991 26.57562489 -110.609375 12.9296875 C-110.11824219 12.28773438 -109.62710938 11.64578125 -109.12109375 10.984375 C-97.94922155 -3.05127289 -79.7222873 -12.53096496 -62.22265625 -15.6796875 C-39.93863254 -18.08877114 -18.0149832 -13.95897821 0 0 Z " fill="#CDD1D2" transform="translate(304.609375,208.0703125)"/>
<path d="M0 0 C5.67476113 1.96434039 9.31400331 5.62800662 12 11 C12.11133108 13.89348539 12.16411858 16.7621767 12.16796875 19.65625 C12.17296135 20.94335876 12.17296135 20.94335876 12.17805481 22.25646973 C12.18312138 24.07217878 12.18546322 25.88789716 12.18530273 27.70361328 C12.18749117 30.4887617 12.20565489 33.27351536 12.22460938 36.05859375 C12.2275429 37.82031114 12.22952797 39.58203042 12.23046875 41.34375 C12.23765427 42.18023071 12.24483978 43.01671143 12.25224304 43.87854004 C12.22882612 49.77117388 12.22882612 49.77117388 10 52 C5.44444444 51.44444444 5.44444444 51.44444444 4 50 C3.91368126 48.65732587 3.89293527 47.31025678 3.90234375 45.96484375 C3.90556641 45.15595703 3.90878906 44.34707031 3.91210938 43.51367188 C3.92048828 42.66353516 3.92886719 41.81339844 3.9375 40.9375 C3.94201172 40.08349609 3.94652344 39.22949219 3.95117188 38.34960938 C3.96299627 36.23304337 3.98093231 34.11651315 4 32 C-1.28 32 -6.56 32 -12 32 C-11.97679687 33.27617187 -11.95359375 34.55234375 -11.9296875 35.8671875 C-11.91093171 37.5364525 -11.89273131 39.2057238 -11.875 40.875 C-11.85824219 41.71675781 -11.84148437 42.55851562 -11.82421875 43.42578125 C-11.81777344 44.23144531 -11.81132812 45.03710938 -11.8046875 45.8671875 C-11.79421387 46.61081543 -11.78374023 47.35444336 -11.77294922 48.12060547 C-12 50 -12 50 -14 52 C-18.55555556 51.44444444 -18.55555556 51.44444444 -20 50 C-20.13841839 47.27019835 -20.21318635 44.56756948 -20.23828125 41.8359375 C-20.246353 41.01050446 -20.25442474 40.18507141 -20.26274109 39.33462524 C-20.27660317 37.58101513 -20.28731578 35.8273778 -20.29516602 34.07373047 C-20.31229643 31.40669382 -20.3561515 28.74092346 -20.40039062 26.07421875 C-20.41052463 24.36980078 -20.41903852 22.66537226 -20.42578125 20.9609375 C-20.44328934 20.16899994 -20.46079742 19.37706238 -20.47883606 18.56112671 C-20.4569708 12.90318038 -19.22933228 9.66602552 -16 5 C-10.66572345 0.17374979 -7.03926992 -0.64209557 0 0 Z " fill="#03345C" transform="translate(226,246)"/>
<path d="M0 0 C1.34850966 0.00171254 2.69702264 0.00164396 4.04553223 -0.00012207 C6.86678071 0.00152842 9.68723193 0.02017387 12.50830078 0.05175781 C16.11646157 0.09143588 19.72357924 0.09580167 23.33191681 0.08829498 C26.11502564 0.08521887 28.89790191 0.09736833 31.68095398 0.11442566 C33.65564626 0.12483213 35.63038286 0.1253027 37.60510254 0.12561035 C38.80985229 0.14152222 40.01460205 0.15743408 41.25585938 0.17382812 C42.84207092 0.18645691 42.84207092 0.18645691 44.46032715 0.19934082 C47.76530306 0.65141216 49.6672448 1.63267651 52.34375 3.59375 C53.74832737 6.40290474 53.59270157 8.48185534 53.34375 11.59375 C51.56390595 14.7296657 50.82066793 15.43477736 47.34375 16.59375 C45.39238478 16.70738041 43.43743767 16.76295063 41.48291016 16.78662109 C39.67555893 16.81071548 39.67555893 16.81071548 37.83169556 16.83529663 C32.33115857 16.87971854 26.83075176 16.92123295 21.33007812 16.94384766 C18.4257869 16.95719436 15.52219708 16.98506326 12.61816406 17.02587891 C9.10681548 17.0752245 5.59610357 17.09997009 2.08442307 17.10707474 C0.10069895 17.11703493 -1.88285533 17.15127084 -3.86630249 17.18588257 C-13.88239165 17.16231412 -13.88239165 17.16231412 -16.97509766 14.24853516 C-19.06403107 10.94980411 -19.45425877 9.42419211 -18.65625 5.59375 C-14.24329514 -1.34527636 -7.53598437 -0.09557055 0 0 Z " fill="#EEEEEE" transform="translate(306.65625,111.40625)"/>
<path d="M0 0 C1.34850966 0.00171254 2.69702264 0.00164396 4.04553223 -0.00012207 C6.86678071 0.00152842 9.68723193 0.02017387 12.50830078 0.05175781 C16.11646157 0.09143588 19.72357924 0.09580167 23.33191681 0.08829498 C26.11502564 0.08521887 28.89790191 0.09736833 31.68095398 0.11442566 C33.65564626 0.12483213 35.63038286 0.1253027 37.60510254 0.12561035 C38.80985229 0.14152222 40.01460205 0.15743408 41.25585938 0.17382812 C42.84207092 0.18645691 42.84207092 0.18645691 44.46032715 0.19934082 C47.76530306 0.65141216 49.6672448 1.63267651 52.34375 3.59375 C53.74832737 6.40290474 53.59270157 8.48185534 53.34375 11.59375 C51.56390595 14.7296657 50.82066793 15.43477736 47.34375 16.59375 C45.39238478 16.70738041 43.43743767 16.76295063 41.48291016 16.78662109 C39.67555893 16.81071548 39.67555893 16.81071548 37.83169556 16.83529663 C32.33115857 16.87971854 26.83075176 16.92123295 21.33007812 16.94384766 C18.4257869 16.95719436 15.52219708 16.98506326 12.61816406 17.02587891 C9.10681548 17.0752245 5.59610357 17.09997009 2.08442307 17.10707474 C0.10069895 17.11703493 -1.88285533 17.15127084 -3.86630249 17.18588257 C-13.88239165 17.16231412 -13.88239165 17.16231412 -16.97509766 14.24853516 C-19.06403107 10.94980411 -19.45425877 9.42419211 -18.65625 5.59375 C-14.24329514 -1.34527636 -7.53598437 -0.09557055 0 0 Z " fill="#EEEEEE" transform="translate(66.65625,111.40625)"/>
<path d="M0 0 C13.1872087 0.02927703 13.1872087 0.02927703 19.18432617 4.38012695 C23.68641814 9.22853369 24.54015036 12.37175404 24.46557617 18.84106445 C23.91714616 23.79216875 21.18386834 26.4781011 17.62182617 29.69262695 C13.68006336 32.42153967 10.67604014 32.49294108 5.99682617 32.44262695 C4.36680664 32.4290918 4.36680664 32.4290918 2.70385742 32.4152832 C1.87241211 32.40368164 1.0409668 32.39208008 0.18432617 32.38012695 C0.2075293 33.65629883 0.23073242 34.9324707 0.25463867 36.24731445 C0.27339446 37.91657945 0.29159486 39.58585076 0.30932617 41.25512695 C0.32608398 42.09688477 0.3428418 42.93864258 0.36010742 43.8059082 C0.36655273 44.61157227 0.37299805 45.41723633 0.37963867 46.24731445 C0.3901123 46.99094238 0.40058594 47.73457031 0.41137695 48.50073242 C0.18432617 50.38012695 0.18432617 50.38012695 -1.81567383 52.38012695 C-6.37122938 51.8245714 -6.37122938 51.8245714 -7.81567383 50.38012695 C-7.91917576 48.88691398 -7.95418121 47.38887038 -7.9609375 45.89208984 C-7.96731735 44.93762466 -7.9736972 43.98315948 -7.98027039 42.99977112 C-7.98138321 41.96126511 -7.98249603 40.92275909 -7.98364258 39.8527832 C-7.98697098 38.79353134 -7.99029938 37.73427948 -7.99372864 36.64292908 C-7.99880252 34.39753658 -8.00113682 32.15213651 -8.00097656 29.90673828 C-8.00316224 26.46089317 -8.02131104 23.01536843 -8.0402832 19.56958008 C-8.04321711 17.39314889 -8.04520193 15.21671617 -8.04614258 13.0402832 C-8.05332809 12.00380142 -8.06051361 10.96731964 -8.06791687 9.89942932 C-8.06484024 8.94181198 -8.06176361 7.98419464 -8.05859375 6.99755859 C-8.06001877 6.15230118 -8.06144379 5.30704376 -8.06291199 4.43617249 C-7.48706273 -0.35262019 -4.04463758 0.08187892 0 0 Z " fill="#03345C" transform="translate(253.815673828125,245.619873046875)"/>
<path d="M0 0 C6.36516574 0.58172609 9.5851225 4.92437352 13.875 9.25 C14.67164063 10.01441406 15.46828125 10.77882813 16.2890625 11.56640625 C17.03671875 12.31277344 17.784375 13.05914062 18.5546875 13.828125 C19.58311768 14.8476123 19.58311768 14.8476123 20.63232422 15.88769531 C22 18 22 18 21.94287109 20.49560547 C20.15532482 25.24357277 16.29392653 28.36036212 12.75 31.875 C11.98558594 32.67164063 11.22117187 33.46828125 10.43359375 34.2890625 C9.31404297 35.41054688 9.31404297 35.41054688 8.171875 36.5546875 C7.4922168 37.24030762 6.81255859 37.92592773 6.11230469 38.63232422 C4 40 4 40 1.23925781 39.71533203 C0.50030273 39.47927246 -0.23865234 39.24321289 -1 39 C-1.77734375 36.80078125 -1.77734375 36.80078125 -2 34 C-0.12890625 31.54296875 -0.12890625 31.54296875 2.4375 29.1875 C3.28183594 28.39730469 4.12617188 27.60710937 4.99609375 26.79296875 C5.65738281 26.20128906 6.31867188 25.60960937 7 25 C6.31539703 24.99191315 5.63079407 24.98382629 4.92544556 24.97549438 C-2.17945406 24.88964993 -9.28406817 24.79015585 -16.38867188 24.68261719 C-19.04259458 24.64425819 -21.69657051 24.60941774 -24.35058594 24.578125 C-28.1583971 24.53262464 -31.96583958 24.47460551 -35.7734375 24.4140625 C-36.96617279 24.40251129 -38.15890808 24.39096008 -39.38778687 24.37905884 C-40.48877716 24.35918915 -41.58976746 24.33931946 -42.72412109 24.31884766 C-43.69674896 24.30552399 -44.66937683 24.29220032 -45.67147827 24.2784729 C-48 24 -48 24 -50 22 C-49.44444444 17.44444444 -49.44444444 17.44444444 -48 16 C-46.28225833 15.87692689 -44.55957261 15.82213442 -42.83764648 15.79467773 C-41.18604774 15.7647599 -41.18604774 15.7647599 -39.50108337 15.73423767 C-37.70423851 15.70916893 -37.70423851 15.70916893 -35.87109375 15.68359375 C-34.04204247 15.6524221 -34.04204247 15.6524221 -32.17604065 15.62062073 C-28.26325355 15.55499572 -24.35039683 15.49618028 -20.4375 15.4375 C-17.79231038 15.39432709 -15.14712791 15.35071322 -12.50195312 15.30664062 C-6.00137664 15.1993012 0.49926979 15.09755933 7 15 C6.33871094 14.40832031 5.67742187 13.81664062 4.99609375 13.20703125 C3.72958984 12.02173828 3.72958984 12.02173828 2.4375 10.8125 C1.59058594 10.03519531 0.74367188 9.25789063 -0.12890625 8.45703125 C-2 6 -2 6 -1.83984375 3.26171875 C-1 1 -1 1 0 0 Z " fill="#03A0C8" transform="translate(270,300)"/>
<path d="M0 0 C0.73895508 0.23605957 1.47791016 0.47211914 2.23925781 0.71533203 C3.01660156 2.91455078 3.01660156 2.91455078 3.23925781 5.71533203 C1.36816406 8.17236328 1.36816406 8.17236328 -1.19824219 10.52783203 C-2.04257813 11.31802734 -2.88691406 12.10822266 -3.75683594 12.92236328 C-4.418125 13.51404297 -5.07941406 14.10572266 -5.76074219 14.71533203 C-5.07613922 14.72341888 -4.39153625 14.73150574 -3.68618774 14.73983765 C3.41871187 14.8256821 10.52332598 14.92517618 17.62792969 15.03271484 C20.28185239 15.07107384 22.93582832 15.10591429 25.58984375 15.13720703 C29.39765491 15.18270739 33.20509739 15.24072652 37.01269531 15.30126953 C38.2054306 15.31282074 39.39816589 15.32437195 40.62704468 15.33627319 C41.72803497 15.35614288 42.82902527 15.37601257 43.96337891 15.39648438 C44.93600677 15.40980804 45.90863464 15.42313171 46.91073608 15.43685913 C49.23925781 15.71533203 49.23925781 15.71533203 51.23925781 17.71533203 C50.68370226 22.27088759 50.68370226 22.27088759 49.23925781 23.71533203 C47.52151614 23.83840514 45.79883042 23.89319762 44.0769043 23.9206543 C42.42530556 23.95057213 42.42530556 23.95057213 40.74034119 23.98109436 C38.94349632 24.0061631 38.94349632 24.0061631 37.11035156 24.03173828 C35.89098404 24.05251938 34.67161652 24.07330048 33.41529846 24.0947113 C29.50251136 24.16033631 25.58965465 24.21915175 21.67675781 24.27783203 C19.03156819 24.32100494 16.38638572 24.36461881 13.74121094 24.40869141 C7.24063445 24.51603083 0.73998803 24.6177727 -5.76074219 24.71533203 C-5.09945312 25.30701172 -4.43816406 25.89869141 -3.75683594 26.50830078 C-2.9125 27.29849609 -2.06816406 28.08869141 -1.19824219 28.90283203 C-0.35132813 29.68013672 0.49558594 30.45744141 1.36816406 31.25830078 C3.23925781 33.71533203 3.23925781 33.71533203 3.01660156 36.51611328 C2.76007813 37.24185547 2.50355469 37.96759766 2.23925781 38.71533203 C0.01806641 39.44433594 0.01806641 39.44433594 -2.76074219 39.71533203 C-4.99658203 38.25585938 -4.99658203 38.25585938 -7.22167969 36.05126953 C-8.0221875 35.25849609 -8.82269531 34.46572266 -9.64746094 33.64892578 C-10.46859375 32.80458984 -11.28972656 31.96025391 -12.13574219 31.09033203 C-12.98007813 30.26919922 -13.82441406 29.44806641 -14.69433594 28.60205078 C-15.48710937 27.80154297 -16.27988281 27.00103516 -17.09667969 26.17626953 C-17.82419434 25.4419873 -18.55170898 24.70770508 -19.30126953 23.95117188 C-20.76074219 21.71533203 -20.76074219 21.71533203 -20.71728516 19.20166016 C-18.89788926 14.47253106 -15.05197668 11.35230012 -11.51074219 7.84033203 C-10.74632812 7.04369141 -9.98191406 6.24705078 -9.19433594 5.42626953 C-8.44796875 4.67861328 -7.70160156 3.93095703 -6.93261719 3.16064453 C-6.25295898 2.47502441 -5.57330078 1.7894043 -4.87304688 1.08300781 C-2.76074219 -0.28466797 -2.76074219 -0.28466797 0 0 Z " fill="#C80C51" transform="translate(240.7607421875,204.28466796875)"/>
<path d="M0 0 C0.99 0.495 0.99 0.495 2 1 C1.55310337 6.69243737 -0.14484625 10.59968645 -3.1875 15.4375 C-4.09265875 16.91834713 -4.99620532 18.40018048 -5.8984375 19.8828125 C-6.39182617 20.68879883 -6.88521484 21.49478516 -7.39355469 22.32519531 C-9.17608865 25.29319564 -10.89237775 28.29387188 -12.6015625 31.3046875 C-13.21620361 32.38177979 -13.83084473 33.45887207 -14.46411133 34.56860352 C-15.67899059 36.70069977 -16.88736829 38.83651624 -18.08862305 40.97631836 C-18.65363525 41.95995361 -19.21864746 42.94358887 -19.80078125 43.95703125 C-20.54581909 45.27151245 -20.54581909 45.27151245 -21.3059082 46.61254883 C-23.25385901 49.35775864 -25.21031041 51.12346265 -28 53 C-34.77169757 53.07938684 -39.25445516 49.66142828 -44.65820312 46.0625 C-48.09364455 43.65125077 -48.09364455 43.65125077 -52.09301758 43.28735352 C-54.63115637 44.2358655 -56.05569142 45.68079226 -58 47.5625 C-67.34510309 55.95185391 -73.79901581 60.91451161 -86.56445312 60.40820312 C-88.3782114 60.30053711 -90.18962449 60.15443962 -92 60 C-89.27548448 57.27548448 -85.99421858 55.96074697 -82.5625 54.3125 C-72.26249776 49.24072092 -63.40113359 43.87272445 -55.2890625 35.625 C-53 34 -53 34 -50.671875 33.9609375 C-46.30737084 35.65824467 -42.55780312 38.3050369 -38.703125 40.9375 C-35.42314837 43.03936258 -33.34651864 43.96767831 -29.3984375 44.3359375 C-24.22755512 42.30324581 -22.64793144 38.71929049 -20 34 C-19.40815918 32.99437012 -18.81631836 31.98874023 -18.20654297 30.95263672 C-16.25790755 27.62837599 -14.34411105 24.28602152 -12.4375 20.9375 C-8.40800558 13.87885424 -4.37069564 6.85385477 0 0 Z " fill="#A30427" transform="translate(392,324)"/>
<path d="M0 0 C2.96008771 2.60053542 4.62903453 5.61297544 6.546875 9.03125 C6.88116516 9.62240601 7.21545532 10.21356201 7.55987549 10.82263184 C8.62791924 12.71250094 9.68946372 14.60590924 10.75 16.5 C18.13498361 31.85065576 18.13498361 31.85065576 29 44 C35.86342597 43.81608359 40.15980956 40.72446281 45.65820312 37.0625 C50.54154764 33.93636304 50.54154764 33.93636304 53.10180664 34.29174805 C55.57687449 35.21524282 56.87732991 36.57606593 58.75 38.4375 C68.63507395 47.49339834 80.71841146 53.82659113 93 59 C93 59.33 93 59.66 93 60 C81.20260972 61.24102417 73.88756229 59.6592557 64.52050781 52.26660156 C61.5238925 49.77038444 58.67594993 47.13830864 55.96484375 44.3359375 C54.08104438 42.78585608 54.08104438 42.78585608 51.71484375 43 C47.30614603 44.62392319 43.56834021 47.29784083 39.703125 49.9375 C36.40147448 52.05325156 34.3833976 52.97089172 30.3984375 53.2734375 C21.5263199 49.94894286 17.41751218 38.0089746 13 30.125 C11.96547995 28.28935771 10.92935694 26.45463578 9.89208984 24.62054443 C9.2186017 23.42848173 8.54702391 22.23533753 7.87744141 21.04107666 C5.4091939 16.65593644 2.78114781 12.39272283 0.03125 8.17919922 C-1.18815385 5.60240027 -1.26978142 3.81885448 -1 1 C-0.67 0.67 -0.34 0.34 0 0 Z " fill="#0583A7" transform="translate(119,324)"/>
<path d="M0 0 C1.39895508 -0.01836914 1.39895508 -0.01836914 2.82617188 -0.03710938 C4.16325195 -0.04000977 4.16325195 -0.04000977 5.52734375 -0.04296875 C6.348396 -0.04707764 7.16944824 -0.05118652 8.01538086 -0.05541992 C10.0625 0.1875 10.0625 0.1875 12.0625 2.1875 C11.50694444 6.74305556 11.50694444 6.74305556 10.0625 8.1875 C8.0825 8.1875 6.1025 8.1875 4.0625 8.1875 C4.0625 20.0675 4.0625 31.9475 4.0625 44.1875 C6.0425 44.1875 8.0225 44.1875 10.0625 44.1875 C10.7225 44.8475 11.3825 45.5075 12.0625 46.1875 C11.50694444 50.74305556 11.50694444 50.74305556 10.0625 52.1875 C6.75733066 52.43785974 3.43853959 52.37271952 0.125 52.375 C-0.80763672 52.38724609 -1.74027344 52.39949219 -2.70117188 52.41210938 C-3.59255859 52.41404297 -4.48394531 52.41597656 -5.40234375 52.41796875 C-6.223396 52.42207764 -7.04444824 52.42618652 -7.89038086 52.43041992 C-9.9375 52.1875 -9.9375 52.1875 -11.9375 50.1875 C-11.38194444 45.63194444 -11.38194444 45.63194444 -9.9375 44.1875 C-7.9575 44.1875 -5.9775 44.1875 -3.9375 44.1875 C-3.9375 32.3075 -3.9375 20.4275 -3.9375 8.1875 C-5.9175 8.1875 -7.8975 8.1875 -9.9375 8.1875 C-10.5975 7.5275 -11.2575 6.8675 -11.9375 6.1875 C-10.98106887 -1.6552353 -6.84894087 0.00471366 0 0 Z " fill="#02335B" transform="translate(293.9375,245.8125)"/>
<path d="M0 0 C1.05239592 1.57859387 2.09336394 3.16971972 3.0078125 4.83203125 C6.51700167 11.05286659 11.11623245 15.70541082 18 18 C25.21728478 18.72172848 31.96355978 18.33971107 38 14 C38.35384766 13.43933838 38.70769531 12.87867676 39.07226562 12.30102539 C40.56081514 10.02521781 41.7688075 8.58153005 44 7 C48.96434985 6.11796273 53.8603525 6.33899757 58.875 6.5625 C60.24471215 6.5976499 61.61451087 6.62958252 62.984375 6.65820312 C66.32512834 6.74054564 69.66145156 6.8555222 73 7 C73.53160457 9.41474617 74.05054766 11.83108107 74.5625 14.25 C74.71396484 14.93191406 74.86542969 15.61382812 75.02148438 16.31640625 C75.75233495 19.81769038 76.32203546 22.60298173 75 26 C72.42122416 21.97066275 73 20.48465565 73 15 C63.43 15 53.86 15 44 15 C43.34 16.32 42.68 17.64 42 19 C36.42768173 24.43964402 30.83145304 27.07715707 23 27.4375 C15.33403939 27.13273704 10.79987931 24.14425078 5.625 18.625 C0.52971387 12.50066588 -0.26753006 7.75837184 0 0 Z " fill="#0181A8" transform="translate(64,277)"/>
<path d="M0 0 C0.33 0 0.66 0 1 0 C1.47626839 6.5486903 0.62931595 11.43504888 -3 17 C-7.89537749 22.4155694 -12.67575257 26.57560347 -20.15625 27.171875 C-28.84104107 27.46136804 -34.89160087 24.67593606 -41.375 18.875 C-43 17 -43 17 -43 15 C-52.57 15 -62.14 15 -72 15 C-72.33 18.63 -72.66 22.26 -73 26 C-73.66 25.34 -74.32 24.68 -75 24 C-74.65374458 21.05976327 -74.20741323 18.26827865 -73.625 15.375 C-73.47289062 14.57320313 -73.32078125 13.77140625 -73.1640625 12.9453125 C-72.78620834 10.96157813 -72.39440564 8.98051003 -72 7 C-67.98029604 6.82604477 -63.96206763 6.69952311 -59.93945312 6.61547852 C-58.57350479 6.58042521 -57.20781634 6.53276368 -55.84277344 6.47192383 C-44.45330688 5.97727181 -44.45330688 5.97727181 -40.86328125 8.50366211 C-39.3046875 10.375 -39.3046875 10.375 -38.15576172 12.24609375 C-35.99595433 15.52367218 -32.67000538 16.90680691 -29 18 C-21.64364575 19.03082671 -15.33170732 17.76378872 -9.08984375 13.78125 C-4.19900906 10.0430324 -2.04794633 5.7240736 0 0 Z " fill="#9E0129" transform="translate(447,277)"/>
<path d="M0 0 C8.91 0 17.82 0 27 0 C26.34 1.98 25.68 3.96 25 6 C24.68851721 8.73277443 24.68851721 8.73277443 24.75 11.4375 C24.74484375 12.32308594 24.7396875 13.20867187 24.734375 14.12109375 C24.97910159 17.74490394 24.97910159 17.74490394 27 24 C18.09 24 9.18 24 0 24 C0 16.08 0 8.16 0 0 Z " fill="#EEEFEF" transform="translate(376,260)"/>
<path d="M0 0 C8.91 0 17.82 0 27 0 C27 7.92 27 15.84 27 24 C18.09 24 9.18 24 0 24 C0.99 20.535 0.99 20.535 2 17 C2.30952406 14.15755985 2.30952406 14.15755985 2.25 11.4375 C2.25773437 10.10525391 2.25773437 10.10525391 2.265625 8.74609375 C2.04392043 5.38702641 2.04392043 5.38702641 0 0 Z " fill="#EEEFEF" transform="translate(109,260)"/>
<path d="M0 0 C1.03454819 -0.00637985 2.06909637 -0.0127597 3.13499451 -0.01933289 C4.26099564 -0.02044571 5.38699677 -0.02155853 6.54711914 -0.02270508 C7.69515518 -0.02603348 8.84319122 -0.02936188 10.02601624 -0.03279114 C12.45972288 -0.03786534 14.89343651 -0.04019931 17.32714844 -0.04003906 C21.06269731 -0.04222487 24.79795074 -0.06037379 28.53344727 -0.0793457 C30.89217021 -0.08227958 33.25089456 -0.08426441 35.60961914 -0.08520508 C36.73359604 -0.09239059 37.85757294 -0.09957611 39.01560974 -0.10697937 C40.05331009 -0.10390274 41.09101044 -0.10082611 42.16015625 -0.09765625 C43.07647324 -0.09908127 43.99279022 -0.10050629 44.93687439 -0.10197449 C47.14477539 0.14526367 47.14477539 0.14526367 49.14477539 2.14526367 C48.58921984 6.70081923 48.58921984 6.70081923 47.14477539 8.14526367 C45.52897531 8.24908956 43.90866915 8.2837861 42.28955078 8.29052734 C41.25500259 8.2969072 40.22045441 8.30328705 39.15455627 8.30986023 C37.46555458 8.31152946 37.46555458 8.31152946 35.74243164 8.31323242 C34.5943956 8.31656082 33.44635956 8.31988922 32.26353455 8.32331848 C29.8298279 8.32839269 27.39611427 8.33072666 24.96240234 8.33056641 C21.22685347 8.33275222 17.49160004 8.35090113 13.75610352 8.36987305 C11.39738057 8.37280692 9.03865622 8.37479176 6.67993164 8.37573242 C5.55595474 8.38291794 4.43197784 8.39010345 3.27394104 8.39750671 C2.23624069 8.39443008 1.19854034 8.39135345 0.12939453 8.38818359 C-0.78692245 8.38960861 -1.70323944 8.39103363 -2.64732361 8.39250183 C-4.85522461 8.14526367 -4.85522461 8.14526367 -6.85522461 6.14526367 C-6.17410527 0.56008511 -5.46087695 0.02273651 0 0 Z " fill="#EFEEEE" transform="translate(418.855224609375,347.854736328125)"/>
<path d="M0 0 C1.03454819 -0.00637985 2.06909637 -0.0127597 3.13499451 -0.01933289 C4.26099564 -0.02044571 5.38699677 -0.02155853 6.54711914 -0.02270508 C7.69515518 -0.02603348 8.84319122 -0.02936188 10.02601624 -0.03279114 C12.45972288 -0.03786534 14.89343651 -0.04019931 17.32714844 -0.04003906 C21.06269731 -0.04222487 24.79795074 -0.06037379 28.53344727 -0.0793457 C30.89217021 -0.08227958 33.25089456 -0.08426441 35.60961914 -0.08520508 C36.73359604 -0.09239059 37.85757294 -0.09957611 39.01560974 -0.10697937 C40.05331009 -0.10390274 41.09101044 -0.10082611 42.16015625 -0.09765625 C43.07647324 -0.09908127 43.99279022 -0.10050629 44.93687439 -0.10197449 C47.14477539 0.14526367 47.14477539 0.14526367 49.14477539 2.14526367 C48.58921984 6.70081923 48.58921984 6.70081923 47.14477539 8.14526367 C45.52897531 8.24908956 43.90866915 8.2837861 42.28955078 8.29052734 C41.25500259 8.2969072 40.22045441 8.30328705 39.15455627 8.30986023 C37.46555458 8.31152946 37.46555458 8.31152946 35.74243164 8.31323242 C34.5943956 8.31656082 33.44635956 8.31988922 32.26353455 8.32331848 C29.8298279 8.32839269 27.39611427 8.33072666 24.96240234 8.33056641 C21.22685347 8.33275222 17.49160004 8.35090113 13.75610352 8.36987305 C11.39738057 8.37280692 9.03865622 8.37479176 6.67993164 8.37573242 C5.55595474 8.38291794 4.43197784 8.39010345 3.27394104 8.39750671 C2.23624069 8.39443008 1.19854034 8.39135345 0.12939453 8.38818359 C-0.78692245 8.38960861 -1.70323944 8.39103363 -2.64732361 8.39250183 C-4.85522461 8.14526367 -4.85522461 8.14526367 -6.85522461 6.14526367 C-6.17410527 0.56008511 -5.46087695 0.02273651 0 0 Z " fill="#EEEFEF" transform="translate(50.855224609375,347.854736328125)"/>
<path d="M0 0 C1.03454819 -0.00637985 2.06909637 -0.0127597 3.13499451 -0.01933289 C4.26099564 -0.02044571 5.38699677 -0.02155853 6.54711914 -0.02270508 C7.69515518 -0.02603348 8.84319122 -0.02936188 10.02601624 -0.03279114 C12.45972288 -0.03786534 14.89343651 -0.04019931 17.32714844 -0.04003906 C21.06269731 -0.04222487 24.79795074 -0.06037379 28.53344727 -0.0793457 C30.89217021 -0.08227958 33.25089456 -0.08426441 35.60961914 -0.08520508 C36.73359604 -0.09239059 37.85757294 -0.09957611 39.01560974 -0.10697937 C40.05331009 -0.10390274 41.09101044 -0.10082611 42.16015625 -0.09765625 C43.07647324 -0.09908127 43.99279022 -0.10050629 44.93687439 -0.10197449 C47.14477539 0.14526367 47.14477539 0.14526367 49.14477539 2.14526367 C48.58921984 6.70081923 48.58921984 6.70081923 47.14477539 8.14526367 C45.52897531 8.24908956 43.90866915 8.2837861 42.28955078 8.29052734 C41.25500259 8.2969072 40.22045441 8.30328705 39.15455627 8.30986023 C37.46555458 8.31152946 37.46555458 8.31152946 35.74243164 8.31323242 C34.5943956 8.31656082 33.44635956 8.31988922 32.26353455 8.32331848 C29.8298279 8.32839269 27.39611427 8.33072666 24.96240234 8.33056641 C21.22685347 8.33275222 17.49160004 8.35090113 13.75610352 8.36987305 C11.39738057 8.37280692 9.03865622 8.37479176 6.67993164 8.37573242 C5.55595474 8.38291794 4.43197784 8.39010345 3.27394104 8.39750671 C2.23624069 8.39443008 1.19854034 8.39135345 0.12939453 8.38818359 C-0.78692245 8.38960861 -1.70323944 8.39103363 -2.64732361 8.39250183 C-4.85522461 8.14526367 -4.85522461 8.14526367 -6.85522461 6.14526367 C-6.17410527 0.56008511 -5.46087695 0.02273651 0 0 Z " fill="#EFEEEE" transform="translate(418.855224609375,331.854736328125)"/>
<path d="M0 0 C1.03454819 -0.00637985 2.06909637 -0.0127597 3.13499451 -0.01933289 C4.26099564 -0.02044571 5.38699677 -0.02155853 6.54711914 -0.02270508 C7.69515518 -0.02603348 8.84319122 -0.02936188 10.02601624 -0.03279114 C12.45972288 -0.03786534 14.89343651 -0.04019931 17.32714844 -0.04003906 C21.06269731 -0.04222487 24.79795074 -0.06037379 28.53344727 -0.0793457 C30.89217021 -0.08227958 33.25089456 -0.08426441 35.60961914 -0.08520508 C36.73359604 -0.09239059 37.85757294 -0.09957611 39.01560974 -0.10697937 C40.05331009 -0.10390274 41.09101044 -0.10082611 42.16015625 -0.09765625 C43.07647324 -0.09908127 43.99279022 -0.10050629 44.93687439 -0.10197449 C47.14477539 0.14526367 47.14477539 0.14526367 49.14477539 2.14526367 C48.58921984 6.70081923 48.58921984 6.70081923 47.14477539 8.14526367 C45.52897531 8.24908956 43.90866915 8.2837861 42.28955078 8.29052734 C41.25500259 8.2969072 40.22045441 8.30328705 39.15455627 8.30986023 C37.46555458 8.31152946 37.46555458 8.31152946 35.74243164 8.31323242 C34.5943956 8.31656082 33.44635956 8.31988922 32.26353455 8.32331848 C29.8298279 8.32839269 27.39611427 8.33072666 24.96240234 8.33056641 C21.22685347 8.33275222 17.49160004 8.35090113 13.75610352 8.36987305 C11.39738057 8.37280692 9.03865622 8.37479176 6.67993164 8.37573242 C5.55595474 8.38291794 4.43197784 8.39010345 3.27394104 8.39750671 C2.23624069 8.39443008 1.19854034 8.39135345 0.12939453 8.38818359 C-0.78692245 8.38960861 -1.70323944 8.39103363 -2.64732361 8.39250183 C-4.85522461 8.14526367 -4.85522461 8.14526367 -6.85522461 6.14526367 C-6.17410527 0.56008511 -5.46087695 0.02273651 0 0 Z " fill="#EEEFEF" transform="translate(50.855224609375,331.854736328125)"/>
<path d="M0 0 C1.03454819 -0.00637985 2.06909637 -0.0127597 3.13499451 -0.01933289 C4.26099564 -0.02044571 5.38699677 -0.02155853 6.54711914 -0.02270508 C7.69515518 -0.02603348 8.84319122 -0.02936188 10.02601624 -0.03279114 C12.45972288 -0.03786534 14.89343651 -0.04019931 17.32714844 -0.04003906 C21.06269731 -0.04222487 24.79795074 -0.06037379 28.53344727 -0.0793457 C30.89217021 -0.08227958 33.25089456 -0.08426441 35.60961914 -0.08520508 C36.73359604 -0.09239059 37.85757294 -0.09957611 39.01560974 -0.10697937 C40.05331009 -0.10390274 41.09101044 -0.10082611 42.16015625 -0.09765625 C43.07647324 -0.09908127 43.99279022 -0.10050629 44.93687439 -0.10197449 C47.14477539 0.14526367 47.14477539 0.14526367 49.14477539 2.14526367 C48.58921984 6.70081923 48.58921984 6.70081923 47.14477539 8.14526367 C45.52897531 8.24908956 43.90866915 8.2837861 42.28955078 8.29052734 C41.25500259 8.2969072 40.22045441 8.30328705 39.15455627 8.30986023 C37.46555458 8.31152946 37.46555458 8.31152946 35.74243164 8.31323242 C34.5943956 8.31656082 33.44635956 8.31988922 32.26353455 8.32331848 C29.8298279 8.32839269 27.39611427 8.33072666 24.96240234 8.33056641 C21.22685347 8.33275222 17.49160004 8.35090113 13.75610352 8.36987305 C11.39738057 8.37280692 9.03865622 8.37479176 6.67993164 8.37573242 C5.55595474 8.38291794 4.43197784 8.39010345 3.27394104 8.39750671 C2.23624069 8.39443008 1.19854034 8.39135345 0.12939453 8.38818359 C-0.78692245 8.38960861 -1.70323944 8.39103363 -2.64732361 8.39250183 C-4.85522461 8.14526367 -4.85522461 8.14526367 -6.85522461 6.14526367 C-6.17410527 0.56008511 -5.46087695 0.02273651 0 0 Z " fill="#EFEEEE" transform="translate(418.855224609375,315.854736328125)"/>
<path d="M0 0 C1.03454819 -0.00637985 2.06909637 -0.0127597 3.13499451 -0.01933289 C4.26099564 -0.02044571 5.38699677 -0.02155853 6.54711914 -0.02270508 C7.69515518 -0.02603348 8.84319122 -0.02936188 10.02601624 -0.03279114 C12.45972288 -0.03786534 14.89343651 -0.04019931 17.32714844 -0.04003906 C21.06269731 -0.04222487 24.79795074 -0.06037379 28.53344727 -0.0793457 C30.89217021 -0.08227958 33.25089456 -0.08426441 35.60961914 -0.08520508 C36.73359604 -0.09239059 37.85757294 -0.09957611 39.01560974 -0.10697937 C40.05331009 -0.10390274 41.09101044 -0.10082611 42.16015625 -0.09765625 C43.07647324 -0.09908127 43.99279022 -0.10050629 44.93687439 -0.10197449 C47.14477539 0.14526367 47.14477539 0.14526367 49.14477539 2.14526367 C48.58921984 6.70081923 48.58921984 6.70081923 47.14477539 8.14526367 C45.52897531 8.24908956 43.90866915 8.2837861 42.28955078 8.29052734 C41.25500259 8.2969072 40.22045441 8.30328705 39.15455627 8.30986023 C37.46555458 8.31152946 37.46555458 8.31152946 35.74243164 8.31323242 C34.5943956 8.31656082 33.44635956 8.31988922 32.26353455 8.32331848 C29.8298279 8.32839269 27.39611427 8.33072666 24.96240234 8.33056641 C21.22685347 8.33275222 17.49160004 8.35090113 13.75610352 8.36987305 C11.39738057 8.37280692 9.03865622 8.37479176 6.67993164 8.37573242 C5.55595474 8.38291794 4.43197784 8.39010345 3.27394104 8.39750671 C2.23624069 8.39443008 1.19854034 8.39135345 0.12939453 8.38818359 C-0.78692245 8.38960861 -1.70323944 8.39103363 -2.64732361 8.39250183 C-4.85522461 8.14526367 -4.85522461 8.14526367 -6.85522461 6.14526367 C-6.17410527 0.56008511 -5.46087695 0.02273651 0 0 Z " fill="#EEEFEF" transform="translate(50.855224609375,315.854736328125)"/>
<path d="M0 0 C1.03454819 -0.00637985 2.06909637 -0.0127597 3.13499451 -0.01933289 C4.26099564 -0.02044571 5.38699677 -0.02155853 6.54711914 -0.02270508 C7.69515518 -0.02603348 8.84319122 -0.02936188 10.02601624 -0.03279114 C12.45972288 -0.03786534 14.89343651 -0.04019931 17.32714844 -0.04003906 C21.06269731 -0.04222487 24.79795074 -0.06037379 28.53344727 -0.0793457 C30.89217021 -0.08227958 33.25089456 -0.08426441 35.60961914 -0.08520508 C36.73359604 -0.09239059 37.85757294 -0.09957611 39.01560974 -0.10697937 C40.05331009 -0.10390274 41.09101044 -0.10082611 42.16015625 -0.09765625 C43.07647324 -0.09908127 43.99279022 -0.10050629 44.93687439 -0.10197449 C47.14477539 0.14526367 47.14477539 0.14526367 49.14477539 2.14526367 C48.58921984 6.70081923 48.58921984 6.70081923 47.14477539 8.14526367 C45.52897531 8.24908956 43.90866915 8.2837861 42.28955078 8.29052734 C41.25500259 8.2969072 40.22045441 8.30328705 39.15455627 8.30986023 C37.46555458 8.31152946 37.46555458 8.31152946 35.74243164 8.31323242 C34.5943956 8.31656082 33.44635956 8.31988922 32.26353455 8.32331848 C29.8298279 8.32839269 27.39611427 8.33072666 24.96240234 8.33056641 C21.22685347 8.33275222 17.49160004 8.35090113 13.75610352 8.36987305 C11.39738057 8.37280692 9.03865622 8.37479176 6.67993164 8.37573242 C5.55595474 8.38291794 4.43197784 8.39010345 3.27394104 8.39750671 C2.23624069 8.39443008 1.19854034 8.39135345 0.12939453 8.38818359 C-0.78692245 8.38960861 -1.70323944 8.39103363 -2.64732361 8.39250183 C-4.85522461 8.14526367 -4.85522461 8.14526367 -6.85522461 6.14526367 C-6.17410527 0.56008511 -5.46087695 0.02273651 0 0 Z " fill="#EFEEEE" transform="translate(418.855224609375,203.854736328125)"/>
<path d="M0 0 C1.03454819 -0.00637985 2.06909637 -0.0127597 3.13499451 -0.01933289 C4.26099564 -0.02044571 5.38699677 -0.02155853 6.54711914 -0.02270508 C7.69515518 -0.02603348 8.84319122 -0.02936188 10.02601624 -0.03279114 C12.45972288 -0.03786534 14.89343651 -0.04019931 17.32714844 -0.04003906 C21.06269731 -0.04222487 24.79795074 -0.06037379 28.53344727 -0.0793457 C30.89217021 -0.08227958 33.25089456 -0.08426441 35.60961914 -0.08520508 C36.73359604 -0.09239059 37.85757294 -0.09957611 39.01560974 -0.10697937 C40.05331009 -0.10390274 41.09101044 -0.10082611 42.16015625 -0.09765625 C43.07647324 -0.09908127 43.99279022 -0.10050629 44.93687439 -0.10197449 C47.14477539 0.14526367 47.14477539 0.14526367 49.14477539 2.14526367 C48.58921984 6.70081923 48.58921984 6.70081923 47.14477539 8.14526367 C45.52897531 8.24908956 43.90866915 8.2837861 42.28955078 8.29052734 C41.25500259 8.2969072 40.22045441 8.30328705 39.15455627 8.30986023 C37.46555458 8.31152946 37.46555458 8.31152946 35.74243164 8.31323242 C34.5943956 8.31656082 33.44635956 8.31988922 32.26353455 8.32331848 C29.8298279 8.32839269 27.39611427 8.33072666 24.96240234 8.33056641 C21.22685347 8.33275222 17.49160004 8.35090113 13.75610352 8.36987305 C11.39738057 8.37280692 9.03865622 8.37479176 6.67993164 8.37573242 C5.55595474 8.38291794 4.43197784 8.39010345 3.27394104 8.39750671 C2.23624069 8.39443008 1.19854034 8.39135345 0.12939453 8.38818359 C-0.78692245 8.38960861 -1.70323944 8.39103363 -2.64732361 8.39250183 C-4.85522461 8.14526367 -4.85522461 8.14526367 -6.85522461 6.14526367 C-6.17410527 0.56008511 -5.46087695 0.02273651 0 0 Z " fill="#EEEFEF" transform="translate(50.855224609375,203.854736328125)"/>
<path d="M0 0 C1.03454819 -0.00637985 2.06909637 -0.0127597 3.13499451 -0.01933289 C4.26099564 -0.02044571 5.38699677 -0.02155853 6.54711914 -0.02270508 C7.69515518 -0.02603348 8.84319122 -0.02936188 10.02601624 -0.03279114 C12.45972288 -0.03786534 14.89343651 -0.04019931 17.32714844 -0.04003906 C21.06269731 -0.04222487 24.79795074 -0.06037379 28.53344727 -0.0793457 C30.89217021 -0.08227958 33.25089456 -0.08426441 35.60961914 -0.08520508 C36.73359604 -0.09239059 37.85757294 -0.09957611 39.01560974 -0.10697937 C40.05331009 -0.10390274 41.09101044 -0.10082611 42.16015625 -0.09765625 C43.07647324 -0.09908127 43.99279022 -0.10050629 44.93687439 -0.10197449 C47.14477539 0.14526367 47.14477539 0.14526367 49.14477539 2.14526367 C48.58921984 6.70081923 48.58921984 6.70081923 47.14477539 8.14526367 C45.52897531 8.24908956 43.90866915 8.2837861 42.28955078 8.29052734 C41.25500259 8.2969072 40.22045441 8.30328705 39.15455627 8.30986023 C37.46555458 8.31152946 37.46555458 8.31152946 35.74243164 8.31323242 C34.5943956 8.31656082 33.44635956 8.31988922 32.26353455 8.32331848 C29.8298279 8.32839269 27.39611427 8.33072666 24.96240234 8.33056641 C21.22685347 8.33275222 17.49160004 8.35090113 13.75610352 8.36987305 C11.39738057 8.37280692 9.03865622 8.37479176 6.67993164 8.37573242 C5.55595474 8.38291794 4.43197784 8.39010345 3.27394104 8.39750671 C2.23624069 8.39443008 1.19854034 8.39135345 0.12939453 8.38818359 C-0.78692245 8.38960861 -1.70323944 8.39103363 -2.64732361 8.39250183 C-4.85522461 8.14526367 -4.85522461 8.14526367 -6.85522461 6.14526367 C-6.17410527 0.56008511 -5.46087695 0.02273651 0 0 Z " fill="#EFEEEE" transform="translate(418.855224609375,187.854736328125)"/>
<path d="M0 0 C1.03454819 -0.00637985 2.06909637 -0.0127597 3.13499451 -0.01933289 C4.26099564 -0.02044571 5.38699677 -0.02155853 6.54711914 -0.02270508 C7.69515518 -0.02603348 8.84319122 -0.02936188 10.02601624 -0.03279114 C12.45972288 -0.03786534 14.89343651 -0.04019931 17.32714844 -0.04003906 C21.06269731 -0.04222487 24.79795074 -0.06037379 28.53344727 -0.0793457 C30.89217021 -0.08227958 33.25089456 -0.08426441 35.60961914 -0.08520508 C36.73359604 -0.09239059 37.85757294 -0.09957611 39.01560974 -0.10697937 C40.05331009 -0.10390274 41.09101044 -0.10082611 42.16015625 -0.09765625 C43.07647324 -0.09908127 43.99279022 -0.10050629 44.93687439 -0.10197449 C47.14477539 0.14526367 47.14477539 0.14526367 49.14477539 2.14526367 C48.58921984 6.70081923 48.58921984 6.70081923 47.14477539 8.14526367 C45.52897531 8.24908956 43.90866915 8.2837861 42.28955078 8.29052734 C41.25500259 8.2969072 40.22045441 8.30328705 39.15455627 8.30986023 C37.46555458 8.31152946 37.46555458 8.31152946 35.74243164 8.31323242 C34.5943956 8.31656082 33.44635956 8.31988922 32.26353455 8.32331848 C29.8298279 8.32839269 27.39611427 8.33072666 24.96240234 8.33056641 C21.22685347 8.33275222 17.49160004 8.35090113 13.75610352 8.36987305 C11.39738057 8.37280692 9.03865622 8.37479176 6.67993164 8.37573242 C5.55595474 8.38291794 4.43197784 8.39010345 3.27394104 8.39750671 C2.23624069 8.39443008 1.19854034 8.39135345 0.12939453 8.38818359 C-0.78692245 8.38960861 -1.70323944 8.39103363 -2.64732361 8.39250183 C-4.85522461 8.14526367 -4.85522461 8.14526367 -6.85522461 6.14526367 C-6.17410527 0.56008511 -5.46087695 0.02273651 0 0 Z " fill="#EEEFEF" transform="translate(50.855224609375,187.854736328125)"/>
<path d="M0 0 C1.03454819 -0.00637985 2.06909637 -0.0127597 3.13499451 -0.01933289 C4.26099564 -0.02044571 5.38699677 -0.02155853 6.54711914 -0.02270508 C7.69515518 -0.02603348 8.84319122 -0.02936188 10.02601624 -0.03279114 C12.45972288 -0.03786534 14.89343651 -0.04019931 17.32714844 -0.04003906 C21.06269731 -0.04222487 24.79795074 -0.06037379 28.53344727 -0.0793457 C30.89217021 -0.08227958 33.25089456 -0.08426441 35.60961914 -0.08520508 C36.73359604 -0.09239059 37.85757294 -0.09957611 39.01560974 -0.10697937 C40.05331009 -0.10390274 41.09101044 -0.10082611 42.16015625 -0.09765625 C43.07647324 -0.09908127 43.99279022 -0.10050629 44.93687439 -0.10197449 C47.14477539 0.14526367 47.14477539 0.14526367 49.14477539 2.14526367 C48.58921984 6.70081923 48.58921984 6.70081923 47.14477539 8.14526367 C45.52897531 8.24908956 43.90866915 8.2837861 42.28955078 8.29052734 C41.25500259 8.2969072 40.22045441 8.30328705 39.15455627 8.30986023 C37.46555458 8.31152946 37.46555458 8.31152946 35.74243164 8.31323242 C34.5943956 8.31656082 33.44635956 8.31988922 32.26353455 8.32331848 C29.8298279 8.32839269 27.39611427 8.33072666 24.96240234 8.33056641 C21.22685347 8.33275222 17.49160004 8.35090113 13.75610352 8.36987305 C11.39738057 8.37280692 9.03865622 8.37479176 6.67993164 8.37573242 C5.55595474 8.38291794 4.43197784 8.39010345 3.27394104 8.39750671 C2.23624069 8.39443008 1.19854034 8.39135345 0.12939453 8.38818359 C-0.78692245 8.38960861 -1.70323944 8.39103363 -2.64732361 8.39250183 C-4.85522461 8.14526367 -4.85522461 8.14526367 -6.85522461 6.14526367 C-6.17410527 0.56008511 -5.46087695 0.02273651 0 0 Z " fill="#EFEEEE" transform="translate(418.855224609375,171.854736328125)"/>
<path d="M0 0 C1.03454819 -0.00637985 2.06909637 -0.0127597 3.13499451 -0.01933289 C4.26099564 -0.02044571 5.38699677 -0.02155853 6.54711914 -0.02270508 C7.69515518 -0.02603348 8.84319122 -0.02936188 10.02601624 -0.03279114 C12.45972288 -0.03786534 14.89343651 -0.04019931 17.32714844 -0.04003906 C21.06269731 -0.04222487 24.79795074 -0.06037379 28.53344727 -0.0793457 C30.89217021 -0.08227958 33.25089456 -0.08426441 35.60961914 -0.08520508 C36.73359604 -0.09239059 37.85757294 -0.09957611 39.01560974 -0.10697937 C40.05331009 -0.10390274 41.09101044 -0.10082611 42.16015625 -0.09765625 C43.07647324 -0.09908127 43.99279022 -0.10050629 44.93687439 -0.10197449 C47.14477539 0.14526367 47.14477539 0.14526367 49.14477539 2.14526367 C48.58921984 6.70081923 48.58921984 6.70081923 47.14477539 8.14526367 C45.52897531 8.24908956 43.90866915 8.2837861 42.28955078 8.29052734 C41.25500259 8.2969072 40.22045441 8.30328705 39.15455627 8.30986023 C37.46555458 8.31152946 37.46555458 8.31152946 35.74243164 8.31323242 C34.5943956 8.31656082 33.44635956 8.31988922 32.26353455 8.32331848 C29.8298279 8.32839269 27.39611427 8.33072666 24.96240234 8.33056641 C21.22685347 8.33275222 17.49160004 8.35090113 13.75610352 8.36987305 C11.39738057 8.37280692 9.03865622 8.37479176 6.67993164 8.37573242 C5.55595474 8.38291794 4.43197784 8.39010345 3.27394104 8.39750671 C2.23624069 8.39443008 1.19854034 8.39135345 0.12939453 8.38818359 C-0.78692245 8.38960861 -1.70323944 8.39103363 -2.64732361 8.39250183 C-4.85522461 8.14526367 -4.85522461 8.14526367 -6.85522461 6.14526367 C-6.17410527 0.56008511 -5.46087695 0.02273651 0 0 Z " fill="#EEEFEF" transform="translate(50.855224609375,171.854736328125)"/>
<path d="M0 0 C2.875 1.8125 2.875 1.8125 5 5 C5.41846508 8.77148279 5.22984488 12.18457498 5 16 C-0.28 16 -5.56 16 -11 16 C-11.60773481 5.91160221 -11.60773481 5.91160221 -8.875 1.8125 C-5.45015775 -0.34663968 -3.96628159 -0.82630866 0 0 Z " fill="#EAECEC" transform="translate(225,254)"/>
<path d="M0 0 C10.9030837 -0.43612335 10.9030837 -0.43612335 15 3 C16.40457737 5.80915474 16.24895157 7.88810534 16 11 C14.22015595 14.1359157 13.47691793 14.84102736 10 16 C8.27204648 16.06802967 6.54164635 16.08495645 4.8125 16.0625 C3.224375 16.041875 1.63625 16.02125 0 16 C0 10.72 0 5.44 0 0 Z " fill="#EBECED" transform="translate(254,254)"/>
<path d="M0 0 C4.0743356 0.84881992 5.54405875 2.30225596 8 5.625 C8.625 8.625 8.625 8.625 8 11.625 C5.54405875 14.94774404 4.0743356 16.40118008 0 17.25 C-4.0743356 16.40118008 -5.54405875 14.94774404 -8 11.625 C-8.625 8.625 -8.625 8.625 -8 5.625 C-5.54405875 2.30225596 -4.0743356 0.84881992 0 0 Z " fill="#E4E7E8" transform="translate(424,263.375)"/>
<path d="M0 0 C4.0743356 0.84881992 5.54405875 2.30225596 8 5.625 C8.625 8.625 8.625 8.625 8 11.625 C5.54405875 14.94774404 4.0743356 16.40118008 0 17.25 C-4.0743356 16.40118008 -5.54405875 14.94774404 -8 11.625 C-8.625 8.625 -8.625 8.625 -8 5.625 C-5.54405875 2.30225596 -4.0743356 0.84881992 0 0 Z " fill="#E4E7E8" transform="translate(88,263.375)"/>
<path d="M0 0 C4.0743356 0.84881992 5.54405875 2.30225596 8 5.625 C8.625 8.625 8.625 8.625 8 11.625 C5.54405875 14.94774404 4.0743356 16.40118008 0 17.25 C-4.0743356 16.40118008 -5.54405875 14.94774404 -8 11.625 C-8.625 8.625 -8.625 8.625 -8 5.625 C-5.54405875 2.30225596 -4.0743356 0.84881992 0 0 Z " fill="#BE0B50" transform="translate(456,111.375)"/>
<path d="M0 0 C4.0743356 0.84881992 5.54405875 2.30225596 8 5.625 C8.625 8.625 8.625 8.625 8 11.625 C5.54405875 14.94774404 4.0743356 16.40118008 0 17.25 C-4.0743356 16.40118008 -5.54405875 14.94774404 -8 11.625 C-8.625 8.625 -8.625 8.625 -8 5.625 C-5.54405875 2.30225596 -4.0743356 0.84881992 0 0 Z " fill="#019AC2" transform="translate(424,111.375)"/>
<path d="M0 0 C4.0743356 0.84881992 5.54405875 2.30225596 8 5.625 C8.625 8.625 8.625 8.625 8 11.625 C5.54405875 14.94774404 4.0743356 16.40118008 0 17.25 C-4.0743356 16.40118008 -5.54405875 14.94774404 -8 11.625 C-8.625 8.625 -8.625 8.625 -8 5.625 C-5.54405875 2.30225596 -4.0743356 0.84881992 0 0 Z " fill="#EEAD04" transform="translate(392,111.375)"/>
<path d="M0 0 C4.0743356 0.84881992 5.54405875 2.30225596 8 5.625 C8.625 8.625 8.625 8.625 8 11.625 C5.54405875 14.94774404 4.0743356 16.40118008 0 17.25 C-4.0743356 16.40118008 -5.54405875 14.94774404 -8 11.625 C-8.625 8.625 -8.625 8.625 -8 5.625 C-5.54405875 2.30225596 -4.0743356 0.84881992 0 0 Z " fill="#BE0B50" transform="translate(216,111.375)"/>
<path d="M0 0 C4.0743356 0.84881992 5.54405875 2.30225596 8 5.625 C8.625 8.625 8.625 8.625 8 11.625 C5.54405875 14.94774404 4.0743356 16.40118008 0 17.25 C-4.0743356 16.40118008 -5.54405875 14.94774404 -8 11.625 C-8.625 8.625 -8.625 8.625 -8 5.625 C-5.54405875 2.30225596 -4.0743356 0.84881992 0 0 Z " fill="#019AC2" transform="translate(184,111.375)"/>
<path d="M0 0 C4.0743356 0.84881992 5.54405875 2.30225596 8 5.625 C8.625 8.625 8.625 8.625 8 11.625 C5.54405875 14.94774404 4.0743356 16.40118008 0 17.25 C-4.0743356 16.40118008 -5.54405875 14.94774404 -8 11.625 C-8.625 8.625 -8.625 8.625 -8 5.625 C-5.54405875 2.30225596 -4.0743356 0.84881992 0 0 Z " fill="#EEAD04" transform="translate(152,111.375)"/>
<path d="M0 0 C0.66 0.33 1.32 0.66 2 1 C2 6.91176471 2 6.91176471 -0.4609375 9.58984375 C-5.86414483 13.74700531 -11.96357625 16.87082445 -18 20 C-19.30682685 17.8475793 -20.05856644 16.56055466 -19.79272461 14.01611328 C-18.76541468 11.40338603 -17.68791395 10.8429389 -15.25390625 9.4921875 C-14.49916016 9.06292969 -13.74441406 8.63367188 -12.96679688 8.19140625 C-12.17337891 7.75699219 -11.37996094 7.32257813 -10.5625 6.875 C-8.99987899 5.99993224 -7.43861637 5.12243311 -5.87890625 4.2421875 C-5.1835376 3.8591748 -4.48816895 3.47616211 -3.77172852 3.08154297 C-1.84226992 1.99901128 -1.84226992 1.99901128 0 0 Z " fill="#A30428" transform="translate(392,229)"/>
<path d="M0 0 C7.16998151 4.10059856 14.19808348 8.31079997 21 13 C20.34 14.98 19.68 16.96 19 19 C14.66975885 17.7079635 11.11822235 16.0559914 7.3125 13.625 C6.38050781 13.03976563 5.44851562 12.45453125 4.48828125 11.8515625 C2.07643792 10.05687845 0.55802402 8.55557076 -1 6 C-1.25 3.3125 -1.25 3.3125 -1 1 C-0.67 0.67 -0.34 0.34 0 0 Z " fill="#0583A7" transform="translate(119,229)"/>
<path d="M0 0 C0.33 0 0.66 0 1 0 C1.05441656 1.89551022 1.09298035 3.7914792 1.125 5.6875 C1.14820313 6.74324219 1.17140625 7.79898437 1.1953125 8.88671875 C0.99653524 12.05522823 0.44874543 14.18862338 -1 17 C-1.66 17.33 -2.32 17.66 -3 18 C-2.86722656 17.28714844 -2.73445313 16.57429688 -2.59765625 15.83984375 C-1.62594212 10.56989045 -0.7082546 5.3119095 0 0 Z " fill="#DC8908" transform="translate(351,282)"/>
<path d="M0 0 C0.99 0.33 1.98 0.66 3 1 C3.84681133 6.08086796 4.09038099 10.84828377 4 16 C2.06757715 12.65479742 1.4536147 9.55232518 0.875 5.75 C0.70742188 4.67234375 0.53984375 3.5946875 0.3671875 2.484375 C0.24601562 1.66453125 0.12484375 0.8446875 0 0 Z " fill="#B8CED4" transform="translate(332,254)"/>
<path d="M0 0 C0.66 0 1.32 0 2 0 C1.86722656 0.64066406 1.73445312 1.28132812 1.59765625 1.94140625 C0.57506994 6.94983993 -0.33884147 11.93111794 -1 17 C-1.33 17 -1.66 17 -2 17 C-2.21824777 10.9981863 -1.5056904 5.80766296 0 0 Z " fill="#B4CCD2" transform="translate(178,253)"/>
</svg>
