<?xml version="1.0" encoding="iso-8859-1"?>
<!-- Uploaded to: SVG Repo, www.svgrepo.com, Generator: SVG Repo Mixer Tools -->
<!DOCTYPE svg PUBLIC "-//W3C//DTD SVG 1.1//EN" "http://www.w3.org/Graphics/SVG/1.1/DTD/svg11.dtd">
<svg fill="#000000" version="1.1" id="Capa_1" xmlns="http://www.w3.org/2000/svg" xmlns:xlink="http://www.w3.org/1999/xlink" 
	 width="800px" height="800px" viewBox="0 0 42.615 42.615"
	 xml:space="preserve">
<g>
	<g>
		<path d="M10.921,22.074c-1.479-1.115-3.358-1.611-6.096-1.611c-1.632,0-3.196,0.105-4.404,0.3L0,20.83v14.765l0.435,0.058
			c1.076,0.143,2.32,0.215,3.698,0.215c2.995,0,5.299-0.653,6.852-1.945c1.154-0.977,2.529-2.828,2.529-6.113
			C13.514,25.316,12.616,23.334,10.921,22.074z M8.674,32.002c-0.91,0.904-2.186,1.363-3.791,1.363l0,0
			c-0.499,0-0.954,0-1.282-0.074l-0.388-0.09V23.146l0.388-0.089c0.274-0.062,0.767-0.139,1.56-0.139
			c1.529,0,2.793,0.459,3.654,1.326c0.859,0.864,1.308,2.135,1.297,3.67C10.112,29.678,9.628,31.055,8.674,32.002z"/>
		<path d="M20.794,26.352c-1.851-0.701-2.302-1.001-2.302-1.525c0-0.525,0.612-0.865,1.559-0.865c0.96,0,1.883,0.209,2.744,0.623
			l0.539,0.259l0.987-3.572l-0.392-0.176c-1.117-0.503-2.4-0.758-3.815-0.758c-3.446,0-5.854,1.958-5.854,4.763
			c0,2.111,1.419,3.676,4.215,4.648c1.715,0.615,2.041,1.01,2.041,1.522c0,0.933-1.221,1.033-1.746,1.033
			c-1.581,0-2.942-0.634-3.321-0.827l-0.563-0.287l-0.892,3.631l0.334,0.186c0.804,0.445,2.478,0.924,4.252,0.924
			c4.584,0,6.211-2.635,6.211-4.889C24.791,28.85,23.52,27.359,20.794,26.352z"/>
		<path d="M37.118,25.371c0-1.478-0.62-2.813-1.699-3.666c-1.045-0.838-2.563-1.244-4.638-1.244c-1.751,0-3.235,0.102-4.409,0.301
			l-0.416,0.071v14.884h4.171v-5.013c0.186,0.012,0.383,0.017,0.592,0.017c2.103,0,3.811-0.563,4.942-1.629
			C36.6,28.201,37.118,26.877,37.118,25.371z M30.697,28.265c-0.533,0-0.887-0.029-1.182-0.097l-0.389-0.09v-4.957l0.367-0.102
			c0.195-0.054,0.646-0.145,1.455-0.145c1.85,0,2.998,0.988,2.998,2.578C33.947,27.162,32.671,28.265,30.697,28.265z"/>
		<polygon points="14.945,6.686 14.945,20.24 15.945,20.24 15.945,7.686 41.615,7.686 41.615,33.355 31.781,33.355 31.781,34.355 
			42.615,34.355 42.615,6.686 		"/>
	</g>
</g>
</svg>