<?xml version="1.0" encoding="UTF-8"?>
<svg version="1.1" xmlns="http://www.w3.org/2000/svg" width="512" height="512">
<path d="M0 0 C1.19367188 0.42410156 2.38734375 0.84820313 3.6171875 1.28515625 C12.30588372 4.69789361 19.5757559 9.45031587 27 15 C25.68 17.31 24.36 19.62 23 22 C23.56589844 22.47050781 24.13179687 22.94101562 24.71484375 23.42578125 C25.44832031 24.04839844 26.18179688 24.67101562 26.9375 25.3125 C27.66839844 25.92738281 28.39929688 26.54226562 29.15234375 27.17578125 C31 29 31 29 32 32 C32.763125 31.34 33.52625 30.68 34.3125 30 C37 28 37 28 40 28 C41.6082731 30.01570228 42.96041204 31.9448226 44.3125 34.125 C44.70840332 34.75519043 45.10430664 35.38538086 45.51220703 36.03466797 C58.1643635 56.71064433 62.19149166 80.56568552 56.96875 104.19140625 C53.78935857 116.69102982 48.00707634 128.82952105 40 139 C41.45745424 142.36335594 43.31117854 144.54534005 45.9140625 147.109375 C46.67460937 147.86347656 47.43515625 148.61757812 48.21875 149.39453125 C49.0128125 150.17183594 49.806875 150.94914063 50.625 151.75 C51.42679688 152.54277344 52.22859375 153.33554688 53.0546875 154.15234375 C55.03202846 156.10614493 57.01388909 158.05512103 59 160 C62.56349894 158.28263966 65.60112312 156.1936545 68.8125 153.875 C95.78108113 134.96978319 128.32896476 127.50283332 161 133.125 C182.07284943 137.29865173 200.54112874 146.28904463 217 160 C220.36335594 158.54254576 222.54534005 156.68882146 225.109375 154.0859375 C225.86347656 153.32539063 226.61757813 152.56484375 227.39453125 151.78125 C228.17183594 150.9871875 228.94914062 150.193125 229.75 149.375 C230.54277344 148.57320312 231.33554687 147.77140625 232.15234375 146.9453125 C234.10614493 144.96797154 236.05512103 142.98611091 238 141 C236.70304802 137.6480476 235.36305136 134.90828574 233.25 132 C219.98703538 112.39669131 216.26843228 88.34553824 220.51953125 65.29858398 C224.21083211 47.51378212 233.28890296 32.72875134 246 20 C246.804375 19.18402344 247.60875 18.36804688 248.4375 17.52734375 C266.6696526 0.04486847 289.5692373 -4.65580932 314.00390625 -4.33203125 C334.54973264 -3.6581703 352.99369117 5.17569495 368 19 C368.6290625 19.54914062 369.258125 20.09828125 369.90625 20.6640625 C385.0085433 34.59936041 394.4399083 56.14251112 395.37890625 76.453125 C395.7129848 89.17572719 395.31619771 100.95511078 391 113 C390.5875 114.18207031 390.175 115.36414063 389.75 116.58203125 C381.07154094 138.94385615 363.5063098 155.65520441 341.875 165.375 C319.87245002 174.27961944 295.22589174 174.64940917 273.2109375 165.52734375 C265.81651462 162.01004527 258.44603511 158.07487361 252 153 C248.63664406 154.45745424 246.45465995 156.31117854 243.890625 158.9140625 C243.13652344 159.67460937 242.38242187 160.43515625 241.60546875 161.21875 C240.82816406 162.0128125 240.05085938 162.806875 239.25 163.625 C238.45722656 164.42679688 237.66445313 165.22859375 236.84765625 166.0546875 C234.89385507 168.03202846 232.94487897 170.01388909 231 172 C232.71736034 175.56349894 234.8063455 178.60112312 237.125 181.8125 C256.03021681 208.78108113 263.49716668 241.32896476 257.875 274 C253.70134827 295.07284943 244.71095537 313.54112874 231 330 C232.45745424 333.36335594 234.31117854 335.54534005 236.9140625 338.109375 C238.05488281 339.24052734 238.05488281 339.24052734 239.21875 340.39453125 C240.0128125 341.17183594 240.806875 341.94914062 241.625 342.75 C242.42679687 343.54277344 243.22859375 344.33554687 244.0546875 345.15234375 C246.03202846 347.10614493 248.01388909 349.05512103 250 351 C253.3519524 349.70304802 256.09171426 348.36305136 259 346.25 C278.68225793 332.93362087 302.72412375 329.29015725 325.83984375 333.58764648 C347.77239713 338.10213078 367.92578855 351.5535653 380.66723633 370.00170898 C394.12424158 390.54436825 398.43317496 415.20474791 394.19140625 439.375 C390.76503112 455.12935886 382.87026985 469.20030187 372 481 C371.45085937 481.6290625 370.90171875 482.258125 370.3359375 482.90625 C356.40063959 498.0085433 334.85748888 507.4399083 314.546875 508.37890625 C301.82857324 508.71287188 290.03969689 508.32297841 278 504 C276.80632812 503.57589844 275.61265625 503.15179688 274.3828125 502.71484375 C251.87467075 493.87411849 235.42809514 476.66231904 225.625 454.875 C222.25198048 446.52677669 219.38017379 438.09078444 220 429 C222.31 428.67 224.62 428.34 227 428 C227 423.05 227 418.1 227 413 C224.69 412.67 222.38 412.34 220 412 C219.49884523 395.58718116 227.4505297 377.39562761 238 365 C236.54254576 361.63664406 234.68882146 359.45465995 232.0859375 356.890625 C230.94511719 355.75947266 230.94511719 355.75947266 229.78125 354.60546875 C228.9871875 353.82816406 228.193125 353.05085938 227.375 352.25 C226.57320313 351.45722656 225.77140625 350.66445313 224.9453125 349.84765625 C222.96797154 347.89385507 220.98611091 345.94487897 219 344 C215.43650106 345.71736034 212.39887688 347.8063455 209.1875 350.125 C182.21891887 369.03021681 149.67103524 376.49716668 117 370.875 C95.92715057 366.70134827 77.45887126 357.71095537 61 344 C57.63664406 345.45745424 55.45465995 347.31117854 52.890625 349.9140625 C52.13652344 350.67460937 51.38242188 351.43515625 50.60546875 352.21875 C49.82816406 353.0128125 49.05085937 353.806875 48.25 354.625 C47.45722656 355.42679687 46.66445312 356.22859375 45.84765625 357.0546875 C43.89385507 359.03202846 41.94487897 361.01388909 40 363 C41.29695198 366.3519524 42.63694864 369.09171426 44.75 372 C58.01296462 391.60330869 61.73156772 415.65446176 57.48046875 438.70141602 C52.75337368 461.47670646 38.93231776 480.65981172 20.11328125 494.0546875 C-0.28491027 507.35240153 -24.37996315 511.41537516 -48.38671875 507.1953125 C-64.13610858 503.75167011 -78.19971942 495.87080642 -90 485 C-90.94359375 484.17628906 -90.94359375 484.17628906 -91.90625 483.3359375 C-107.0085433 469.40063959 -116.4399083 447.85748888 -117.37890625 427.546875 C-117.71287188 414.82857324 -117.32297841 403.03969689 -113 391 C-112.57589844 389.80632812 -112.15179688 388.61265625 -111.71484375 387.3828125 C-102.87411849 364.87467075 -85.66231904 348.42809514 -63.875 338.625 C-41.87245002 329.72038056 -17.22589174 329.35059083 4.7890625 338.47265625 C12.18348538 341.98995473 19.55396489 345.92512639 26 351 C29.36335594 349.54254576 31.54534005 347.68882146 34.109375 345.0859375 C34.86347656 344.32539063 35.61757812 343.56484375 36.39453125 342.78125 C37.17183594 341.9871875 37.94914063 341.193125 38.75 340.375 C39.54277344 339.57320313 40.33554688 338.77140625 41.15234375 337.9453125 C43.10614493 335.96797154 45.05512103 333.98611091 47 332 C45.28263966 328.43650106 43.1936545 325.39887688 40.875 322.1875 C21.96978319 295.21891887 14.50283332 262.67103524 20.125 230 C24.29865173 208.92715057 33.28904463 190.45887126 47 174 C45.54254576 170.63664406 43.68882146 168.45465995 41.0859375 165.890625 C40.32539063 165.13652344 39.56484375 164.38242188 38.78125 163.60546875 C37.9871875 162.82816406 37.193125 162.05085937 36.375 161.25 C35.57320312 160.45722656 34.77140625 159.66445312 33.9453125 158.84765625 C31.96797154 156.89385507 29.98611091 154.94487897 28 153 C24.6480476 154.29695198 21.90828574 155.63694864 19 157.75 C7.21835503 165.72107993 -7.65622177 171.38416695 -22 172 C-23.06089844 172.0515625 -24.12179688 172.103125 -25.21484375 172.15625 C-48.81171998 172.75050502 -71.40212659 165.61430934 -88.77319336 149.18432617 C-106.21512942 132.24410889 -116.9790737 112.06129668 -117.43188477 87.48583984 C-117.47291362 62.47250732 -111.18210523 41.65120716 -94 23 C-93.45085937 22.3709375 -92.90171875 21.741875 -92.3359375 21.09375 C-69.76619126 -3.36607351 -30.79960114 -11.05891719 0 0 Z " fill="#010101" transform="translate(117,4)"/>
<path d="M0 0 C0.60585938 0.46277344 1.21171875 0.92554688 1.8359375 1.40234375 C19.553941 15.32363222 30.21081344 37.49907298 35 59 C35.33644531 60.23169922 35.33644531 60.23169922 35.6796875 61.48828125 C41.63196695 85.09355387 34.3605059 112.93812466 22.46728516 133.50170898 C19.11198124 139.06593306 15.24974959 144.08770593 11 149 C10.236875 150.010625 9.47375 151.02125 8.6875 152.0625 C-9.93059917 172.41251537 -37.1639064 183.63730385 -64.3359375 185.29296875 C-90.60344945 186.37245554 -116.64045928 176.89869241 -136.3125 159.5 C-137.88327148 158.00866395 -139.44609528 156.50890237 -141 155 C-141.74636719 154.32710937 -142.49273437 153.65421875 -143.26171875 152.9609375 C-159.22100961 138.0878811 -171.22127438 113.85890231 -172.12451172 91.98461914 C-172.8867349 58.53911791 -166.67997735 31.61314078 -143.13500977 6.67919922 C-128.01469893 -8.82074489 -109.98672528 -18.20509951 -89 -23 C-88.17628906 -23.22558594 -87.35257812 -23.45117188 -86.50390625 -23.68359375 C-56.48279722 -31.22789325 -23.14968392 -18.42882692 0 0 Z " fill="#BBD9FD" transform="translate(324,176)"/>
<path d="M0 0 C0.73154297 0.30566895 1.46308594 0.61133789 2.21679688 0.92626953 C8.68860896 3.74165034 14.20308418 7.26139286 19.5625 11.875 C20.33851563 12.54015625 21.11453125 13.2053125 21.9140625 13.890625 C31.8947513 23.15105791 38.54470682 34.94378331 42.5625 47.875 C42.80742187 48.65617187 43.05234375 49.43734375 43.3046875 50.2421875 C48.13686962 69.37233314 43.2903495 89.00213606 33.9375 105.875 C23.06016896 123.19505789 6.30590809 134.04342654 -13.4375 138.875 C-14.17355469 139.05804688 -14.90960938 139.24109375 -15.66796875 139.4296875 C-34.98782917 142.53612486 -54.28345955 138.04132723 -70.28515625 126.890625 C-72.75707612 124.96677786 -75.10848931 122.96858723 -77.4375 120.875 C-78.04851562 120.35679687 -78.65953125 119.83859375 -79.2890625 119.3046875 C-90.28660847 109.31148363 -98.5984092 93.13007891 -100.3125 78.375 C-100.35375 77.22 -100.395 76.065 -100.4375 74.875 C-103.0775 74.875 -105.7175 74.875 -108.4375 74.875 C-108.4375 69.595 -108.4375 64.315 -108.4375 58.875 C-105.7975 59.205 -103.1575 59.535 -100.4375 59.875 C-100.355 58.823125 -100.2725 57.77125 -100.1875 56.6875 C-98.38374582 42.70222789 -92.15677283 30.74389965 -83.4375 19.875 C-82.73625 18.905625 -82.035 17.93625 -81.3125 16.9375 C-61.84886852 -5.88407429 -26.80959633 -11.22541298 0 0 Z " fill="#56A2FD" transform="translate(452.4375,357.125)"/>
<path d="M0 0 C0.82701416 0.00491455 1.65402832 0.0098291 2.50610352 0.01489258 C17.20039303 0.29322055 30.38862713 5.10005828 42.59375 13.17578125 C44.93348208 14.62339384 44.93348208 14.62339384 48.75 14.3125 C51.00065102 12.39583079 51.00065102 12.39583079 52.75 10.3125 C54.40213589 11.74275194 56.04652589 13.18195545 57.6875 14.625 C58.60402344 15.42550781 59.52054688 16.22601563 60.46484375 17.05078125 C62.75 19.3125 62.75 19.3125 63.75 22.3125 C62.46034824 23.68812854 61.12310707 25.02016393 59.75 26.3125 C59.09 26.3125 58.43 26.3125 57.75 26.3125 C58.38615234 27.116875 58.38615234 27.116875 59.03515625 27.9375 C66.98095286 38.55517987 72.88410006 50.95941145 73.75 64.3125 C73.82951904 65.43567627 73.82951904 65.43567627 73.91064453 66.58154297 C75.23807685 87.95778058 69.17926632 106.364505 55.14453125 122.75 C43.72280909 134.97291963 25.67114234 144.7567134 8.80078125 145.65234375 C-13.04689869 146.28918631 -31.86105169 141.26435769 -48.25 126.3125 C-48.8584375 125.79558594 -49.466875 125.27867187 -50.09375 124.74609375 C-61.57161195 114.33775984 -70.37820881 96.71047245 -71.38720703 81.20385742 C-72.27810413 59.64371718 -67.51844819 41.15855639 -53.29296875 24.51171875 C-39.5391603 9.70599378 -20.42650894 -0.14558714 0 0 Z " fill="#FCE175" transform="translate(86.25,14.6875)"/>
<path d="M0 0 C1.04285156 0.46792969 2.08570312 0.93585938 3.16015625 1.41796875 C21.639983 10.6968691 33.94047844 27.27658274 40.5 46.5625 C45.22871835 64.91243802 42.32273357 85.34063662 33.43359375 101.921875 C22.14967862 120.45786551 5.64898053 132.66060848 -15.30078125 138.08203125 C-35.05553719 142.4397598 -54.18905813 137.67775155 -71 127 C-86.64454324 116.25232599 -97.61959738 99.98896522 -102.25 81.5625 C-105.75664533 61.25583566 -101.80517045 41.14774092 -90.05078125 24.1875 C-88.11940452 21.69833864 -86.10995026 19.33893711 -84 17 C-83.39671875 16.30390625 -82.7934375 15.6078125 -82.171875 14.890625 C-61.45919284 -7.56261868 -27.10308879 -12.30124237 0 0 Z " fill="#D4F97C" transform="translate(118,358)"/>
<path d="M0 0 C13.83502006 11.87505889 24.85699621 29.47527405 26.43017578 47.96972656 C27.11596035 59.52728582 25.76540056 69.85215587 22.25 80.8515625 C21.97285156 81.76164062 21.69570313 82.67171875 21.41015625 83.609375 C15.55892939 100.38109438 1.7350745 113.79205668 -13.75 121.8515625 C-30.78484719 129.70549838 -51.2289486 132.38774148 -69.25244141 126.11376953 C-89.60533791 118.36103704 -103.90225817 105.48280422 -112.984375 85.828125 C-113.57537849 84.50369998 -114.16411529 83.17825986 -114.75 81.8515625 C-115.20890625 80.84867187 -115.6678125 79.84578125 -116.140625 78.8125 C-122.16611472 63.06984729 -120.44222575 43.08518164 -113.75 27.8515625 C-110.35590038 20.45727405 -106.06059143 14.00366093 -100.75 7.8515625 C-100.17894531 7.18511719 -99.60789062 6.51867187 -99.01953125 5.83203125 C-73.03024186 -22.26300014 -29.40660067 -22.97390677 0 0 Z " fill="#FC7755" transform="translate(470.75,31.1484375)"/>
<path d="M0 0 C4.05602714 1.61623263 6.76955528 4.50152676 9.77832031 7.55126953 C10.34461151 8.11726868 10.91090271 8.68326782 11.49435425 9.26641846 C13.36039238 11.1338472 15.21925096 13.00825462 17.078125 14.8828125 C18.37234554 16.18076411 19.66700905 17.47827416 20.96209717 18.77536011 C24.36625646 22.18714836 27.76436634 25.60490052 31.16125488 29.02392578 C34.62991407 32.5130592 38.10425583 35.99652387 41.578125 39.48046875 C48.39099302 46.31477368 55.1974842 53.15539203 62 60 C60.52487842 63.07456913 59.00176371 65.34751581 56.625 67.8125 C55.74714844 68.75029297 55.74714844 68.75029297 54.8515625 69.70703125 C54.24054688 70.13371094 53.62953125 70.56039062 53 71 C49 70 49 70 41 62 C40.67 73.88 40.34 85.76 40 98 C13.93 98 -12.14 98 -39 98 C-39.33 86.12 -39.66 74.24 -40 62 C-42.97 64.97 -45.94 67.94 -49 71 C-52.49353838 69.25323081 -54.13945763 68.08594785 -56.75 65.375 C-57.67039062 64.42753906 -57.67039062 64.42753906 -58.609375 63.4609375 C-59.06828125 62.97882813 -59.5271875 62.49671875 -60 62 C-58.38376737 57.94397286 -55.49847324 55.23044472 -52.44873047 52.22167969 C-51.88273132 51.65538849 -51.31673218 51.08909729 -50.73358154 50.50564575 C-48.8661528 48.63960762 -46.99174538 46.78074904 -45.1171875 44.921875 C-43.81923589 43.62765446 -42.52172584 42.33299095 -41.22463989 41.03790283 C-37.81285164 37.63374354 -34.39509948 34.23563366 -30.97607422 30.83874512 C-27.4869408 27.37008593 -24.00347613 23.89574417 -20.51953125 20.421875 C-13.68522632 13.60900698 -6.84460797 6.8025158 0 0 Z " fill="#030201" transform="translate(87,366)"/>
<path d="M0 0 C7.09171127 5.79569011 13.12528443 12.406792 15.8125 21.3125 C16.0625 24.375 16.0625 24.375 15.8125 26.3125 C16.67875 26.539375 17.545 26.76625 18.4375 27 C25.48172267 29.73941993 28.80826353 33.90095346 31.89453125 40.6328125 C33.9948083 46.76383401 33.53400206 52.16173261 31.125 58.125 C29.24750283 61.88662861 27.0377916 64.57100214 23.8125 67.3125 C23.173125 67.869375 22.53375 68.42625 21.875 69 C16.99150776 72.10767688 12.18268259 72.57130542 6.49707031 72.61889648 C5.79049286 72.62722 5.08391541 72.63554352 4.35592651 72.64411926 C2.03410223 72.66809327 -0.2874403 72.67697655 -2.609375 72.68359375 C-4.23594236 72.69257097 -5.86250893 72.701693 -7.48907471 72.71095276 C-10.89508056 72.72741203 -14.30098849 72.73513704 -17.70703125 72.73803711 C-22.04903778 72.74341213 -26.39011014 72.78106811 -30.73185349 72.82678127 C-34.09156566 72.85668194 -37.4510566 72.8637635 -40.8108902 72.86476326 C-42.41033447 72.86894124 -44.0097809 72.88127712 -45.60909271 72.90228081 C-55.36366841 73.02017492 -64.13909466 72.77518631 -71.78509521 65.86961365 C-73.125 64.375 -73.125 64.375 -75.1875 61.3125 C-75.785625 60.466875 -76.38375 59.62125 -77 58.75 C-79.26416498 52.1958382 -79.51984728 44.38266359 -76.6875 37.9375 C-74.1031788 33.60577301 -70.42019724 30.03183063 -66.1875 27.3125 C-63.43359375 26.62109375 -63.43359375 26.62109375 -61.1875 26.3125 C-61.290625 25.52875 -61.39375 24.745 -61.5 23.9375 C-60.76355039 15.39468453 -55.31899592 8.03769197 -49.1875 2.3125 C-34.89326647 -9.23284247 -15.3514168 -10.6598813 0 0 Z " fill="#010203" transform="translate(447.1875,391.6875)"/>
<path d="M0 0 C8.69756262 5.10257007 14.01584368 11.83755199 17.34375 21.375 C17.75601237 24.2652695 17.68091135 26.45293501 17.34375 29.375 C19.98375 29.375 22.62375 29.375 25.34375 29.375 C25.34375 50.165 25.34375 70.955 25.34375 92.375 C-0.72625 92.375 -26.79625 92.375 -53.65625 92.375 C-53.65625 71.585 -53.65625 50.795 -53.65625 29.375 C-51.01625 29.375 -48.37625 29.375 -45.65625 29.375 C-45.73875 28.405625 -45.82125 27.43625 -45.90625 26.4375 C-45.87438869 18.53589507 -40.96599802 10.94261657 -35.65625 5.375 C-25.27684954 -3.02914651 -12.47060133 -5.83041101 0 0 Z " fill="#020202" transform="translate(101.65625,42.625)"/>
<path d="M0 0 C8.66231718 6.16744587 14.69307185 14.61921755 16.9296875 25.0703125 C18.50633673 35.79921821 16.80981743 46.83507609 10.3125 55.75 C8.51520773 57.95280946 6.86225382 59.54892327 4.58984375 61.30078125 C1.13114458 65.66024348 1.67756945 69.53535062 1.75 74.9375 C1.48284648 90.19631485 1.48284648 90.19631485 -3.75 96.25 C-6.24845697 98.58982478 -8.80188807 100.51512697 -11.75 102.25 C-12.36230469 102.62382812 -12.97460938 102.99765625 -13.60546875 103.3828125 C-18.8788785 105.51522956 -25.70071407 105.03981504 -31.1328125 103.6328125 C-37.13310833 100.97385788 -42.04910185 95.87567982 -44.82763672 89.95288086 C-45.80684427 87.08342431 -45.97569866 84.92682047 -45.953125 81.90625 C-45.96472656 80.90722656 -45.97632813 79.90820312 -45.98828125 78.87890625 C-45.99609375 76.79296875 -45.98827994 74.70691422 -45.96484375 72.62109375 C-45.87717397 67.27374354 -45.87717397 67.27374354 -48.02270508 62.58496094 C-49.53000701 61.38211017 -51.13995291 60.31139411 -52.75 59.25 C-60.75479797 48.71645321 -63.39061489 37.27380765 -61.75 24.25 C-59.13059452 13.40540824 -52.22766891 5.20045673 -43.25 -1.1875 C-29.16441068 -9.74552587 -13.84229267 -8.54347237 0 0 Z " fill="#030201" transform="translate(446.75,38.75)"/>
<path d="M0 0 C0.78608643 0.00837891 1.57217285 0.01675781 2.38208008 0.02539062 C11.5786284 0.38073973 17.95494046 3.91499801 24.1875 10.625 C31.18694697 19.39942635 32.01912491 27.64755124 31.1875 38.625 C29.34416828 46.7534266 24.77905791 53.50708399 17.875 58.1953125 C9.25180822 63.15932092 0.14660589 64.20315789 -9.671875 61.9765625 C-18.73260237 58.68431063 -25.40195346 52.58574849 -29.73828125 43.984375 C-32.43312403 35.55686668 -32.48389873 25.16418699 -28.875 17 C-22.50960006 6.57081367 -12.22349542 -0.17904097 0 0 Z " fill="#030304" transform="translate(255.8125,224.375)"/>
<path d="M0 0 C6.07126726 3.69240615 10.3972678 9.5923102 12.29296875 16.39453125 C12.51743345 20.740984 12.46947853 25.0471607 12.29296875 29.39453125 C12.9684375 29.37132812 13.64390625 29.348125 14.33984375 29.32421875 C15.67789063 29.29714844 15.67789063 29.29714844 17.04296875 29.26953125 C18.36554688 29.23472656 18.36554688 29.23472656 19.71484375 29.19921875 C22.4728697 29.40816011 23.99200398 29.88389786 26.29296875 31.39453125 C28.63465639 34.90706271 28.78920552 36.25922481 28.29296875 40.39453125 C26.49303101 43.09443787 25.20919575 44.93641775 22.29296875 46.39453125 C20.10402103 46.51214301 17.91146651 46.56437183 15.71948242 46.58740234 C14.70696663 46.59966858 14.70696663 46.59966858 13.67399597 46.61218262 C11.43631884 46.63702948 9.19870514 46.65355096 6.9609375 46.66796875 C6.19673304 46.67329243 5.43252857 46.6786161 4.6451664 46.6841011 C0.59996163 46.71083006 -3.44521231 46.73020542 -7.49047852 46.74462891 C-11.66714793 46.76127347 -15.84302774 46.80604917 -20.01939869 46.85700035 C-23.23220212 46.8906701 -26.44481809 46.90220594 -29.6577816 46.90785599 C-31.19718139 46.91456968 -32.7365688 46.9297951 -34.27579689 46.9537468 C-36.43297111 46.98539802 -38.58801551 46.9854369 -40.74536133 46.97802734 C-41.97176834 46.9861142 -43.19817535 46.99420105 -44.46174622 47.00253296 C-48.63962458 46.21981059 -50.11509616 44.69892187 -52.70703125 41.39453125 C-53.47623279 37.08700262 -53.19419281 35.18406895 -50.89453125 31.45703125 C-46.26019377 28.45834229 -42.07887173 28.9711813 -36.70703125 29.39453125 C-36.7534375 28.47671875 -36.79984375 27.55890625 -36.84765625 26.61328125 C-37.12260537 17.26501104 -36.44615384 11.72404162 -30.33203125 4.64453125 C-21.01865997 -3.33835842 -11.36395779 -5.11287767 0 0 Z " fill="#FDFDFE" transform="translate(436.70703125,402.60546875)"/>
<path d="M0 0 C0.96035156 0.845625 1.92070313 1.69125 2.91015625 2.5625 C5.70079406 4.98119339 8.57819042 7.09877548 11.62109375 9.1875 C17.59260067 13.70414396 23.76012441 18.51972225 25.49261475 26.17736816 C27.13867014 38.07059912 25.74941374 50.0926484 25 62 C8.83 62 -7.34 62 -24 62 C-27.0053075 26.93807914 -27.0053075 26.93807914 -20.20568848 17.94085693 C-14.32022848 11.0730959 -7.30010097 5.3019572 0 0 Z " fill="#FD7755" transform="translate(87,387)"/>
<path d="M0 0 C16.17 0 32.34 0 49 0 C49 10.89 49 21.78 49 33 C32.83 33 16.66 33 0 33 C0 22.11 0 11.22 0 0 Z " fill="#55A2FC" transform="translate(63,87)"/>
<path d="M0 0 C6.84166299 3.9865844 10.48368612 8.75771605 13.03125 16.18359375 C14.30152026 23.30815303 12.74280178 30.01145889 9.03125 36.18359375 C5.09616378 40.62802307 1.57126806 42.96758653 -3.96875 45.18359375 C-3.96875 37.59359375 -3.96875 30.00359375 -3.96875 22.18359375 C-8.91875 22.18359375 -13.86875 22.18359375 -18.96875 22.18359375 C-18.96875 29.77359375 -18.96875 37.36359375 -18.96875 45.18359375 C-26.33490073 42.72821017 -30.42315088 39.2017838 -34.40625 32.55859375 C-37.15294302 26.44690452 -37.03471714 19.22094428 -35.34375 12.81640625 C-32.4277621 6.12525545 -26.78143699 1.79828443 -20.59375 -1.75390625 C-13.17391236 -3.92868625 -6.91092265 -3.51629691 0 0 Z " fill="#FADF74" transform="translate(435.96875,49.81640625)"/>
<path d="M0 0 C10.56 0 21.12 0 32 0 C32 4.95 32 9.9 32 15 C29.03 15 26.06 15 23 15 C23 26.22 23 37.44 23 49 C25.97 49 28.94 49 32 49 C32 53.95 32 58.9 32 64 C21.44 64 10.88 64 0 64 C0 58.72 0 53.44 0 48 C2.64 48 5.28 48 8 48 C8 37.44 8 26.88 8 16 C5.36 16 2.72 16 0 16 C0 10.72 0 5.44 0 0 Z " fill="#060708" transform="translate(176,224)"/>
<path d="M0 0 C15.84 0 31.68 0 48 0 C48 5.28 48 10.56 48 16 C42.72 16 37.44 16 32 16 C32 31.84 32 47.68 32 64 C27.05 64 22.1 64 17 64 C17 47.83 17 31.66 17 15 C11.39 15 5.78 15 0 15 C0 10.05 0 5.1 0 0 Z " fill="#060708" transform="translate(296,224)"/>
<path d="M0 0 C7.47079931 3.304392 13.59005586 7.97721492 20 13 C20.61230469 13.46664062 21.22460938 13.93328125 21.85546875 14.4140625 C39.55483498 28.36476939 50.20860975 50.48917958 55 72 C55.22429687 72.82113281 55.44859375 73.64226562 55.6796875 74.48828125 C61.63196695 98.09355387 54.3605059 125.93812466 42.46728516 146.50170898 C39.11198124 152.06593306 35.24974959 157.08770593 31 162 C30.236875 163.010625 29.47375 164.02125 28.6875 165.0625 C21.31234043 173.12372092 12.14664672 179.14167653 3 185 C2.67 184.34 2.34 183.68 2 183 C2.61746094 182.52691406 3.23492187 182.05382812 3.87109375 181.56640625 C26.33064307 164.02949787 42.82761311 138.25644517 46.7578125 109.58203125 C47.66706662 96.13386955 48.00972788 82.19782974 45 69 C44.75507813 67.84113281 44.51015625 66.68226563 44.2578125 65.48828125 C38.461786 40.9449301 23.60038003 19.70738572 4 4 C1.83267886 2.77634135 1.83267886 2.77634135 0 2 C0 1.34 0 0.68 0 0 Z " fill="#56A1F9" transform="translate(304,163)"/>
<path d="M0 0 C4.66666667 2.33333333 9.33333333 4.66666667 14 7 C15.65 5.35 17.3 3.7 19 2 C20.65213589 3.43025194 22.29652589 4.86945545 23.9375 6.3125 C24.85402344 7.11300781 25.77054688 7.91351563 26.71484375 8.73828125 C29 11 29 11 30 14 C28.71034824 15.37562854 27.37310707 16.70766393 26 18 C25.34 18 24.68 18 24 18 C24.42410156 18.53625 24.84820312 19.0725 25.28515625 19.625 C33.23095286 30.24267987 39.13410006 42.64691145 40 56 C40.0530127 56.74878418 40.10602539 57.49756836 40.16064453 58.26904297 C41.48979425 79.67293671 35.40390026 97.97702911 21.42578125 114.421875 C15.45067023 120.77223454 8.95027693 125.46654359 1 129 C1 128.34 1 127.68 1 127 C2.50390625 125.5546875 2.50390625 125.5546875 4.5625 123.875 C17.47265174 112.77998383 24.4369792 99.1651202 29 83 C29.36480469 81.73542969 29.72960937 80.47085938 30.10546875 79.16796875 C34.61485714 60.61250522 29.90276614 39.69984571 20.30859375 23.515625 C14.91852723 15.01817686 8.49467108 7.47434359 0 2 C0 1.34 0 0.68 0 0 Z " fill="#FAB354" transform="translate(120,23)"/>
<path d="M0 0 C15.96278092 6.39217555 28.4326269 20.84501528 35.45703125 36.24609375 C43.4088248 54.9076694 43.06063196 74.35918995 35.6875 93.125 C29.42798244 107.34278325 19.85787984 120.36705014 6 128 C3.71484375 128.67578125 3.71484375 128.67578125 2 129 C4.99476159 125.42089468 7.9365346 122.02890275 11.375 118.875 C19.28212857 111.05533967 24.39636152 100.40141107 28 90 C28.47953125 88.65035156 28.47953125 88.65035156 28.96875 87.2734375 C33.82258814 70.59960463 32.88832429 50.87786156 26 35 C25.56558594 33.95199219 25.13117188 32.90398437 24.68359375 31.82421875 C19.71505117 20.91041154 11.01344195 7.50672097 0 2 C0 1.34 0 0.68 0 0 Z " fill="#026BEA" transform="translate(456,359)"/>
<path d="M0 0 C18.44909068 8.19959586 29.95080506 24.07189503 37.2109375 42.42578125 C39.31755538 49.29836136 40.39007952 55.87333866 40.375 63.0625 C40.37258301 64.28924438 40.37258301 64.28924438 40.37011719 65.54077148 C40.2075902 73.76989532 38.49521708 81.19266572 36 89 C35.72285156 89.91007812 35.44570313 90.82015625 35.16015625 91.7578125 C29.42040515 108.21000229 16.39946507 120.0582002 2 129 C2 128.01 2 127.02 2 126 C3.65234375 124.4140625 3.65234375 124.4140625 5.9375 122.625 C19.04603482 111.35083562 28.07603629 93.11315093 30 76 C31.27426548 52.99327885 27.80091884 32.01696679 12.67578125 13.83203125 C11.01893616 12.02070177 9.31448699 10.28166288 7.5625 8.5625 C6.716875 7.716875 5.87125 6.87125 5 6 C5 5.34 5 4.68 5 4 C2.525 3.01 2.525 3.01 0 2 C0 1.34 0 0.68 0 0 Z " fill="#F83E5F" transform="translate(457,23)"/>
<path d="M0 0 C19.18480776 8.28151138 30.50189155 23.57611899 38.390625 42.30078125 C44.53150235 60.35582556 41.76701916 80.94140088 34 98 C26.99807738 111.06094295 15.93523147 124.13253412 2 130 C3.38200913 126.76833219 4.86804908 125.08484623 7.625 122.9375 C18.58309354 113.58447983 26.44623616 98.88971077 30 85 C30.20367187 84.23300781 30.40734375 83.46601563 30.6171875 82.67578125 C35.35554678 61.48298253 30.89269206 41.4026536 20 23 C14.97753183 15.10615952 8.80764188 5.91667261 0 2 C0 1.34 0 0.68 0 0 Z " fill="#55DC70" transform="translate(119,359)"/>
<path d="M0 0 C3.40920514 2.411389 5.69634878 5.08019755 7.5625 8.8125 C8.28160796 15.92105901 8.07642888 21.14115346 3.5625 26.8125 C-1.42706576 30.78378704 -5.51171974 31.44648059 -11.84765625 31.203125 C-16.52869124 30.49708654 -19.208889 28.21057459 -22.25 24.75 C-25.25840354 19.84155212 -25.00370528 14.37885612 -24.4375 8.8125 C-19.5808941 -1.4610894 -10.18771467 -3.51939234 0 0 Z " fill="#FBFBFB" transform="translate(264.4375,241.1875)"/>
<path d="M0 0 C0.96035156 0.845625 1.92070313 1.69125 2.91015625 2.5625 C5.70079406 4.98119339 8.57819042 7.09877548 11.62109375 9.1875 C17.59260067 13.70414396 23.76012441 18.51972225 25.49261475 26.17736816 C27.1260618 37.97950017 26.05388594 50.18386687 25 62 C22.36 62 19.72 62 17 62 C17.08491699 61.11554199 17.16983398 60.23108398 17.25732422 59.31982422 C19.14089266 40.49655124 19.14089266 40.49655124 12.46228027 23.55505371 C7.02734146 17.2907649 0.63221096 11.95132893 -6 7 C-4.02 4.69 -2.04 2.38 0 0 Z " fill="#FD3E61" transform="translate(87,387)"/>
<path d="M0 0 C3.99841697 2.23185799 7.05333063 5.1579822 8.8125 9.4375 C8.8125 11.4175 8.8125 13.3975 8.8125 15.4375 C-2.0775 15.4375 -12.9675 15.4375 -24.1875 15.4375 C-23.26203626 8.95925384 -22.73156858 5.34291663 -17.6484375 1.17578125 C-11.87915628 -2.57820311 -6.21941751 -2.70053655 0 0 Z " fill="#F9DF74" transform="translate(95.1875,56.5625)"/>
<path d="M0 0 C8.41900075 3.19922029 13.29394672 7.04927682 17.08203125 15.32421875 C19.5069449 22.39258406 18.38182258 28.93498277 15.40234375 35.66796875 C12.1657899 41.05020453 7.09459053 45.28589641 1 47 C2.26509637 43.6303508 3.77796207 40.70339655 5.625 37.625 C9.6019855 29.75339261 9.25691841 20.30221503 6.8125 11.9375 C5.24372626 7.94014383 2.85810552 5.1670899 0 2 C0 1.34 0 0.68 0 0 Z " fill="#F7B153" transform="translate(431,48)"/>
<path d="M0 0 C5.61 0 11.22 0 17 0 C17 5.28 17 10.56 17 16 C11.39 16 5.78 16 0 16 C0 10.72 0 5.44 0 0 Z " fill="#000000" transform="translate(264,392)"/>
<path d="M0 0 C5.61 0 11.22 0 17 0 C17 5.28 17 10.56 17 16 C11.39 16 5.78 16 0 16 C0 10.72 0 5.44 0 0 Z " fill="#000000" transform="translate(231,392)"/>
<path d="M0 0 C5.61 0 11.22 0 17 0 C17 5.28 17 10.56 17 16 C11.39 16 5.78 16 0 16 C0 10.72 0 5.44 0 0 Z " fill="#000000" transform="translate(264,104)"/>
<path d="M0 0 C5.61 0 11.22 0 17 0 C17 5.28 17 10.56 17 16 C11.39 16 5.78 16 0 16 C0 10.72 0 5.44 0 0 Z " fill="#000000" transform="translate(231,104)"/>
<path d="M0 0 C0.05423638 1.91635217 0.09289963 3.83314925 0.125 5.75 C0.14820313 6.81734375 0.17140625 7.8846875 0.1953125 8.984375 C0.00122458 11.98109254 -0.32767098 13.54134409 -2 16 C-5.75047482 18.50031654 -7.55856266 18.53603554 -12 18 C-14.9375 16.25 -14.9375 16.25 -17 13 C-17.4092855 8.96486476 -17.28999239 5.04056058 -17 1 C-14.72926348 0.83201949 -12.45840707 0.66565887 -10.1875 0.5 C-8.29064453 0.36078125 -8.29064453 0.36078125 -6.35546875 0.21875 C-4.24021483 0.08085219 -2.11974408 0 0 0 Z " fill="#559FF6" transform="translate(433,110)"/>
<path d="M0 0 C2.64 0 5.28 0 8 0 C8 10.89 8 21.78 8 33 C5.36 33 2.72 33 0 33 C0 22.11 0 11.22 0 0 Z " fill="#006CEE" transform="translate(104,87)"/>
<path d="M0 0 C3.73353364 0.2871949 6.32404139 0.53202866 9.4375 2.6875 C11.51066619 5.75578596 11.59432958 7.35973134 11 11 C9.20006226 13.69990662 7.916227 15.5418865 5 17 C2.78397356 17.09195619 0.56509793 17.11750018 -1.65283203 17.11352539 C-2.67739502 17.11374443 -2.67739502 17.11374443 -3.72265625 17.1139679 C-5.9844071 17.11327023 -8.246076 17.10548465 -10.5078125 17.09765625 C-12.07437088 17.09579155 -13.64092984 17.09436789 -15.20748901 17.09336853 C-19.33389898 17.08954743 -23.46027384 17.0797206 -27.58666992 17.06866455 C-31.79605637 17.0584417 -36.00544847 17.05386903 -40.21484375 17.04882812 C-48.47657862 17.03809798 -56.73828495 17.02102642 -65 17 C-65 16.67 -65 16.34 -65 16 C-43.22 16 -21.44 16 1 16 C1.68516016 4.5284342 1.68516016 4.5284342 0 0 Z " fill="#C3D6ED" transform="translate(454,432)"/>
<path d="M0 0 C7.69343818 3.31613715 11.86037151 7.07734776 15.875 14.4375 C17.19097428 18.60475189 17.22842848 21.65985892 17 26 C12.545 25.01 12.545 25.01 8 24 C7.92523438 23.24976563 7.85046875 22.49953125 7.7734375 21.7265625 C6.87550803 14.73679778 5.19541012 9.8056542 1.2421875 3.9609375 C0 2 0 2 0 0 Z " fill="#B9D6F8" transform="translate(432,401)"/>
<path d="M0 0 C5.28 0 10.56 0 16 0 C15.67 2.31 15.34 4.62 15 7 C11.24952518 9.50031654 9.44143734 9.53603554 5 9 C2.0625 6.75 2.0625 6.75 0 4 C0 2.68 0 1.36 0 0 Z " fill="#B2D3F9" transform="translate(416,119)"/>
<path d="M0 0 C8.44646925 4.03872437 8.44646925 4.03872437 12 7 C11.67 7.99 11.34 8.98 11 10 C10.37351562 9.50628906 9.74703125 9.01257813 9.1015625 8.50390625 C8.28429687 7.86324219 7.46703125 7.22257813 6.625 6.5625 C5.81289063 5.92441406 5.00078125 5.28632813 4.1640625 4.62890625 C2.10601894 2.97776453 2.10601894 2.97776453 0 2 C0 1.34 0 0.68 0 0 Z " fill="#5A9EED" transform="translate(304,163)"/>
</svg>
