<?xml version="1.0" standalone="no"?>
<!DOCTYPE svg PUBLIC "-//W3C//DTD SVG 20010904//EN"
 "http://www.w3.org/TR/2001/REC-SVG-20010904/DTD/svg10.dtd">
<svg version="1.0" xmlns="http://www.w3.org/2000/svg"
 width="1024.000000pt" height="1024.000000pt" viewBox="0 0 1024.000000 1024.000000"
 preserveAspectRatio="xMidYMid meet">

<g transform="translate(0.000000,1024.000000) scale(0.100000,-0.100000)"
fill="#000000" stroke="none">
<path d="M5092 10229 c-13 -5 -36 -21 -51 -36 -15 -16 -124 -84 -242 -152
-1861 -1076 -3339 -1929 -3769 -2176 -284 -163 -297 -171 -309 -207 -15 -44
-15 -5012 0 -5056 13 -37 11 -36 434 -280 182 -104 753 -434 1270 -732 2267
-1309 2595 -1499 2648 -1536 26 -19 49 -34 52 -34 3 0 26 15 52 34 53 37 381
227 2648 1536 517 298 1089 628 1270 732 423 244 421 243 434 280 15 44 15
5012 0 5056 -13 37 -19 41 -379 247 -323 185 -2061 1189 -3699 2136 -118 68
-227 136 -242 151 -25 25 -69 49 -87 47 -4 0 -17 -4 -30 -10z m548 -622 c91
-51 333 -191 1340 -773 250 -144 748 -431 1105 -638 358 -206 670 -387 695
-403 l45 -28 3 -75 3 -76 -208 -120 c-114 -67 -383 -222 -598 -346 -972 -561
-1189 -686 -1320 -763 l-140 -81 -6 -65 c-4 -35 -7 -108 -8 -161 l-1 -98 -273
0 -274 0 -209 -121 c-115 -66 -216 -121 -224 -122 -8 0 -34 11 -56 26 -23 14
-58 33 -78 41 l-36 15 0 -325 0 -324 240 0 240 0 0 24 c0 13 6 28 13 34 6 5
138 83 292 172 154 89 334 193 400 232 l121 70 11 82 c48 350 329 589 772 656
80 11 384 15 450 4 32 -5 49 -1 83 18 24 13 207 119 408 235 201 116 384 221
407 234 211 122 261 149 270 149 5 0 17 -8 26 -17 8 -10 41 -31 71 -48 l56
-30 0 -1862 0 -1863 -42 -21 c-178 -91 -310 -244 -374 -434 -21 -62 -28 -108
-33 -202 -3 -67 -8 -123 -11 -126 -3 -2 -95 -56 -205 -119 -274 -158 -517
-298 -940 -543 -198 -114 -486 -281 -640 -370 -154 -89 -487 -281 -740 -427
-627 -362 -707 -408 -716 -408 -5 0 -38 16 -74 36 l-65 36 2 1866 3 1867 73
44 c41 24 101 69 134 100 59 54 148 164 148 182 0 5 -85 9 -190 9 l-190 0 0
-605 0 -605 -265 0 -265 0 0 1140 c0 685 -4 1140 -9 1140 -15 0 -92 -36 -136
-63 -31 -20 -44 -23 -59 -15 -17 9 -18 8 -12 -13 25 -93 15 -335 -20 -476 -30
-125 -121 -291 -197 -362 l-26 -23 20 -51 c52 -131 193 -286 327 -362 l72 -40
0 -1867 0 -1866 -65 -36 c-36 -20 -69 -36 -74 -36 -9 0 -89 46 -716 408 -253
146 -586 338 -740 427 -154 89 -442 256 -640 370 -423 245 -666 385 -940 543
-110 63 -202 117 -205 119 -3 3 -8 59 -11 126 -5 94 -12 140 -33 202 -63 187
-178 323 -359 425 l-57 32 0 1848 0 1848 31 12 c17 7 58 30 90 52 33 21 65 38
71 38 6 0 99 -51 207 -114 108 -62 390 -225 626 -361 237 -136 466 -269 510
-296 l80 -48 3 85 3 84 443 2 443 3 -311 180 c-171 98 -576 333 -901 520 -324
188 -633 365 -685 395 -137 77 -130 67 -130 181 0 90 2 99 23 114 12 9 315
185 672 392 358 206 855 493 1105 637 593 343 1225 708 1323 764 l78 45 77
-36 c147 -67 171 -72 352 -72 154 0 170 2 239 28 41 15 101 42 135 62 34 19
63 34 66 35 3 0 48 -24 100 -53z"/>
<path d="M3140 5972 l0 -38 228 -131 c125 -72 345 -199 488 -282 144 -83 266
-151 272 -151 15 0 26 119 19 209 -13 187 -104 312 -278 382 -99 39 -188 48
-466 49 l-263 0 0 -38z"/>
</g>
</svg>
