<?xml version="1.0" encoding="UTF-8"?>
<svg version="1.1" xmlns="http://www.w3.org/2000/svg" width="512" height="512">
<path d="M0 0 C5.80297268 5.2030413 9.60533619 10.63403159 10.3125 18.45703125 C10.62371041 28.21153266 9.18500067 34.26799901 3.8125 42.25 C1 45 1 45 -1.20605469 45.64819336 C-4.35124883 46.6351402 -5.82572393 47.48156878 -8 50 C-9.77650341 56.50476127 -9.16505304 63.63509383 -9.0625 70.3125 C-9.06557538 72.21680786 -9.07269128 74.12111377 -9.08398438 76.02539062 C-9.11038801 80.68664689 -9.05311765 85.33627068 -9 90 C1.56 90 12.12 90 23 90 C22.88166005 81.99736946 22.88166005 81.99736946 22.72973633 73.99536133 C22.71849731 72.49138794 22.71849731 72.49138794 22.70703125 70.95703125 C22.6913208 69.93585205 22.67561035 68.91467285 22.65942383 67.86254883 C23.05482137 64.53922541 24.03209803 62.68257842 26 60 C29.12942465 58.43528767 32.61082223 58.30298042 36 59 C38.83236546 61.19736633 39.89819436 62.34253262 40.45410156 65.93261719 C40.42268066 67.5979248 40.42268066 67.5979248 40.390625 69.296875 C40.38063477 70.38323242 40.37064453 71.46958984 40.36035156 72.58886719 C40.32393555 73.96204102 40.28751953 75.33521484 40.25 76.75 C40.1675 81.1225 40.085 85.495 40 90 C48.91 90 57.82 90 67 90 C66.97905273 87.87014648 66.95810547 85.74029297 66.93652344 83.54589844 C66.87024698 76.50917913 66.82606212 69.47244603 66.79275131 62.43549728 C66.77187567 58.16890708 66.74355891 53.90263664 66.69824219 49.63623047 C66.6547829 45.51893216 66.63086272 41.40194143 66.62049103 37.28443146 C66.61309973 35.7135153 66.59866612 34.14261598 66.57707977 32.57183075 C66.54804318 30.37141031 66.54404388 28.17226087 66.54589844 25.97167969 C66.53701599 24.71925476 66.52813354 23.46682983 66.51898193 22.17645264 C67.0899683 18.40588501 67.99163581 17.26662702 71 15 C73.90439761 14.03186746 75.7281824 13.87855166 78.74682617 13.88647461 C79.70759567 13.88655014 80.66836517 13.88662567 81.6582489 13.88670349 C82.69270645 13.89186478 83.727164 13.89702606 84.79296875 13.90234375 C85.85413406 13.9037587 86.91529938 13.90517365 88.00862122 13.90663147 C91.40160935 13.91223394 94.79453177 13.92478686 98.1875 13.9375 C100.48632717 13.94251468 102.78515538 13.94707764 105.08398438 13.95117188 C110.72267872 13.96220417 116.36133466 13.9789447 122 14 C122.45246094 12.58182983 122.45246094 12.58182983 122.9140625 11.13500977 C125.10781719 4.80182543 129.784603 0.36255857 135.5 -3 C142.74874894 -6.26470372 151.12443625 -6.30199714 158.75 -4.265625 C167.19866239 -0.78340604 172.29940021 4.75842516 176 13 C178.55189767 20.96256679 177.5757942 29.40897253 174.1171875 36.88671875 C170.29352819 44.1195848 163.71281504 48.42906165 156 51 C145.0539458 51.72324628 137.652928 51.2827225 129.1875 44.1875 C125.88184815 41.08702654 123.51864623 38.35345252 122 34 C122 33.01 122 32.02 122 31 C109.46 31 96.92 31 84 31 C84 50.47 84 69.94 84 90 C89.94 90 95.88 90 102 90 C109.94055244 93.97027622 114.11650785 96.98523105 118.4375 104.5 C119 107 119 107 119 115 C132.2 115 145.4 115 159 115 C159.66 113.02 160.32 111.04 161 109 C165.34628547 101.64273363 170.73617851 97.34273408 179 95 C188.25392927 94.02319635 196.38327118 94.27708579 204 100 C210.89440808 106.25337204 214.34483841 113.15490623 214.9921875 122.45703125 C215.01718631 130.59414266 212.27221799 136.8355605 207 143 C199.47362018 149.89304453 192.8728069 151.5771531 182.73828125 151.31640625 C175.12999229 150.67244449 169.33069548 147.45184765 164 142 C163.78609619 141.27200195 163.57219238 140.54400391 163.35180664 139.79394531 C162.3648598 136.64875117 161.51843122 135.17427607 159 133 C152.49523873 131.22349659 145.36490617 131.83494696 138.6875 131.9375 C136.78319214 131.93442462 134.87888623 131.92730872 132.97460938 131.91601562 C128.31335311 131.88961199 123.66372932 131.94688235 119 132 C119 142.23 119 152.46 119 163 C127.70607001 162.84201571 127.70607001 162.84201571 136.41113281 162.63964844 C137.49749023 162.6296582 138.58384766 162.61966797 139.703125 162.609375 C140.81333008 162.58842773 141.92353516 162.56748047 143.06738281 162.54589844 C146.65704923 163.10174089 147.79704672 164.173966 150 167 C150.92866509 170.74390967 150.50374653 174.06447074 148.6875 177.4375 C145.52598457 180.3648291 142.33351667 180.11844425 138.23828125 180.09765625 C136.72681519 180.09390991 136.72681519 180.09390991 135.18481445 180.09008789 C133.90695068 180.08098389 132.62908691 180.07187988 131.3125 180.0625 C125.2178125 180.0315625 125.2178125 180.0315625 119 180 C119 191.22 119 202.44 119 214 C127.25 214 135.5 214 144 214 C144.33 212.35 144.66 210.7 145 209 C148.4940362 201.58645456 153.64227007 197.39961119 161 194 C168.78674645 191.46221421 177.1022472 192.11923526 184.4375 195.5625 C191.90969835 199.7619149 196.34840818 204.7661096 199 213 C200.66573308 221.3425465 200.09219916 228.74393084 195.8125 236.1875 C191.0596109 243.18442178 184.86748048 247.83373655 176.46484375 249.50390625 C167.88793918 250.64990616 160.82108852 249.23282494 153.6875 244.25 C149.9916856 241.24387104 147.46076375 238.07563996 145 234 C145 233.01 145 232.02 145 231 C136.42 231 127.84 231 119 231 C119 244.2 119 257.4 119 271 C127.00263054 270.88166005 127.00263054 270.88166005 135.00463867 270.72973633 C136.50861206 270.71849731 136.50861206 270.71849731 138.04296875 270.70703125 C139.06414795 270.6913208 140.08532715 270.67561035 141.13745117 270.65942383 C144.46077459 271.05482137 146.31742158 272.03209803 149 274 C150.56471233 277.12942465 150.69701958 280.61082223 150 284 C147.80263367 286.83236546 146.65746738 287.89819436 143.06738281 288.45410156 C141.4020752 288.42268066 141.4020752 288.42268066 139.703125 288.390625 C138.61676758 288.38063477 137.53041016 288.37064453 136.41113281 288.36035156 C135.03795898 288.32393555 133.66478516 288.28751953 132.25 288.25 C127.8775 288.1675 123.505 288.085 119 288 C119 298.23 119 308.46 119 319 C132.2 319 145.4 319 159 319 C159.33 317.35 159.66 315.7 160 314 C163.52083349 306.52959684 168.6697326 302.53265899 176 299 C183.70045562 296.43318146 192.10969174 297.0881735 199.4375 300.4375 C205.94698166 304.11374932 210.3289933 308.89895304 213.15234375 315.828125 C215.19790636 323.48248832 215.31939469 332.21297866 212 339.5 C207.83559043 346.57008518 201.84252977 351.52341165 194 354 C185.56893679 355.87883244 177.65466873 354.93458628 170.25 350.375 C165.99135044 347.29636702 162.52147503 343.63753644 160 339 C160 338.01 160 337.02 160 336 C146.47 336 132.94 336 119 336 C119 339.63 119 343.26 119 347 C116.65769178 353.63653996 112.9029822 358.11369499 107 362 C101 364 101 364 88 364 C88 383.47 88 402.94 88 423 C90.31 423 92.62 423 95 423 C95.309375 421.7625 95.309375 421.7625 95.625 420.5 C98.89180937 412.18448523 103.90105087 407.59439076 112 404 C118.96792212 401.67735929 128.45013422 401.78461776 135.19921875 404.90625 C142.53540215 409.36206638 147.21809228 414.83336962 150 423 C152.0483282 431.90577479 150.53814584 439.28630059 146.25 447.25 C140.80980709 453.89912466 134.96221238 458.39300154 126.16796875 459.46875 C116.81263181 459.5421972 109.3450048 458.90053745 102.16796875 452.3203125 C99.65990419 449.57425641 98.13018107 447.3539706 96.83203125 443.82421875 C96.22746094 442.89222656 95.62289063 441.96023438 95 441 C92.12447239 440.41619958 89.99658994 440.20343368 87.125 440.25 C77.69501894 440.19847005 77.69501894 440.19847005 74 438 C70.991425 433.99519004 70.63227492 431.04853884 70.65942383 426.09838867 C70.65898575 425.42466217 70.65854767 424.75093567 70.65809631 424.05679321 C70.66017609 421.84355057 70.68346734 419.63107804 70.70703125 417.41796875 C70.71263012 415.87812209 70.71689885 414.33827006 70.71989441 412.79841614 C70.73132033 408.75575879 70.76076778 404.71342745 70.79400635 400.67089844 C70.83016733 395.81506334 70.84387915 390.95911892 70.86136627 386.10318756 C70.89040683 378.735232 70.94790894 371.36799102 71 364 C60.77 364 50.54 364 40 364 C40.15798429 372.70607001 40.15798429 372.70607001 40.36035156 381.41113281 C40.3703418 382.49749023 40.38033203 383.58384766 40.390625 384.703125 C40.41157227 385.81333008 40.43251953 386.92353516 40.45410156 388.06738281 C39.89825911 391.65704923 38.826034 392.79704672 36 395 C32.25609033 395.92866509 28.93552926 395.50374653 25.5625 393.6875 C22.6351709 390.52598457 22.88155575 387.33351667 22.90234375 383.23828125 C22.90484131 382.23063721 22.90733887 381.22299316 22.90991211 380.18481445 C22.92356812 378.2680188 22.92356812 378.2680188 22.9375 376.3125 C22.958125 372.249375 22.97875 368.18625 23 364 C12.44 364 1.88 364 -9 364 C-9.06389693 369.61015076 -9.10039912 375.20670264 -9.06713867 380.81518555 C-9.06406061 382.72115202 -9.07693234 384.62721477 -9.10620117 386.53295898 C-9.82969333 397.03306292 -9.82969333 397.03306292 -6.0637207 406.22924805 C-3.73498974 407.46289119 -1.51364209 408.23319655 1 409 C3.33984375 411.24609375 3.33984375 411.24609375 4.9375 413.4375 C5.75541016 414.51837891 5.75541016 414.51837891 6.58984375 415.62109375 C10.91977735 422.92560778 10.81332256 430.74691639 10 439 C7.48025032 447.86014305 1.5212404 453.44080732 -6.3125 457.875 C-15.05774523 460.54304092 -22.53575352 460.59767796 -31 457 C-38.5830396 452.91682483 -43.10443647 447.02747008 -46 439 C-47.14732427 429.62062412 -46.88831881 420.76725471 -41 413 C-37.2647827 408.92600717 -33.11457718 406.1409858 -28 404 C-27.34 404 -26.68 404 -26 404 C-26 390.8 -26 377.6 -26 364 C-33.59 364 -41.18 364 -49 364 C-48.95359375 365.81886719 -48.9071875 367.63773437 -48.859375 369.51171875 C-48.82185483 371.90362941 -48.78545494 374.29555783 -48.75 376.6875 C-48.71648437 377.88568359 -48.68296875 379.08386719 -48.6484375 380.31835938 C-48.63554687 381.47529297 -48.62265625 382.63222656 -48.609375 383.82421875 C-48.58842773 384.88729248 -48.56748047 385.95036621 -48.54589844 387.0456543 C-49.11138416 390.72465578 -50.41937889 392.36901804 -53 395 C-55.21875 395.6640625 -55.21875 395.6640625 -57.5 395.625 C-58.2528125 395.63789063 -59.005625 395.65078125 -59.78125 395.6640625 C-63.0922789 394.67308554 -64.11643536 392.84119778 -66 390 C-66.45410156 387.0456543 -66.45410156 387.0456543 -66.390625 383.82421875 C-66.38063477 382.78096436 -66.37064453 381.73770996 -66.36035156 380.6628418 C-66.32393555 379.350979 -66.28751953 378.03911621 -66.25 376.6875 C-66.1675 372.500625 -66.085 368.31375 -66 364 C-74.58 364 -83.16 364 -92 364 C-91.97905273 366.12985352 -91.95810547 368.25970703 -91.93652344 370.45410156 C-91.87024698 377.49082087 -91.82606212 384.52755397 -91.79275131 391.56450272 C-91.77187567 395.83109292 -91.74355891 400.09736336 -91.69824219 404.36376953 C-91.6547829 408.48106784 -91.63086272 412.59805857 -91.62049103 416.71556854 C-91.61309973 418.2864847 -91.59866612 419.85738402 -91.57707977 421.42816925 C-91.54804318 423.62858969 -91.54404388 425.82773913 -91.54589844 428.02832031 C-91.53701599 429.28074524 -91.52813354 430.53317017 -91.51898193 431.82354736 C-92 435 -92 435 -93.6328125 437.40734863 C-96.71630976 439.48193551 -98.62495256 439.48326809 -102.32910156 439.45410156 C-103.61012756 439.45379944 -104.89115356 439.45349731 -106.21099854 439.45318604 C-107.60421371 439.43276095 -108.9974225 439.41189699 -110.390625 439.390625 C-111.81979582 439.38316131 -113.2489769 439.37746898 -114.67816162 439.37347412 C-118.43327262 439.3582275 -122.18776125 439.31895516 -125.94262695 439.2746582 C-129.77676983 439.23368387 -133.61101362 439.21545856 -137.4453125 439.1953125 C-144.9638249 439.15245903 -152.48182512 439.08422067 -160 439 C-160.30542725 439.94544678 -160.61085449 440.89089355 -160.92553711 441.86499023 C-163.47303393 449.29793882 -168.05249873 453.57597086 -174.94921875 457.08984375 C-181.90103504 460.17512603 -190.67093487 460.22057963 -197.96484375 458.1640625 C-205.9495417 454.4977451 -211.73784346 448.15539135 -215 440 C-217.62094607 430.94582268 -215.66966157 422.86259786 -211.25 414.8125 C-207.03013723 409.53767153 -201.81357326 404.41656764 -195 403 C-184.11274322 402.00466388 -176.72504396 403.14660503 -167.75 409.1875 C-164.31353845 412.70206295 -160 417.8264227 -160 423 C-143.17 423 -126.34 423 -109 423 C-109 403.53 -109 384.06 -109 364 C-118.24 364 -127.48 364 -137 364 C-147.16947405 359.48023376 -147.16947405 359.48023376 -149.9375 356.0625 C-150.48277344 355.41410156 -151.02804688 354.76570313 -151.58984375 354.09765625 C-155.41563044 348.40666607 -155.24731645 343.34433732 -155.125 336.6875 C-155.11597656 335.75615234 -155.10695313 334.82480469 -155.09765625 333.86523438 C-155.07418263 331.5765564 -155.04134729 329.28841328 -155 327 C-166.92333535 325.96608783 -166.92333535 325.96608783 -177.3828125 330.08203125 C-178.79409175 332.66768508 -178.79409175 332.66768508 -179.85546875 335.41796875 C-182.03135023 340.32669795 -186.60429784 342.80627944 -191.265625 345.12890625 C-198.6940972 347.49540525 -208.45058745 347.24959697 -215.5625 344 C-222.91854767 339.62847672 -228.30306632 332.86213453 -230.6875 324.625 C-231.71768637 315.97143449 -230.44256095 309.44895031 -226.25 301.8125 C-222.03013723 296.53767153 -216.81357326 291.41656764 -210 290 C-199.11274322 289.00466388 -191.72504396 290.14660503 -182.75 296.1875 C-178.77831278 300.24945283 -175 305.14644717 -175 311 C-168.4 311 -161.8 311 -155 311 C-155 303.41 -155 295.82 -155 288 C-157.04703125 288.04640625 -159.0940625 288.0928125 -161.203125 288.140625 C-163.19220027 288.16844423 -165.18128043 288.19611952 -167.17041016 288.21972656 C-168.5497668 288.23980642 -169.92903869 288.26707666 -171.30810547 288.30175781 C-173.29356979 288.35042817 -175.27966254 288.37086418 -177.265625 288.390625 C-179.05661621 288.4220459 -179.05661621 288.4220459 -180.88378906 288.45410156 C-184.6248591 287.90894407 -185.74423942 286.97405285 -188 284 C-189.14695938 280.40619396 -189.316323 278.73253748 -187.8125 275.25 C-185.86094969 272.82738582 -184.86754723 272.09605392 -182 271 C-179.06738281 270.77294922 -179.06738281 270.77294922 -175.703125 270.8046875 C-174.07358887 270.81218018 -174.07358887 270.81218018 -172.41113281 270.81982422 C-171.03795898 270.83803223 -169.66478516 270.85624023 -168.25 270.875 C-161.69125 270.936875 -161.69125 270.936875 -155 271 C-155 257.8 -155 244.6 -155 231 C-168.53 231 -182.06 231 -196 231 C-196.33 232.65 -196.66 234.3 -197 236 C-202.2249496 243.90406916 -208.85958373 248.03353594 -218 250 C-227.17806195 250.63296979 -234.28106981 248.86320516 -241.375 242.8125 C-247.80463697 236.60492271 -250.55617538 230.65876389 -251.25 221.8125 C-250.63414157 212.42065896 -247.36959146 204.75281406 -240.265625 198.46484375 C-232.84577912 192.83429699 -225.10295789 192.12389372 -216 193 C-206.29075765 195.54539597 -201.20329832 200.17331642 -196.13671875 208.66015625 C-195 211 -195 211 -195 214 C-181.8 214 -168.6 214 -155 214 C-155 202.78 -155 191.56 -155 180 C-163.66080924 180.11838075 -163.66080924 180.11838075 -172.32104492 180.27026367 C-173.94683472 180.28150269 -173.94683472 180.28150269 -175.60546875 180.29296875 C-177.26292114 180.31653442 -177.26292114 180.31653442 -178.95385742 180.34057617 C-182.38796674 179.9566231 -184.22822771 179.02210926 -187 177 C-188.92863839 174.45770394 -189.00902291 173.21654982 -188.875 170 C-187.84050081 166.45314563 -186.90477167 165.25500434 -184 163 C-180.88378906 162.54589844 -180.88378906 162.54589844 -177.265625 162.609375 C-175.51427246 162.62436035 -175.51427246 162.62436035 -173.72753906 162.63964844 C-172.24995117 162.67606445 -170.77236328 162.71248047 -169.25 162.75 C-164.5475 162.8325 -159.845 162.915 -155 163 C-155 152.44 -155 141.88 -155 131 C-166.77976549 130.04303658 -166.77976549 130.04303658 -177.3828125 134.08203125 C-178.79409175 136.66768508 -178.79409175 136.66768508 -179.85546875 139.41796875 C-182.03135023 144.32669795 -186.60429784 146.80627944 -191.265625 149.12890625 C-198.6940972 151.49540525 -208.45058745 151.24959697 -215.5625 148 C-222.91854767 143.62847672 -228.30306632 136.86213453 -230.6875 128.625 C-231.71768637 119.97143449 -230.44256095 113.44895031 -226.25 105.8125 C-222.03013723 100.53767153 -216.81357326 95.41656764 -210 94 C-199.11274322 93.00466388 -191.72504396 94.14660503 -182.75 100.1875 C-178.77831278 104.24945283 -175 109.14644717 -175 115 C-168.4 115 -161.8 115 -155 115 C-155 112.36 -155 109.72 -155 107 C-153.28855261 100.41317944 -148.47118605 95.76971851 -143 92 C-138.87973777 89.97201538 -135.51575749 89.76582334 -130.94921875 89.8046875 C-129.74354248 89.80968262 -128.53786621 89.81467773 -127.2956543 89.81982422 C-125.01461792 89.84713623 -125.01461792 89.84713623 -122.6875 89.875 C-117.840625 89.91625 -112.99375 89.9575 -108 90 C-108 70.53 -108 51.06 -108 31 C-114.27 31 -120.54 31 -127 31 C-127.33 32.65 -127.66 34.3 -128 36 C-131.59291284 42.65972059 -137.6487126 48.15239761 -144.85546875 50.640625 C-155.85061885 52.48316381 -163.9585551 50.79071053 -173.1875 45 C-178.4317262 40.16708566 -181.51137658 33.39075039 -182.515625 26.421875 C-182.79520926 17.19559447 -180.89631525 10.57515404 -175.375 3.25 C-169.95135007 -2.50927183 -164.01377663 -5.16208652 -156.09301758 -5.59204102 C-147.29593511 -5.73056967 -140.51852068 -4.1131207 -133.91015625 1.90234375 C-130.28890633 5.76056708 -128.61326825 8.94345542 -127 14 C-126.1529248 13.98428955 -125.30584961 13.9685791 -124.43310547 13.95239258 C-121.26857796 13.9010443 -118.10426392 13.86354328 -114.93945312 13.83520508 C-113.57382184 13.82018572 -112.20823824 13.79976392 -110.84277344 13.77368164 C-108.87196095 13.73699863 -106.90078592 13.72181449 -104.9296875 13.70703125 C-103.74616699 13.6913208 -102.56264648 13.67561035 -101.34326172 13.65942383 C-97.5951483 14.04124201 -95.20103142 15.04401228 -92 17 C-90.53958772 19.92082455 -90.88071204 22.48301369 -90.88647461 25.74462891 C-90.88632858 26.43742447 -90.88618256 27.13022003 -90.8860321 27.8440094 C-90.88672982 30.13822541 -90.89451558 32.43236064 -90.90234375 34.7265625 C-90.90420843 36.31554113 -90.9056321 37.90452034 -90.90663147 39.49349976 C-90.91045269 43.67909325 -90.92027961 47.86465213 -90.93133545 52.05023193 C-90.94155806 56.31994153 -90.94613091 60.5896567 -90.95117188 64.859375 C-90.96190222 73.239601 -90.97949584 81.61979221 -91 90 C-82.75 90 -74.5 90 -66 90 C-66.04640625 88.18113281 -66.0928125 86.36226563 -66.140625 84.48828125 C-66.17814517 82.09637059 -66.21454506 79.70444217 -66.25 77.3125 C-66.28351563 76.11431641 -66.31703125 74.91613281 -66.3515625 73.68164062 C-66.36445313 72.52470703 -66.37734375 71.36777344 -66.390625 70.17578125 C-66.41157227 69.11270752 -66.43251953 68.04963379 -66.45410156 66.9543457 C-65.88861584 63.27534422 -64.58062111 61.63098196 -62 59 C-59.78125 58.3359375 -59.78125 58.3359375 -57.5 58.375 C-56.37078125 58.35566406 -56.37078125 58.35566406 -55.21875 58.3359375 C-51.9077211 59.32691446 -50.88356464 61.15880222 -49 64 C-48.54589844 66.9543457 -48.54589844 66.9543457 -48.609375 70.17578125 C-48.62226563 71.33271484 -48.63515625 72.48964844 -48.6484375 73.68164062 C-48.69871094 75.47891602 -48.69871094 75.47891602 -48.75 77.3125 C-48.76804688 78.53001953 -48.78609375 79.74753906 -48.8046875 81.00195312 C-48.8517414 84.00163955 -48.92348203 87.00092052 -49 90 C-41.41 90 -33.82 90 -26 90 C-26 76.8 -26 63.6 -26 50 C-28.97 49.01 -28.97 49.01 -32 48 C-39.35726637 43.65371453 -43.65726592 38.26382149 -46 30 C-46.97680365 20.74607073 -46.72291421 12.61672882 -41 5 C-29.89006603 -7.24881841 -13.77702329 -9.36190341 0 0 Z M-164 17 C-165.37105716 21.28358536 -165.53517384 24.70431597 -163.8125 28.875 C-160.57091118 32.67548345 -159.22063022 33.8837495 -154.0625 34.375 C-150.29341736 34.20686248 -147.92935536 33.51087603 -145 31 C-142.66882189 27.58093877 -142 25.58956112 -142 21.4375 C-143.18124374 17.37697465 -144.81382846 15.70824581 -148 13 C-148.33 12.67 -148.66 12.34 -149 12 C-155.64084088 11.02134977 -159.69835853 11.7304892 -164 17 Z M-28 17 C-29.61429923 20.22859847 -29.59570657 23.50993653 -29 27 C-27.26397895 30.02508145 -25.16419863 32.41790069 -22 34 C-16.87629602 34.60728845 -16.87629602 34.60728845 -12.17578125 32.953125 C-8.37247256 29.82207185 -7.11336633 28.13366332 -6.625 23.25 C-6.64941225 19.89941932 -7.24398646 18.15105468 -9.375 15.5625 C-12.9048586 12.11668565 -14.9283652 11.60444164 -19.89453125 11.640625 C-23.61593453 12.27581814 -25.40312849 14.33979016 -28 17 Z M139 16 C137.16451728 19.08694821 136.99792999 20.88407944 137.0625 24.5 C138.17295977 28.64571647 139.77061901 30.25502616 143 33 C143.33 33.33 143.66 33.66 144 34 C148.52285132 34.57002878 151.97343495 34.61157067 155.9375 32.25 C158.78206465 29.14683856 159.82909642 27.31026074 160.375 23.125 C159.89861498 19.15512486 158.46959574 17.10463464 156 14 C150.24144526 10.16096351 143.68106904 10.75152865 139 16 Z M-136.54711151 108.45288849 C-138.75861512 112.32995568 -138.55206341 115.86846155 -138.50793457 120.26171875 C-138.51417453 121.20969833 -138.5204145 122.15767792 -138.52684355 123.13438416 C-138.54283082 126.3190072 -138.53014664 129.50287093 -138.51757812 132.6875 C-138.52299668 134.96728971 -138.53011783 137.24707592 -138.53881836 139.52685547 C-138.55708619 145.7251236 -138.54996977 151.92312603 -138.53730202 158.12139893 C-138.52719233 164.60047129 -138.53656204 171.07952052 -138.54284668 177.55859375 C-138.55059578 189.1376373 -138.53814589 200.71655932 -138.51780933 212.29558372 C-138.49993805 222.79607417 -138.50304208 233.29638775 -138.52148438 243.796875 C-138.54288625 255.98817979 -138.55086079 268.1793586 -138.53903532 280.37068176 C-138.53279123 286.82512663 -138.53198999 293.27944963 -138.54518127 299.73388672 C-138.55671475 305.80125082 -138.54875954 311.86828008 -138.52560425 317.93560791 C-138.5203038 320.16570479 -138.52185361 322.39582972 -138.53065491 324.62591553 C-138.54154098 327.66375445 -138.52793033 330.70051177 -138.50793457 333.73828125 C-138.51685746 334.62660141 -138.52578034 335.51492157 -138.53497362 336.43016052 C-138.48856143 340.05043635 -138.36037441 342.36821454 -136.54711151 345.54711151 C-132.67004432 347.75861512 -129.13153845 347.55206341 -124.73828125 347.50793457 C-123.79030167 347.51417453 -122.84232208 347.5204145 -121.86561584 347.52684355 C-118.6809928 347.54283082 -115.49712907 347.53014664 -112.3125 347.51757812 C-110.03271029 347.52299668 -107.75292408 347.53011783 -105.47314453 347.53881836 C-99.2748764 347.55708619 -93.07687397 347.54996977 -86.87860107 347.53730202 C-80.39952871 347.52719233 -73.92047948 347.53656204 -67.44140625 347.54284668 C-55.8623627 347.55059578 -44.28344068 347.53814589 -32.70441628 347.51780933 C-22.20392583 347.49993805 -11.70361225 347.50304208 -1.203125 347.52148438 C10.98817979 347.54288625 23.1793586 347.55086079 35.37068176 347.53903532 C41.82512663 347.53279123 48.27944963 347.53198999 54.73388672 347.54518127 C60.80125082 347.55671475 66.86828008 347.54875954 72.93560791 347.52560425 C75.16570479 347.5203038 77.39582972 347.52185361 79.62591553 347.53065491 C82.66375445 347.54154098 85.70051177 347.52793033 88.73828125 347.50793457 C89.62660141 347.51685746 90.51492157 347.52578034 91.43016052 347.53497362 C95.05043635 347.48856143 97.36821454 347.36037441 100.54711151 345.54711151 C102.75861512 341.67004432 102.55206341 338.13153845 102.50793457 333.73828125 C102.51417453 332.79030167 102.5204145 331.84232208 102.52684355 330.86561584 C102.54283082 327.6809928 102.53014664 324.49712907 102.51757812 321.3125 C102.52299668 319.03271029 102.53011783 316.75292408 102.53881836 314.47314453 C102.55708619 308.2748764 102.54996977 302.07687397 102.53730202 295.87860107 C102.52719233 289.39952871 102.53656204 282.92047948 102.54284668 276.44140625 C102.55059578 264.8623627 102.53814589 253.28344068 102.51780933 241.70441628 C102.49993805 231.20392583 102.50304208 220.70361225 102.52148438 210.203125 C102.54288625 198.01182021 102.55086079 185.8206414 102.53903532 173.62931824 C102.53279123 167.17487337 102.53198999 160.72055037 102.54518127 154.26611328 C102.55671475 148.19874918 102.54875954 142.13171992 102.52560425 136.06439209 C102.5203038 133.83429521 102.52185361 131.60417028 102.53065491 129.37408447 C102.54154098 126.33624555 102.52793033 123.29948823 102.50793457 120.26171875 C102.51685746 119.37339859 102.52578034 118.48507843 102.53497362 117.56983948 C102.48856143 113.94956365 102.36037441 111.63178546 100.54711151 108.45288849 C96.67004432 106.24138488 93.13153845 106.44793659 88.73828125 106.49206543 C87.31631187 106.48270549 87.31631187 106.48270549 85.86561584 106.47315645 C82.6809928 106.45716918 79.49712907 106.46985336 76.3125 106.48242188 C74.03271029 106.47700332 71.75292408 106.46988217 69.47314453 106.46118164 C63.2748764 106.44291381 57.07687397 106.45003023 50.87860107 106.46269798 C44.39952871 106.47280767 37.92047948 106.46343796 31.44140625 106.45715332 C19.8623627 106.44940422 8.28344068 106.46185411 -3.29558372 106.48219067 C-13.79607417 106.50006195 -24.29638775 106.49695792 -34.796875 106.47851562 C-46.98817979 106.45711375 -59.1793586 106.44913921 -71.37068176 106.46096468 C-77.82512663 106.46720877 -84.27944963 106.46801001 -90.73388672 106.45481873 C-96.80125082 106.44328525 -102.86828008 106.45124046 -108.93560791 106.47439575 C-111.16570479 106.4796962 -113.39582972 106.47814639 -115.62591553 106.46934509 C-118.66375445 106.45845902 -121.70051177 106.47206967 -124.73828125 106.49206543 C-125.62660141 106.48314254 -126.51492157 106.47421966 -127.43016052 106.46502638 C-131.05043635 106.51143857 -133.36821454 106.63962559 -136.54711151 108.45288849 Z M-212 116 C-213.99195343 120.3026194 -214.24392705 122.18690985 -212.875 126.75 C-210.5721654 130.74157997 -208.93781354 132.26677326 -204.6875 133.875 C-199.73192931 134.10549166 -196.179139 132.05820167 -192.5625 128.8125 C-190.53468358 125.16243044 -190.06341662 122.02966966 -191 118 C-192.76148435 114.9840268 -194.82740878 112.58629561 -198 111 C-204.47307425 110.35269258 -207.44881182 110.90700371 -212 116 Z M176 117 C174.38570077 120.22859847 174.40429343 123.50993653 175 127 C176.73602105 130.02508145 178.83580137 132.41790069 182 134 C186.03556578 134.26462726 188.98295818 134.33901394 192.8125 133.0625 C196.14791906 129.91767632 197.54431684 126.55683162 198 122 C197.03141974 118.09914251 195.55376136 114.97229239 192.08984375 112.8046875 C185.05539791 110.09609714 180.91004248 111.97020038 176 117 Z M-232 215 C-233.99195343 219.3026194 -234.24392705 221.18690985 -232.875 225.75 C-230.26137954 230.28027547 -228.69441633 231.52044821 -223.6875 232.9375 C-218.75175391 233.02115671 -216.97605997 231.88459253 -213 229 C-210.60909046 226.08932752 -210.52594798 222.75461102 -210.609375 219.03515625 C-211.31821872 215.34208047 -213.31138811 213.56356018 -216 211 C-222.90259671 208.69913443 -227.05594152 209.5960291 -232 215 Z M161 215 C159.4007285 218.198543 159.63872092 221.52101629 160 225 C161.4012545 228.50313626 162.62931779 229.74726213 165.75 231.875 C169.7379535 233.25544544 171.94152394 233.10685711 176 232 C179.66910267 229.96160963 181.26061698 228.0534686 182.5 224.125 C183.10985095 221.00023988 182.97107524 219.91152426 181.9375 216.75 C179.79015486 213.70215528 178.23967084 211.87180982 175 210 C168.29534427 209.04219204 165.68140027 210.20441924 161 215 Z M-212 312 C-213.9419376 316.19458522 -214.20424356 318.19664201 -213.0625 322.6875 C-210.6095398 326.62710275 -208.5182858 328.76937345 -204 330 C-199.25059888 330.00901215 -196.54314985 328.47525612 -193 325.375 C-190.61309026 321.34708981 -189.83781751 318.567014 -191 314 C-192.76997892 310.98713148 -194.82457623 308.58771189 -198 307 C-204.47307425 306.35269258 -207.44881182 306.90700371 -212 312 Z M176 320 C174.39944465 323.20111071 174.64518769 326.51882263 175 330 C176.44665086 333.82936992 177.70797051 334.8259055 181.25 336.9375 C185.74347386 338.21065093 187.74858326 337.84495443 192 336 C195.70492611 332.88006222 196.88913787 331.10862129 197.375 326.25 C197.35058775 322.89941932 196.75601354 321.15105468 194.625 318.5625 C191.0951414 315.11668565 189.0716348 314.60444164 184.10546875 314.640625 C180.38406547 315.27581814 178.59687151 317.33979016 176 320 Z M-196 423 C-198.3770815 426.98736252 -199.14226154 429.06739659 -198.4375 433.6875 C-196.70933664 437.66978949 -194.89878487 440.05060756 -191 442 C-185.87629602 442.60728845 -185.87629602 442.60728845 -181.17578125 440.953125 C-177.37247256 437.82207185 -176.11336633 436.13366332 -175.625 431.25 C-175.64941225 427.89941932 -176.24398646 426.15105468 -178.375 423.5625 C-181.67336002 420.34267236 -182.17926687 420.05381857 -186.8125 419.75 C-190.68854881 419.8272401 -193.01396092 420.35522253 -196 423 Z M-28 425 C-29.61429923 428.22859847 -29.59570657 431.50993653 -29 435 C-27.26397895 438.02508145 -25.16419863 440.41790069 -22 442 C-16.87629602 442.60728845 -16.87629602 442.60728845 -12.17578125 440.953125 C-8.37247256 437.82207185 -7.11336633 436.13366332 -6.625 431.25 C-6.64941225 427.89941932 -7.24398646 426.15105468 -9.375 423.5625 C-12.9048586 420.11668565 -14.9283652 419.60444164 -19.89453125 419.640625 C-23.61593453 420.27581814 -25.40312849 422.33979016 -28 425 Z M112 425 C110.38570077 428.22859847 110.40429343 431.50993653 111 435 C112.73602105 438.02508145 114.83580137 440.41790069 118 442 C123.12370398 442.60728845 123.12370398 442.60728845 127.82421875 440.953125 C131.62752744 437.82207185 132.88663367 436.13366332 133.375 431.25 C133.35058775 427.89941932 132.75601354 426.15105468 130.625 423.5625 C127.0951414 420.11668565 125.0716348 419.60444164 120.10546875 419.640625 C116.38406547 420.27581814 114.59687151 422.33979016 112 425 Z " fill="#7756BD" transform="translate(274,29)"/>
<path d="M0 0 C4.59162835 0.92324967 7.91765084 0.78726257 12.5625 0 C25.41624785 -1.1758441 33.62467675 2.00793179 43.5625 10 C44.9043339 10.79210679 46.257801 11.5650254 47.625 12.3125 C51.72549611 14.8531087 53.90608758 17.46523156 55.5625 22 C55.8562852 23.51656684 56.12644638 25.03786699 56.375 26.5625 C57.23876936 31.19544472 59.23468055 32.83690217 62.87890625 35.625 C65.52936738 37.78964575 66.46583378 39.77092724 67.5625 43 C67.83737561 45.75298492 68.00823362 48.50463567 68.18359375 51.265625 C68.56435746 54.01340433 69.22199943 55.72266922 70.5625 58.125 C74.39738805 64.99990839 73.67125269 72.01881381 72.71875 79.6171875 C72.40215869 82.14835191 72.40215869 82.14835191 73.5625 85 C74.3031922 92.63971102 74.04342539 98.64438646 70.046875 105.29296875 C68.3851131 107.20399494 66.88345976 108.03293343 64.5625 109 C64.665625 110.11375 64.76875 111.2275 64.875 112.375 C64.84075895 118.82373073 62.00953501 124.25506508 57.765625 129.015625 C53.1774127 133.23678031 48.09490081 136.19251302 42.5625 139 C41.73363281 139.45632813 40.90476562 139.91265625 40.05078125 140.3828125 C32.36355825 144.50306985 26.28875376 145.89758054 17.66796875 143.74609375 C14.62676835 142.6684142 12.19484503 140.83651979 9.5625 139 C4.79635049 139 3.37649716 140.3220871 -0.4375 143 C-8.15144015 145.57131338 -16.44927657 144.97064147 -23.6875 141.375 C-25.62044385 140.27820276 -27.53782833 139.15346593 -29.4375 138 C-30.35917969 137.48566406 -31.28085938 136.97132813 -32.23046875 136.44140625 C-36.9287192 133.76957992 -40.85871949 131.12101998 -44.4375 127 C-45.2728125 126.0409375 -45.2728125 126.0409375 -46.125 125.0625 C-49.4690781 119.80752013 -49.64536941 115.02821285 -49.4375 109 C-50.015 108.79375 -50.5925 108.5875 -51.1875 108.375 C-55.10600794 105.98035626 -57.01333774 102.27248678 -58.4375 98 C-58.69222633 92.45595627 -58.74131957 86.92419064 -57.875 81.4375 C-57.44746625 78.07830628 -57.67112155 75.47065449 -58.0625 72.125 C-58.71898182 65.59300586 -57.3341707 60.79334139 -54.4375 55 C-54.14723453 52.91928512 -53.87971922 50.83536486 -53.625 48.75 C-52.83857136 43.5377576 -52.04789129 40.01154588 -48.4375 36 C-47.40625 35.2575 -46.375 34.515 -45.3125 33.75 C-41.73954247 30.33238845 -41.63856084 28.14190684 -40.8984375 23.421875 C-39.80256252 17.66388784 -36.36185437 14.77296811 -31.8125 11.5 C-11.1584856 -2.25917355 -11.1584856 -2.25917355 0 0 Z M-3.4375 17 C-2.7775 17.66 -2.1175 18.32 -1.4375 19 C-1.4375 18.34 -1.4375 17.68 -1.4375 17 C-2.0975 17 -2.7575 17 -3.4375 17 Z M15.5625 17 C15.8925 18.32 16.2225 19.64 16.5625 21 C17.2225 19.68 17.8825 18.36 18.5625 17 C17.5725 17 16.5825 17 15.5625 17 Z M-22.4375 26 C-22.7675 26.66 -23.0975 27.32 -23.4375 28 C-20.7975 28.66 -18.1575 29.32 -15.4375 30 C-17.24972534 27.9375006 -17.24972534 27.9375006 -19.4375 26 C-20.4275 26 -21.4175 26 -22.4375 26 Z M32.375 28 C31.776875 28.66 31.17875 29.32 30.5625 30 C33.2025 29.34 35.8425 28.68 38.5625 28 C38.2325 27.34 37.9025 26.68 37.5625 26 C34.43751834 25.6626154 34.43751834 25.6626154 32.375 28 Z M-2.4375 29 C-2.4375 29.66 -2.4375 30.32 -2.4375 31 C-5.4075 31.66 -8.3775 32.32 -11.4375 33 C-11.08816406 33.60328125 -10.73882812 34.2065625 -10.37890625 34.828125 C-9.69634766 36.02695313 -9.69634766 36.02695313 -9 37.25 C-8.32130859 38.43335938 -8.32130859 38.43335938 -7.62890625 39.640625 C-5.69741231 43.46561627 -5.26467158 46.79877044 -5.1875 51.0625 C-5.16171875 51.91972656 -5.1359375 52.77695313 -5.109375 53.66015625 C-5.4375 56 -5.4375 56 -6.7734375 57.75390625 C-9.29984961 59.64575006 -11.31026167 59.87491047 -14.4375 60 C-17.125 59.1875 -17.125 59.1875 -19.4375 57 C-20.34464378 54.47780117 -21.00113002 51.99476296 -21.56640625 49.375 C-22.63762901 46.45435679 -23.75260602 45.51494018 -26.4375 44 C-29.85756486 44.07125135 -31.94867457 44.73114601 -34.9375 46.375 C-37.45944773 50.78840854 -35.64589076 55.26441458 -34.4375 60 C-33.4475 59.67 -32.4575 59.34 -31.4375 59 C-26.1286315 58.49439348 -26.1286315 58.49439348 -23.4375 59 C-21.0625 61.4375 -21.0625 61.4375 -19.4375 64 C-16.39512735 65.52118633 -13.21269668 65.33511418 -9.84765625 65.5234375 C-7.04382119 66.07784249 -6.14094392 66.74307115 -4.4375 69 C-3.32471741 72.65628566 -3.11801637 74.31539221 -4.75 77.8125 C-6.4375 80 -6.4375 80 -8.4375 81 C-10.56068064 81.0972886 -12.68709691 81.12977619 -14.8125 81.125 C-15.95460938 81.12757813 -17.09671875 81.13015625 -18.2734375 81.1328125 C-20.86986152 81.0238268 -22.97374883 80.76461243 -25.4375 80 C-25.23125 81.03125 -25.025 82.0625 -24.8125 83.125 C-24.42555597 87.1234216 -24.91866924 89.33693757 -26.4375 93 C-25.385625 93.165 -24.33375 93.33 -23.25 93.5 C-20.71588971 94.19434622 -19.69004683 94.64780367 -18.140625 96.80859375 C-17.76421875 97.51113281 -17.3878125 98.21367187 -17 98.9375 C-15.16916597 102.3123374 -13.89571095 103.60949242 -10.25 104.875 C-8.3628125 105.431875 -8.3628125 105.431875 -6.4375 106 C-3.83045102 108.60704898 -4.19844667 110.47338241 -4.171875 114.02734375 C-4.4375 116 -4.4375 116 -6.4375 119 C-12.35830749 120.58593058 -16.51058351 119.90534326 -22.1015625 117.4453125 C-25.95058665 115.06380926 -28.12074205 111.81169297 -30.4375 108 C-31.0975 107.01 -31.7575 106.02 -32.4375 105 C-32.77940103 109.35923808 -33.02264147 112.855158 -31 116.8125 C-28.03824271 119.34082939 -25.17594073 120.6291946 -21.55859375 122.0078125 C-19.4375 123 -19.4375 123 -17.93359375 124.55859375 C-15.49827478 126.90489323 -12.92551774 126.86441055 -9.6640625 127.140625 C-6.27770544 126.92674982 -4.67139977 125.44332787 -2.4375 123 C-0.77874203 119.68248407 -1.30860697 115.97402946 -1.32397461 112.32763672 C-1.32382858 111.43001617 -1.32368256 110.53239563 -1.3235321 109.60757446 C-1.32423047 106.63158782 -1.33201933 103.65566325 -1.33984375 100.6796875 C-1.3417082 98.61988357 -1.34313198 96.56007919 -1.34413147 94.50027466 C-1.34795452 89.07182598 -1.35778301 83.64340395 -1.36883545 78.21496582 C-1.37905412 72.67847046 -1.38363007 67.14197081 -1.38867188 61.60546875 C-1.39940545 50.73696744 -1.41647935 39.86848594 -1.4375 29 C-1.7675 29 -2.0975 29 -2.4375 29 Z M15.5625 28 C15.44660636 39.891581 15.35778438 51.78302745 15.30343914 63.67505836 C15.2773549 69.19714951 15.24197761 74.71885402 15.18530273 80.24072266 C15.13094211 85.57051768 15.10107063 90.89994103 15.08811378 96.22999191 C15.07888125 98.26258571 15.06085205 100.29515936 15.03384972 102.32759476 C14.99750584 105.1766873 14.99255692 108.02424778 14.99487305 110.87353516 C14.97689667 111.71223145 14.95892029 112.55092773 14.94039917 113.41503906 C14.97705616 117.58749085 15.30446529 120.20349538 17.97297668 123.50790405 C20.75093098 126.18134151 21.5634771 126.88647467 25.3125 127.3125 C29.44264901 126.91537029 31.18628658 125.4023057 34.5625 123 C37.11886394 121.73181946 39.69530682 120.52486817 42.29296875 119.34375 C44.86577653 117.82043524 46.092579 116.59844099 47.5625 114 C47.92207889 111.64070358 47.92207889 111.64070358 47.75 109.25 C47.72292969 108.45078125 47.69585937 107.6515625 47.66796875 106.828125 C47.61576172 105.92320312 47.61576172 105.92320312 47.5625 105 C46.48090497 106.62239254 45.4060491 108.24980849 44.37109375 109.90234375 C40.66169847 115.40831224 36.99093338 118.21930156 30.5625 120 C26.76078989 120.43626182 24.60324715 120.52037358 21.1875 118.8125 C19.10579927 116.49060303 18.71052041 115.10842861 18.5625 112 C19.4986625 108.90346249 20.26673322 107.29576678 22.5625 105 C23.51125 104.7525 24.46 104.505 25.4375 104.25 C29.43110669 102.65255732 30.54563186 100.72344888 32.5625 97 C32.5625 96.34 32.5625 95.68 32.5625 95 C37.0175 94.01 37.0175 94.01 41.5625 93 C41.2325 92.319375 40.9025 91.63875 40.5625 90.9375 C39.3894095 87.49154664 39.49431588 84.61801973 39.5625 81 C37.89960938 81.05220703 37.89960938 81.05220703 36.203125 81.10546875 C34.73959852 81.13361349 33.27605561 81.16091292 31.8125 81.1875 C31.08289063 81.21263672 30.35328125 81.23777344 29.6015625 81.26367188 C26.34616335 81.30806368 23.9972319 81.23568136 21.10546875 79.66796875 C18.81506853 77.19201712 18.62915835 75.33291748 18.5625 72 C20.69293478 67.43478261 20.69293478 67.43478261 23.5625 66 C24.95762413 65.92328238 26.35367991 65.8629694 27.75 65.8125 C32.54775492 65.36726834 34.50369144 63.57040272 37.8671875 60.30859375 C39.5625 59 39.5625 59 43.3125 58.5 C46.5625 59 46.5625 59 49.5625 61 C49.8925 56.38 50.2225 51.76 50.5625 47 C45.27826465 43.7475236 45.27826465 43.7475236 41.875 44.125 C39.29357981 45.10175359 38.30188173 45.8798347 36.5625 48 C35.70695808 50.55009356 35.11523027 53.10434394 34.50390625 55.72265625 C33.5625 58 33.5625 58 31.69140625 59.3203125 C28.40832588 60.36848862 25.86516012 59.79508484 22.5625 59 C19.55955296 54.49557944 19.861236 50.28010542 20.5625 45 C21.90332062 41.45020153 23.62082651 38.25309887 25.5625 35 C25.8925 34.34 26.2225 33.68 26.5625 33 C25.93601562 32.80664062 25.30953125 32.61328125 24.6640625 32.4140625 C23.84679687 32.15367187 23.02953125 31.89328125 22.1875 31.625 C21.37539063 31.36976563 20.56328125 31.11453125 19.7265625 30.8515625 C17.5625 30 17.5625 30 15.5625 28 Z M-35.4375 60 C-34.4375 62 -34.4375 62 -34.4375 62 Z M-40.4375 65 C-41.69161568 68.36174137 -41.69161568 68.36174137 -41.4375 72 C-38.78578743 75.81183681 -37.18141019 76.84146176 -32.625 77.8125 C-31.573125 77.874375 -30.52125 77.93625 -29.4375 78 C-30.241875 77.030625 -31.04625 76.06125 -31.875 75.0625 C-34.89476832 70.89965554 -35.31166828 67.04470785 -35.4375 62 C-37.70442345 62 -38.90130309 63.51180924 -40.4375 65 Z M50.5625 63 C50.500625 64.175625 50.43875 65.35125 50.375 66.5625 C49.79575089 71.48611746 47.64853895 74.20179821 44.5625 78 C47.93585275 77.67563916 50.8805705 77.29725132 54 75.9375 C56.14345471 73.27961616 56.17688263 71.22713694 56.03515625 67.875 C55.68372564 65.68391702 55.68372564 65.68391702 53.0625 64 C51.825 63.505 51.825 63.505 50.5625 63 Z M-41.4375 93 C-40.695 93.7425 -39.9525 94.485 -39.1875 95.25 C-36.9375 97.5 -34.6875 99.75 -32.4375 102 C-31.4475 99.36 -30.4575 96.72 -29.4375 94 C-33.3975 93.67 -37.3575 93.34 -41.4375 93 Z M49.4375 93.5 C48.52742188 93.5928125 47.61734375 93.685625 46.6796875 93.78125 C45.63167969 93.88953125 45.63167969 93.88953125 44.5625 94 C45.5525 96.31 46.5425 98.62 47.5625 101 C48.87861677 100.04663979 50.19028961 99.08714226 51.5 98.125 C52.59634766 97.32449219 52.59634766 97.32449219 53.71484375 96.5078125 C55.67348235 95.11987896 55.67348235 95.11987896 56.5625 93 C54.16027717 93 51.8273403 93.25488817 49.4375 93.5 Z " fill="#7756BD" transform="translate(249.4375,184)"/>
<path d="M0 0 C0.75141236 -0.00382555 1.50282473 -0.00765109 2.27700716 -0.01159257 C4.79033888 -0.02189655 7.30344104 -0.0179354 9.81678772 -0.01396179 C11.6205771 -0.01830969 13.42436463 -0.0234931 15.22814941 -0.02944946 C20.12481505 -0.04284193 25.02140352 -0.04341788 29.91808391 -0.04088616 C34.00614054 -0.03981667 38.09418154 -0.04469923 42.18223482 -0.04949158 C51.82638153 -0.06058752 61.47048928 -0.06102361 71.11463928 -0.05497742 C81.0638515 -0.04893589 91.01292236 -0.061253 100.96211046 -0.08254749 C109.50491867 -0.10015956 118.04768187 -0.10616549 126.59050757 -0.10290974 C131.6924264 -0.1010962 136.79424438 -0.10374027 141.89614677 -0.11762428 C146.6937411 -0.13019165 151.49111492 -0.12826884 156.28870583 -0.11521339 C158.04871571 -0.11284573 159.80874106 -0.1155891 161.56873322 -0.12383652 C163.9729175 -0.13428968 166.37635992 -0.12621523 168.78051758 -0.11352539 C169.47556442 -0.12089968 170.17061126 -0.12827396 170.88672012 -0.13587171 C175.45129526 -0.08524933 178.6593802 0.69454706 182.45375061 3.26069641 C184.86608092 7.19486831 184.73879921 11.31401728 184.71444702 15.8069458 C184.71827257 16.55835816 184.72209812 17.30977053 184.72603959 18.08395296 C184.73634357 20.59728468 184.73238243 23.11038684 184.72840881 25.62373352 C184.73275672 27.4275229 184.73794013 29.23131043 184.74389648 31.03509521 C184.75728896 35.93176085 184.7578649 40.82834932 184.75533319 45.72502971 C184.75426369 49.81308634 184.75914626 53.90112734 184.76393861 57.98918062 C184.77503454 67.63332733 184.77547063 77.27743508 184.76942444 86.92158508 C184.76338291 96.8707973 184.77570002 106.81986816 184.79699451 116.76905626 C184.81460658 125.31186447 184.82061251 133.85462767 184.81735677 142.39745337 C184.81554322 147.4993722 184.81818729 152.60119018 184.8320713 157.70309258 C184.84463867 162.5006869 184.84271586 167.29806072 184.82966042 172.09565163 C184.82729275 173.85566151 184.83003613 175.61568686 184.83828354 177.37567902 C184.8487367 179.7798633 184.84066225 182.18330572 184.82797241 184.58746338 C184.8353467 185.28251022 184.84272098 185.97755706 184.85031873 186.69366592 C184.79969635 191.25824106 184.01989996 194.46632601 181.45375061 198.26069641 C177.51957871 200.67302672 173.40042974 200.54574501 168.90750122 200.52139282 C168.15608886 200.52521837 167.40467649 200.52904392 166.63049406 200.53298539 C164.11716234 200.54328937 161.60406019 200.53932823 159.0907135 200.53535461 C157.28692412 200.53970252 155.48313659 200.54488593 153.67935181 200.55084229 C148.78268617 200.56423476 143.8860977 200.5648107 138.98941731 200.56227899 C134.90136068 200.5612095 130.81331968 200.56609206 126.7252664 200.57088441 C117.08111969 200.58198034 107.43701194 200.58241643 97.79286194 200.57637024 C87.84364972 200.57032872 77.89457886 200.58264582 67.94539076 200.60394031 C59.40258255 200.62155238 50.85981935 200.62755831 42.31699365 200.62430257 C37.21507482 200.62248902 32.11325684 200.62513309 27.01135445 200.63901711 C22.21376012 200.65158447 17.4163863 200.64966166 12.61879539 200.63660622 C10.85878551 200.63423855 9.09876016 200.63698193 7.33876801 200.64522934 C4.93458372 200.6556825 2.5311413 200.64760805 0.12698364 200.63491821 C-0.5680632 200.6422925 -1.26311004 200.64966678 -1.9792189 200.65726453 C-6.54379403 200.60664215 -9.75187898 199.82684576 -13.54624939 197.26069641 C-15.9585797 193.32652451 -15.83129798 189.20737554 -15.8069458 184.71444702 C-15.81077135 183.96303466 -15.81459689 183.21162229 -15.81853837 182.43743986 C-15.82884235 179.92410814 -15.82488121 177.41100599 -15.82090759 174.8976593 C-15.82525549 173.09386992 -15.83043891 171.29008239 -15.83639526 169.48629761 C-15.84978774 164.58963197 -15.85036368 159.6930435 -15.84783196 154.79636312 C-15.84676247 150.70830648 -15.85164504 146.62026548 -15.85643739 142.5322122 C-15.86753332 132.88806549 -15.86796941 123.24395774 -15.86192322 113.59980774 C-15.85588169 103.65059552 -15.8681988 93.70152466 -15.88949329 83.75233656 C-15.90710536 75.20952835 -15.91311129 66.66676515 -15.90985554 58.12393945 C-15.908042 53.02202062 -15.91068607 47.92020264 -15.92457008 42.81830025 C-15.93713745 38.02070592 -15.93521464 33.2233321 -15.92215919 28.4257412 C-15.91979153 26.66573131 -15.92253491 24.90570596 -15.93078232 23.14571381 C-15.94123548 20.74152953 -15.93316103 18.3380871 -15.92047119 15.93392944 C-15.92784548 15.2388826 -15.93521976 14.54383577 -15.94281751 13.8277269 C-15.89219513 9.26315177 -15.11239874 6.05506682 -12.54624939 2.26069641 C-8.61207749 -0.1516339 -4.49292852 -0.02435218 0 0 Z M1.45375061 17.26069641 C1.45375061 72.04069641 1.45375061 126.82069641 1.45375061 183.26069641 C56.23375061 183.26069641 111.01375061 183.26069641 167.45375061 183.26069641 C167.45375061 128.48069641 167.45375061 73.70069641 167.45375061 17.26069641 C112.67375061 17.26069641 57.89375061 17.26069641 1.45375061 17.26069641 Z " fill="#7657BD" transform="translate(171.54624938964844,155.7393035888672)"/>
<path d="M0 0 C2.5 1.875 2.5 1.875 4 4 C4 4.66 4 5.32 4 6 C4.81984375 6.02578125 5.6396875 6.0515625 6.484375 6.078125 C7.56203125 6.13484375 8.6396875 6.1915625 9.75 6.25 C10.81734375 6.29640625 11.8846875 6.3428125 12.984375 6.390625 C16.57544616 7.11628187 17.77098535 8.14456437 20 11 C21.15711808 14.62563666 21.3351709 16.26262402 19.75 19.75 C18 22 18 22 15 24 C12.07421875 24.265625 12.07421875 24.265625 8.6875 24.25 C7.57761719 24.25515625 6.46773437 24.2603125 5.32421875 24.265625 C1.9203384 23.99363456 -0.82011732 23.21230021 -4 22 C-4 21.34 -4 20.68 -4 20 C-4.5775 19.773125 -5.155 19.54625 -5.75 19.3125 C-9.9180592 16.88113213 -11.69780134 14.12820835 -12.9375 9.5 C-13.00752379 5.57866762 -12.4111431 4.03625427 -10 1 C-6.80713177 -0.59643412 -3.46579307 -0.51370451 0 0 Z " fill="#6860C3" transform="translate(226,242)"/>
</svg>
