<?xml version="1.0" encoding="UTF-8"?>
<svg version="1.1" xmlns="http://www.w3.org/2000/svg" width="1191" height="552">
<path d="M0 0 C393.03 0 786.06 0 1191 0 C1191 182.16 1191 364.32 1191 552 C797.97 552 404.94 552 0 552 C0 369.84 0 187.68 0 0 Z " fill="#FEFEFE" transform="translate(0,0)"/>
<path d="M0 0 C0.9175708 -0.00376648 1.8351416 -0.00753296 2.78051758 -0.01141357 C14.72148068 -0.0362483 26.29827601 0.62695902 38.125 2.3125 C38.79223083 2.40330841 39.45946167 2.49411682 40.14691162 2.587677 C62.30689033 5.60465095 84.96513534 12.69096346 105.125 22.3125 C105.82077148 22.6410498 106.51654297 22.96959961 107.23339844 23.30810547 C134.56002608 36.31141714 158.28118055 53.43415324 180.125 74.3125 C180.87265625 75.01890625 181.6203125 75.7253125 182.390625 76.453125 C187.78759243 81.68010921 192.48473634 87.4147864 197.125 93.3125 C197.87040039 94.25125977 197.87040039 94.25125977 198.63085938 95.20898438 C222.51961584 125.38272428 239.6612729 159.68084016 248.125 197.3125 C248.32319336 198.16650391 248.52138672 199.02050781 248.72558594 199.90039062 C263.37918904 263.70410598 250.88250627 333.74823645 216.25 389.125 C201.3009059 412.44956934 182.98161265 434.20992485 161.125 451.3125 C160.05721387 452.18059712 158.99086861 453.0504688 157.92578125 453.921875 C129.93748375 476.64440604 97.73922804 491.70817974 63.125 501.3125 C61.97902344 501.63863281 60.83304688 501.96476562 59.65234375 502.30078125 C53.87171352 503.85129417 48.01900122 504.92308403 42.125 505.9375 C41.41303467 506.06092773 40.70106934 506.18435547 39.9675293 506.31152344 C13.02915609 510.71834466 -18.14094518 510.80437948 -44.875 505.3125 C-46.03741211 505.07611816 -47.19982422 504.83973633 -48.39746094 504.59619141 C-94.44497515 494.99165867 -135.67513014 475.32275246 -170.5234375 443.44140625 C-172.51959463 441.63425403 -174.55576365 439.90892854 -176.625 438.1875 C-220.6021133 399.60798008 -247.19334263 339.95637307 -253.60888672 282.65209961 C-253.77578964 281.18473201 -253.95745589 279.71888806 -254.16064453 278.25610352 C-255.16977363 270.62264668 -255.11878194 262.93668704 -255.125 255.25 C-255.12567474 254.4978421 -255.12634949 253.7456842 -255.12704468 252.97073364 C-255.1080367 239.55625153 -254.14055841 226.55038049 -251.875 213.3125 C-251.71402832 212.32056641 -251.55305664 211.32863281 -251.38720703 210.30664062 C-247.39686745 186.18827691 -239.70058408 163.21367075 -228.875 141.3125 C-228.50906738 140.56822754 -228.14313477 139.82395508 -227.76611328 139.05712891 C-220.32203731 124.08023963 -211.15047748 110.49509655 -200.875 97.3125 C-200.19179688 96.43464844 -199.50859375 95.55679688 -198.8046875 94.65234375 C-180.46544018 71.67753023 -158.6644669 53.00179213 -133.875 37.3125 C-133.25818359 36.91498535 -132.64136719 36.5174707 -132.00585938 36.10791016 C-105.30535142 19.02480968 -75.76113064 9.32134884 -44.875 3.3125 C-43.96282715 3.13025879 -43.0506543 2.94801758 -42.11083984 2.76025391 C-28.16280533 0.09477098 -14.14997706 0.03218365 0 0 Z " fill="#76B900" transform="translate(604.875,15.6875)"/>
<path d="M0 0 C3.8026029 2.0050088 5.61790841 3.42686262 8 7 C8.65237324 11.37433428 9.03401151 16.01269906 6.94921875 20.01953125 C5.19367363 22.14793551 3.47623989 23.76188006 1 25 C0.67 45.79 0.34 66.58 0 88 C46.53 88 93.06 88 141 88 C141 70.51 141 53.02 141 35 C133.9875 35.061875 126.975 35.12375 119.75 35.1875 C117.54151367 35.19418701 115.33302734 35.20087402 113.05761719 35.20776367 C111.3040059 35.23421153 109.55042084 35.26248909 107.796875 35.29296875 C106.8888916 35.28898071 105.9809082 35.28499268 105.04541016 35.28088379 C99.68776421 35.32523499 99.68776421 35.32523499 95.50097656 38.4621582 C95.0056543 39.299646 94.51033203 40.13713379 94 41 C90.51335549 43.52481154 87.20248882 43.43474022 83 43 C79.07824435 40.88828542 76.35308997 38.77446512 74 35 C73.25299428 30.4959949 73.47671205 26.29444915 75.1875 22.0625 C78.5024899 18.29027011 81.38910726 16.81059401 86.375 16.4375 C91.05076833 16.57064583 93.44928359 18.36055194 96.78515625 21.4921875 C98 23 98 23 98 25 C115.49 25 132.98 25 151 25 C151 45.79 151 66.58 151 88 C200.83 88 250.66 88 302 88 C300 97 300 97 299 99 C250.16 99 201.32 99 151 99 C151 122.1 151 145.2 151 169 C196.21 169 241.42 169 288 169 C288 172.3 288 175.6 288 179 C239.49 179 190.98 179 141 179 C141 152.6 141 126.2 141 99 C130.18347656 99.01160156 119.36695313 99.02320313 108.22265625 99.03515625 C101.39127581 99.04026266 94.55989673 99.04511765 87.72851562 99.04882812 C76.87312347 99.05477143 66.01773906 99.06177396 55.16235352 99.07543945 C47.25791288 99.08538538 39.35347849 99.09185321 31.44903177 99.09408849 C27.26105281 99.09539576 23.07309173 99.09848259 18.88511848 99.10573006 C14.94784702 99.11248884 11.01060092 99.11461725 7.0733242 99.11310768 C5.62405383 99.11338407 4.17478265 99.11539004 2.72551727 99.11920547 C0.75529586 99.12414043 -1.21493898 99.12239809 -3.18516541 99.12025452 C-4.84301009 99.12163721 -4.84301009 99.12163721 -6.53434658 99.12304783 C-9 99 -9 99 -10 98 C-10.09443335 95.69946165 -10.11742128 93.39597827 -10.11352539 91.09350586 C-10.11367142 90.37159561 -10.11381744 89.64968536 -10.1139679 88.90589905 C-10.11326869 86.50885053 -10.10547595 84.11187877 -10.09765625 81.71484375 C-10.0957921 80.05717511 -10.09436818 78.39950593 -10.09336853 76.74183655 C-10.08954312 72.37045786 -10.07971265 67.99911219 -10.06866455 63.62774658 C-10.05845092 59.17045539 -10.05387101 54.71315889 -10.04882812 50.25585938 C-10.0380904 41.50389107 -10.02101371 32.75194964 -10 24 C-10.93585937 23.56880859 -10.93585937 23.56880859 -11.890625 23.12890625 C-14.88183247 21.52805633 -15.67005255 20.1253765 -17 17 C-17.77259016 12.92286577 -17.92425895 9.52064622 -15.72265625 5.8984375 C-10.9940508 0.2796056 -7.30938538 -0.90906642 0 0 Z " fill="#0B0B0B" transform="translate(43,95)"/>
<path d="M0 0 C3.98961657 2.0705605 6.48066778 4.07818059 8.1015625 8.2734375 C8.64924488 13.20257889 8.64437403 15.26268499 6.2890625 19.6484375 C4.1015625 22.2734375 4.1015625 22.2734375 1.1015625 24.2734375 C0.62151812 27.42607268 0.62151812 27.42607268 0.66918945 31.20166016 C0.65891566 31.92549078 0.64864187 32.6493214 0.63805676 33.39508629 C0.60812063 35.74264196 0.59861985 38.08977965 0.58984375 40.4375 C0.57438416 41.88502476 0.55758847 43.33253589 0.53942871 44.7800293 C0.48142801 50.15268148 0.4493276 55.52558799 0.4140625 60.8984375 C0.3109375 72.9021875 0.2078125 84.9059375 0.1015625 97.2734375 C32.7715625 97.2734375 65.4415625 97.2734375 99.1015625 97.2734375 C99.1015625 70.8734375 99.1015625 44.4734375 99.1015625 17.2734375 C136.7215625 17.2734375 174.3415625 17.2734375 213.1015625 17.2734375 C216.1015625 25.2734375 216.1015625 25.2734375 216.1015625 27.2734375 C180.7915625 27.2734375 145.4815625 27.2734375 109.1015625 27.2734375 C109.1015625 50.3734375 109.1015625 73.4734375 109.1015625 97.2734375 C124.37308594 97.11681641 124.37308594 97.11681641 139.953125 96.95703125 C146.39715591 96.91105365 152.84106815 96.86735685 159.28515625 96.83398438 C169.51717703 96.78056974 179.74853106 96.71776194 189.97998047 96.59448242 C197.43144267 96.50474202 204.88236432 96.44670586 212.3343519 96.42664105 C216.28003574 96.41491234 220.22417328 96.3873798 224.16936111 96.32186699 C227.88478558 96.26067073 231.59803086 96.24195146 235.31391144 96.25546837 C237.32406961 96.25182003 239.33399136 96.20343565 241.34353638 96.15365601 C250.0001786 96.24267898 250.0001786 96.24267898 253.27830124 99.31059456 C257.1015625 104.91673134 257.1015625 104.91673134 257.1015625 107.2734375 C208.2615625 107.2734375 159.4215625 107.2734375 109.1015625 107.2734375 C109.1015625 126.4134375 109.1015625 145.5534375 109.1015625 165.2734375 C110.4215625 165.9334375 111.7415625 166.5934375 113.1015625 167.2734375 C116.30903914 170.21362442 117.40065417 172.44881084 117.6015625 176.7109375 C117.38474741 181.20424338 116.11434752 183.85351937 113.1015625 187.2734375 C110.17483578 189.64645917 108.41847046 190.23310376 104.6640625 190.7109375 C99.72610984 190.10452226 96.78647062 188.12282474 93.4609375 184.47265625 C90.95419736 180.41721172 91.34675249 175.86349836 92.1015625 171.2734375 C94.5390625 168.1484375 94.5390625 168.1484375 97.1015625 166.2734375 C98.81951151 164.55548849 98.27078379 162.27405337 98.30688477 159.92749023 C98.32706665 158.77035522 98.34724854 157.61322021 98.36804199 156.42102051 C98.38451782 155.19540405 98.40099365 153.9697876 98.41796875 152.70703125 C98.43661987 151.58752075 98.455271 150.46801025 98.4744873 149.3145752 C98.54303256 145.11344657 98.60302278 140.91218188 98.6640625 136.7109375 C98.8084375 127.3265625 98.9528125 117.9421875 99.1015625 108.2734375 C63.1315625 108.2734375 27.1615625 108.2734375 -9.8984375 108.2734375 C-10.0859375 66.5234375 -10.0859375 66.5234375 -10.10620117 53.34472656 C-10.13608001 49.4435434 -10.13608001 49.4435434 -10.17256165 45.54241943 C-10.18563315 43.80597326 -10.18889673 42.06943633 -10.18440247 40.33294678 C-10.17949962 37.70072053 -10.20579466 35.07046095 -10.23901367 32.43847656 C-10.23039149 31.66592655 -10.22176931 30.89337654 -10.21288586 30.09741592 C-10.29627981 26.21898655 -10.50886195 24.64821708 -13.35762024 21.90765381 C-14.19608994 21.36836243 -15.03455963 20.82907104 -15.8984375 20.2734375 C-18.14903285 16.30810284 -18.37248615 12.77689968 -17.8984375 8.2734375 C-14.12409689 1.00433706 -8.32218907 -3.18503532 0 0 Z " fill="#080808" transform="translate(127.8984375,326.7265625)"/>
<path d="M0 0 C3.80285865 2.0090574 7.09334467 4.08076405 9 8 C9.58387359 12.31417705 9.4951531 15.86114786 7.75 19.875 C5.12335292 23.06450003 2.92280404 24.69239865 -1 26 C-5.27201023 26.40301983 -7.52963997 26.24389038 -11.375 24.25 C-14.10521442 21.90981621 -14.39873894 21.32791006 -15 18 C-15.58981346 18.00341748 -16.17962692 18.00683497 -16.78731352 18.01035601 C-51.74261527 18.21174836 -86.6978172 18.36617331 -121.65357837 18.45958797 C-125.85051481 18.47084436 -130.04745008 18.48249325 -134.24438477 18.49438477 C-135.07992073 18.49674556 -135.91545669 18.49910635 -136.77631193 18.50153869 C-150.30620558 18.54070328 -163.83575515 18.61166555 -177.36544467 18.69437516 C-191.24765934 18.7785322 -205.12969379 18.82852746 -219.01215309 18.84679645 C-227.57896207 18.85914736 -236.14479856 18.89815675 -244.71130817 18.9712482 C-250.58532417 19.01881434 -256.45883728 19.03320311 -262.3330319 19.0215124 C-265.72321554 19.01574503 -269.1103301 19.02950397 -272.50044632 19.07284927 C-276.17776994 19.1175668 -279.85091743 19.10689418 -283.52833557 19.08229065 C-285.13194902 19.12161401 -285.13194902 19.12161401 -286.7679587 19.16173178 C-291.18996726 19.08163388 -293.89708125 18.99523003 -297.26168811 15.95914257 C-302 9.98736911 -302 9.98736911 -302 8 C-207.29 8 -112.58 8 -15 8 C-14.34 6.68 -13.68 5.36 -13 4 C-9.14890732 -0.07762754 -5.45467763 -1.06954463 0 0 Z " fill="#000000" transform="translate(1124,96)"/>
<path d="M0 0 C4.11092959 1.77517414 6.73298981 4.13768634 9 8 C9.69498801 12.24714892 9.47444282 15.81389296 7.875 19.8125 C4.53931703 23.70413013 1.62182097 25.76831129 -3.5 26.5 C-7.6735008 25.9037856 -9.78241364 24.69379323 -13 22 C-13.66 20.68 -14.32 19.36 -15 18 C-102.78 18 -190.56 18 -281 18 C-280.01 14.7 -279.02 11.4 -278 8 C-191.21 8 -104.42 8 -15 8 C-14.34 6.35 -13.68 4.7 -13 3 C-9.01006695 -0.40317819 -5.02767295 -0.74597586 0 0 Z " fill="#060606" transform="translate(1146,336)"/>
<path d="M0 0 C37 0 37 0 46 5 C51.08999299 10.19829071 53.28418707 14.60801471 53.3125 21.875 C53.16747169 28.83635888 51.92231767 33.20651376 47 38.3125 C45.06090513 40.15565008 43.25666999 41.49555334 41 43 C42.93418306 46.89748864 44.87292579 50.79269181 46.8125 54.6875 C47.35970703 55.79029297 47.90691406 56.89308594 48.47070312 58.02929688 C49.00244141 59.09599609 49.53417969 60.16269531 50.08203125 61.26171875 C50.56905518 62.24100342 51.0560791 63.22028809 51.55786133 64.22924805 C52.97413444 67.03118256 52.97413444 67.03118256 54.68237305 69.73364258 C56 72 56 72 56 74 C50.39 74 44.78 74 39 74 C37.80375 71.6075 36.6075 69.215 35.375 66.75 C34.77606934 65.57280396 34.77606934 65.57280396 34.16503906 64.37182617 C32.47556149 61.04642215 30.90005997 57.75607419 29.484375 54.30078125 C29.03578125 53.23214844 28.5871875 52.16351563 28.125 51.0625 C27.57199219 49.62583984 27.57199219 49.62583984 27.0078125 48.16015625 C24.34875146 44.8220482 24.34875146 44.8220482 15 45 C15 54.57 15 64.14 15 74 C10.05 74 5.1 74 0 74 C0 49.58 0 25.16 0 0 Z " fill="#FCFDFA" transform="translate(706,229)"/>
<path d="M0 0 C4.08893815 1.85860825 5.61924134 3.39316588 8 7.1875 C9.26447486 12.0083104 8.83878886 15.39858634 7 20 C5 22.5625 5 22.5625 3 24 C2.34 24 1.68 24 1 24 C1 33.57 1 43.14 1 53 C49.51 53 98.02 53 148 53 C146.17136007 56.65727987 144.57231358 59.82667726 142 63 C139.13396835 63.73828697 139.13396835 63.73828697 135.74847412 63.7215271 C133.82179901 63.73389908 133.82179901 63.73389908 131.85620117 63.746521 C130.43505018 63.7252873 129.01390769 63.70347846 127.59277344 63.68115234 C126.09466622 63.67945971 124.59655403 63.68041027 123.09844971 63.68380737 C119.03226481 63.68552992 114.96714046 63.65023943 110.9012022 63.60836363 C106.65182043 63.57087202 102.40241471 63.56733254 98.15289307 63.56021118 C90.10628384 63.54155761 82.06016334 63.49231399 74.01376939 63.43211424 C64.85309779 63.36506475 55.69240293 63.33206409 46.53154707 63.30194163 C27.68736461 63.23921495 8.84385219 63.12917638 -10 63 C-10 50.13 -10 37.26 -10 24 C-11.32 23.34 -12.64 22.68 -14 22 C-16.73588081 19.10902391 -17.4313411 17.07901207 -17.4375 13.125 C-17.29745715 8.37754754 -16.18346442 5.63824505 -13 2 C-8.73191307 -0.84539129 -5.00803677 -0.61625375 0 0 Z " fill="#080808" transform="translate(240,49)"/>
<path d="M0 0 C5.7651935 3.25434813 9.27027815 6.89461462 11.84765625 13.04296875 C13.45035211 22.49887432 14.65785108 34.88314807 9.66015625 43.48046875 C5.4682337 49.25787489 1.04673365 52.74477447 -6.15234375 54.04296875 C-13.33434813 54.74181648 -19.23094117 54.44506409 -25.15234375 50.04296875 C-30.9522964 44.83619308 -34.11588161 38.48861412 -34.5859375 30.67578125 C-34.60963131 29.17336334 -34.6104497 27.67043218 -34.58984375 26.16796875 C-34.58082031 25.3793042 -34.57179688 24.59063965 -34.5625 23.77807617 C-34.34630914 16.4853878 -33.28804239 10.53216995 -28.28125 4.9609375 C-20.23807342 -2.50446836 -10.267438 -4.49068644 0 0 Z " fill="#FCFDF9" transform="translate(635.15234375,249.95703125)"/>
<path d="M0 0 C2.75 1.25 2.75 1.25 5 3 C5.763125 3.495 6.52625 3.99 7.3125 4.5 C10.13218677 8.67731374 9.83045261 13.13692584 9 18 C7.11488541 21.64791259 4.40198805 23.73200797 1 26 C-3.81540624 26.47364652 -6.05114955 26.49199653 -10.375 24.25 C-13 22 -13 22 -15 18 C-61.2 18 -107.4 18 -155 18 C-155 14.7 -155 11.4 -155 8 C-108.8 8 -62.6 8 -15 8 C-14.34 6.68 -13.68 5.36 -13 4 C-9.00465014 -0.23037044 -5.56231624 -0.93835823 0 0 Z " fill="#010101" transform="translate(1033,256)"/>
<path d="M0 0 C6.20396599 3.60774109 8.92948858 9.73856728 11.15625 16.25390625 C11.15625 20.54390625 11.15625 24.83390625 11.15625 29.25390625 C-0.06375 29.25390625 -11.28375 29.25390625 -22.84375 29.25390625 C-21.4813072 35.83934283 -21.4813072 35.83934283 -18.78125 38.69140625 C-14.7192326 40.8520538 -11.35537005 40.93820841 -6.84375 40.25390625 C-3.52569858 38.92961352 -3.52569858 38.92961352 -0.84375 37.25390625 C0.14625 36.92390625 1.13625 36.59390625 2.15625 36.25390625 C5.16390886 39.10326728 7.43470212 41.48902583 9.15625 45.25390625 C7.9326937 46.21939237 6.70210189 47.17596523 5.46875 48.12890625 C4.78425781 48.66257812 4.09976563 49.19625 3.39453125 49.74609375 C-3.43474652 54.34661944 -10.92556027 54.04897038 -18.84375 53.25390625 C-24.71394509 51.44193277 -29.7598753 48.70999225 -32.84375 43.25390625 C-37.40468324 34.13203977 -38.61430846 24.20063817 -36.078125 14.25 C-33.11157692 6.35097713 -29.32330193 1.78103681 -21.62109375 -1.79296875 C-14.16808039 -4.3506836 -7.06635496 -3.20893018 0 0 Z " fill="#FBFDF9" transform="translate(472.84375,250.74609375)"/>
<path d="M0 0 C4.85679141 2.89539488 8.44495466 6.52236397 10.25 11.9375 C10.33589303 13.33405459 10.36772715 14.73435777 10.36352539 16.13354492 C10.36344986 16.97418991 10.36337433 17.8148349 10.36329651 18.68095398 C10.35813522 19.58416885 10.35297394 20.48738373 10.34765625 21.41796875 C10.3462413 22.34595779 10.34482635 23.27394684 10.34336853 24.23005676 C10.33776937 27.19507058 10.32521704 30.16000899 10.3125 33.125 C10.30748489 35.13476453 10.302922 37.14453025 10.29882812 39.15429688 C10.28780021 44.08206032 10.27053617 49.00976737 10.25 53.9375 C5.63 53.9375 1.01 53.9375 -3.75 53.9375 C-3.7593457 52.83760742 -3.76869141 51.73771484 -3.77832031 50.60449219 C-3.81822937 46.51895834 -3.88399004 42.43417681 -3.95751953 38.34912109 C-3.98572397 36.58196689 -4.00694118 34.81468666 -4.02099609 33.04736328 C-4.04243358 30.50487778 -4.08908503 27.96390662 -4.140625 25.421875 C-4.14185364 24.63319031 -4.14308228 23.84450562 -4.14434814 23.03192139 C-4.24038515 19.4255798 -4.43683667 17.34589919 -6.66308594 14.44262695 C-8.91358268 12.81952068 -10.00383133 12.36963639 -12.75 12.375 C-13.74 12.34212891 -13.74 12.34212891 -14.75 12.30859375 C-17.95934354 13.31778186 -18.95549046 15.13901779 -20.75 17.9375 C-21.16017617 20.84707255 -21.35468409 23.39281918 -21.359375 26.30078125 C-21.37591125 27.09276413 -21.39244751 27.88474701 -21.40948486 28.70072937 C-21.45786572 31.21723257 -21.47931275 33.73313196 -21.5 36.25 C-21.52816813 37.96161876 -21.55809675 39.67320951 -21.58984375 41.38476562 C-21.66362147 45.56896067 -21.71325618 49.7528225 -21.75 53.9375 C-26.37 53.9375 -30.99 53.9375 -35.75 53.9375 C-35.75 36.1175 -35.75 18.2975 -35.75 -0.0625 C-31.13 -0.0625 -26.51 -0.0625 -21.75 -0.0625 C-21.42 0.9275 -21.09 1.9175 -20.75 2.9375 C-19.80125 2.2775 -18.8525 1.6175 -17.875 0.9375 C-12.05383266 -2.37373082 -6.26538136 -1.77519138 0 0 Z " fill="#FBFDF7" transform="translate(529.75,249.0625)"/>
<path d="M0 0 C17.82 0 35.64 0 54 0 C54 4.29 54 8.58 54 13 C47.4 13 40.8 13 34 13 C34 33.13 34 53.26 34 74 C29.05 74 24.1 74 19 74 C19 53.87 19 33.74 19 13 C12.73 13 6.46 13 0 13 C0 8.71 0 4.42 0 0 Z " fill="#FCFDF9" transform="translate(767,229)"/>
<path d="M0 0 C17.82 0 35.64 0 54 0 C54 4.29 54 8.58 54 13 C47.73 13 41.46 13 35 13 C35 33.13 35 53.26 35 74 C30.05 74 25.1 74 20 74 C20 53.87 20 33.74 20 13 C13.4 13 6.8 13 0 13 C0 8.71 0 4.42 0 0 Z " fill="#FBFDF9" transform="translate(389,229)"/>
<path d="M0 0 C1.85546875 1.265625 1.85546875 1.265625 3.85546875 5.265625 C1.54546875 7.575625 -0.76453125 9.885625 -3.14453125 12.265625 C-4.50578125 11.770625 -4.50578125 11.770625 -5.89453125 11.265625 C-11.17279684 9.73427634 -16.69847966 9.89625557 -22.14453125 10.265625 C-23.44086746 11.33207615 -23.44086746 11.33207615 -23.20703125 13.828125 C-23.18640625 14.6325 -23.16578125 15.436875 -23.14453125 16.265625 C-18.62395988 17.73743893 -14.30364681 18.53556671 -9.58203125 19.140625 C-3.02918327 20.11113865 0.24376814 21.39275433 4.73046875 26.328125 C6.7642407 31.63852954 6.9446091 37.23015051 5.01171875 42.6171875 C1.51485545 48.92571791 -3.54948871 51.06727749 -10.14453125 53.265625 C-20.25673336 53.85645029 -29.65270806 54.18835585 -38.20703125 48.078125 C-38.84640625 47.48 -39.48578125 46.881875 -40.14453125 46.265625 C-38.76264672 43.05518618 -37.22031222 41.21626135 -34.51953125 39.015625 C-33.57207031 38.23445313 -33.57207031 38.23445313 -32.60546875 37.4375 C-31.88230469 36.85742188 -31.88230469 36.85742188 -31.14453125 36.265625 C-30.23703125 36.925625 -29.32953125 37.585625 -28.39453125 38.265625 C-23.35541025 41.17757607 -17.79895942 40.97656188 -12.14453125 40.265625 C-11.15453125 39.605625 -10.16453125 38.945625 -9.14453125 38.265625 C-8.89422148 35.68182323 -8.89422148 35.68182323 -9.14453125 33.265625 C-12.86968709 31.56308577 -15.87897163 31.02958902 -19.95703125 30.890625 C-26.09739552 30.43746158 -31.27445261 29.47815621 -35.51953125 24.7265625 C-38.2879165 20.51630993 -39.0559139 16.2402553 -38.14453125 11.265625 C-36.367818 5.26921778 -33.42964878 2.22360902 -28.046875 -0.82421875 C-19.53676992 -4.89578853 -8.44041365 -3.56278767 0 0 Z " fill="#FBFDF8" transform="translate(588.14453125,250.734375)"/>
<path d="M0 0 C4.38773175 2.19386588 7.09334197 4.44520582 9 9 C9.53491853 13.20293133 9.30685774 15.39808674 7.375 19.1875 C3.86108169 23.34871905 1.00855453 25.67132744 -4.4375 26.5625 C-8.92355693 25.85417522 -11.70477787 24.07181724 -15 21 C-15.495 20.01 -15.495 20.01 -16 19 C-49.33 18.67 -82.66 18.34 -117 18 C-113 11 -113 11 -111 8 C-107.94981101 7.71396539 -105.10361698 7.62207227 -102.05224609 7.65942383 C-100.66192421 7.65876671 -100.66192421 7.65876671 -99.24351501 7.65809631 C-96.16994394 7.66019175 -93.09691366 7.68355838 -90.0234375 7.70703125 C-87.89637551 7.71262452 -85.76930966 7.71689588 -83.64224243 7.71989441 C-78.03614687 7.73136435 -72.43028345 7.76085005 -66.82427979 7.79400635 C-61.10684347 7.82466094 -55.38936975 7.83838988 -49.671875 7.85351562 C-38.44781452 7.88571766 -27.22392654 7.93693995 -16 8 C-15.56880859 7.07960938 -15.56880859 7.07960938 -15.12890625 6.140625 C-11.78322024 -0.20344398 -6.58209658 -1.14925496 0 0 Z " fill="#060606" transform="translate(941,416)"/>
<path d="M0 0 C3.26312002 3.29412353 4.50364188 6.1530836 4.76953125 10.78515625 C4.4535892 15.97450437 2.84091132 18.22602363 -0.91796875 21.72265625 C-4.95033082 24.41089763 -8.1805729 24.6466442 -12.91796875 23.72265625 C-15.66469495 22.09163122 -17.91131033 20.21323551 -19.91796875 17.72265625 C-19.91796875 17.06265625 -19.91796875 16.40265625 -19.91796875 15.72265625 C-48.62796875 15.72265625 -77.33796875 15.72265625 -106.91796875 15.72265625 C-107.57796875 12.42265625 -108.23796875 9.12265625 -108.91796875 5.72265625 C-79.54796875 5.72265625 -50.17796875 5.72265625 -19.91796875 5.72265625 C-19.25796875 4.40265625 -18.59796875 3.08265625 -17.91796875 1.72265625 C-13.63276204 -3.53646108 -5.49002883 -3.65629211 0 0 Z " fill="#010101" transform="translate(973.91796875,178.27734375)"/>
<path d="M0 0 C2.5 1.6875 2.5 1.6875 4.5 4.6875 C1.2 7.9875 -2.1 11.2875 -5.5 14.6875 C-6.82 14.0275 -8.14 13.3675 -9.5 12.6875 C-12.37159565 12.21349381 -14.53162248 12.40479738 -17.5 12.6875 C-20.32339506 15.14696221 -20.51109168 16.78627924 -20.93237305 20.53808594 C-20.97365456 22.08235705 -20.99920301 23.62710292 -21.01171875 25.171875 C-21.02966995 25.98746887 -21.04762115 26.80306274 -21.06611633 27.64337158 C-21.1201802 30.24136223 -21.15410182 32.83916958 -21.1875 35.4375 C-21.22067661 37.2018484 -21.25516659 38.96617263 -21.29101562 40.73046875 C-21.3759042 45.04934683 -21.44273377 49.36817092 -21.5 53.6875 C-26.12 53.6875 -30.74 53.6875 -35.5 53.6875 C-35.5 35.8675 -35.5 18.0475 -35.5 -0.3125 C-31.21 -0.3125 -26.92 -0.3125 -22.5 -0.3125 C-22.17 0.6775 -21.84 1.6675 -21.5 2.6875 C-20.38625 2.0275 -19.2725 1.3675 -18.125 0.6875 C-12.05762091 -2.33543178 -6.30401622 -2.36400608 0 0 Z " fill="#FBFDF8" transform="translate(694.5,249.3125)"/>
<path d="M0 0 C3.65949906 0.07060127 4.3183551 0.15385346 7.125 2.75 C9.52996618 7.05889773 9.81260564 10.36764153 9.875 15.25 C9.90078125 16.45269531 9.9265625 17.65539062 9.953125 18.89453125 C9.50876059 23.69260883 8.03410484 27.02839516 4.625 30.4375 C1.57013908 30.99775442 -1.31925647 30.98666387 -4.375 30.4375 C-7.82065941 27.16412356 -9.30551489 24.64146315 -9.578125 19.91796875 C-9.59942236 18.48705235 -9.6148056 17.05603857 -9.625 15.625 C-9.645625 14.91279297 -9.66625 14.20058594 -9.6875 13.46679688 C-9.72129987 8.89958941 -9.14949773 6.08071183 -6.375 2.4375 C-3.99374088 0.05624088 -3.26792462 0.09228359 0 0 Z " fill="#79BA06" transform="translate(624.375,260.5625)"/>
<path d="M0 0 C2.536875 -0.061875 5.07375 -0.12375 7.6875 -0.1875 C8.47729248 -0.21481201 9.26708496 -0.24212402 10.08081055 -0.27026367 C14.62928046 -0.32374802 17.38608784 0.23089848 21 3 C23.39286884 5.39286884 23.32050616 6.09447094 23.375 9.375 C23.30982816 12.75307372 23.21347457 13.71536724 21.125 16.5 C16.9458698 19.44997426 13.32725112 19.11436324 8.375 19.0625 C5.61125 19.041875 2.8475 19.02125 0 19 C0 12.73 0 6.46 0 0 Z " fill="#76B901" transform="translate(721,242)"/>
<path d="M0 0 C3 1.5625 3 1.5625 5 4 C5.33 6.31 5.66 8.62 6 11 C-0.6 11 -7.2 11 -14 11 C-13 4 -13 4 -11.5 1.5625 C-7.72887154 -0.79445529 -4.32480564 -0.74778279 0 0 Z " fill="#7CBC0C" transform="translate(464,260)"/>
</svg>
